<?xml version="1.0" encoding="UTF-8" standalone="no"?>
<svg viewBox="0 0 6804 3402" style="fill-rule:nonzero;clip-rule:evenodd;stroke-linecap:round;stroke-linejoin:round;" xml:space="preserve" width="100%" version="1.1" xmlns="http://www.w3.org/2000/svg" xmlns:xlink="http://www.w3.org/1999/xlink" height="100%">
<path d="M-2.36436-4.20104L6804.78-4.20104L6804.78+3401.06L-2.36436+3401.06L-2.36436-4.20104Z" opacity="1" fill="#012169"/>
<path d="M4506.6+1667.14L4506.6-3.86965L1575.73-3.86965L1575.73+1667.14L4506.6+1667.14Z" opacity="1" fill="#012169" fill-rule="evenodd"/>
<path fill="#ffffff" fill-rule="evenodd" opacity="1" d="M3380.9+1667.14L3380.9+1084.12L4506.6+1084.12L4506.6+579.138L3380.9+579.138L3380.9-3.86965L2685.62-3.86965L2685.62+579.138L1575.73+579.138L1575.73+1084.12L2685.62+1084.12L2685.62+1667.14L3380.9+1667.14Z"/>
<path opacity="1" fill="#ffffff" d="M1932.66-3.86965L4506.6+1463.71L4506.6+1667.17L4156.02+1667.17L1575.73+195.959L1575.73-3.86965L1932.66-3.86965Z" fill-rule="evenodd"/>
<path fill="#ffffff" d="M4149.69-3.86965L1575.73+1463.71L1575.73+1667.17L1926.32+1667.17L4506.6+195.959L4506.6-3.86965L4149.69-3.86965Z" opacity="1" fill-rule="evenodd"/>
<path fill-rule="evenodd" fill="#cc2229" opacity="1" d="M4506.6+670.453L3253.16+670.453L3253.16-3.86965L2830.37-3.86965L2830.37+670.453L1575.73+670.453L1575.73+992.808L2830.37+992.808L2830.37+1667.14L3253.16+1667.14L3253.16+992.808L4506.6+992.808L4506.6+670.453Z"/>
<path fill="#cc2229" d="M1577.07-3.86965L2595.25+579.138L2366.73+579.138L1575.73+126.206L1575.73-3.86962C1575.73-3.86962+1577.07-3.86962+1577.07-3.86965ZM1575.73+1664.23L1575.73+1667.17L1799.1+1667.17L2685.62+1159.54L2685.62+1084.12L2588.81+1084.12L1575.73+1664.23ZM4506.6+1667.17L4506.6+1545.36L3701.07+1084.12L3472.56+1084.12L4490.81+1667.17L4506.6+1667.17ZM4264.99-3.86965L3380.9+502.37L3380.9+579.138L3475.32+579.138L4493.51-3.86968C4493.51-3.86968+4264.99-3.86968+4264.99-3.86965Z" fill-rule="evenodd" opacity="1"/>
<path fill="#ffffff" d="M3300.65+1978.85L3349.58+2130.96L3499.01+2074.37L3410.58+2207.46L3548+2289L3388.81+2302.85L3410.73+2461.13L3300.65+2345.31L3190.58+2461.13L3212.5+2302.85L3053.31+2289L3190.73+2207.46L3102.3+2074.37L3251.73+2130.96L3300.65+1978.85Z" opacity="1"/>
<path fill="#ffffff" opacity="1" d="M5122.43+2072.57L5156.8+2179.45L5261.79+2139.69L5199.67+2233.2L5296.22+2290.5L5184.37+2300.23L5199.77+2411.44L5122.43+2330.06L5045.08+2411.44L5060.48+2300.23L4948.63+2290.5L5045.19+2233.2L4983.06+2139.69L5088.05+2179.45L5122.43+2072.57Z"/>
<path d="M4775.26+1318.1L4809.64+1424.98L4914.63+1385.21L4852.5+1478.73L4949.05+1536.02L4837.2+1545.75L4852.6+1656.96L4775.26+1575.58L4697.92+1656.96L4713.32+1545.75L4601.47+1536.02L4698.02+1478.73L4635.89+1385.21L4740.89+1424.98L4775.26+1318.1Z" fill="#ffffff" opacity="1"/>
<path opacity="1" fill="#ffffff" d="M5340.34+246.365L5374.71+353.244L5479.71+313.482L5417.58+406.995L5514.13+464.291L5402.28+474.022L5417.68+585.231L5340.34+503.851L5262.99+585.231L5278.4+474.022L5166.55+464.291L5263.1+406.995L5200.97+313.482L5305.96+353.244L5340.34+246.365Z"/>
<path d="M5761.27+1023.52L5795.65+1130.4L5900.64+1090.63L5838.51+1184.15L5935.06+1241.44L5823.22+1251.17L5838.62+1362.38L5761.27+1281L5683.93+1362.38L5699.33+1251.17L5587.48+1241.44L5684.03+1184.15L5621.91+1090.63L5726.9+1130.4L5761.27+1023.52Z" fill="#ffffff" opacity="1"/>
<path opacity="1" d="M5516.39+1471.1L5543.55+1537.7L5615.28+1542.96L5560.34+1589.37L5577.51+1659.21L5516.39+1621.3L5455.27+1659.21L5472.43+1589.37L5417.49+1542.96L5489.22+1537.7L5516.39+1471.1Z" fill="#ffffff"/>

</svg>
