<?xml version="1.0" encoding="UTF-8" standalone="no"?>
<svg version="1.1" xml:space="preserve" xmlns="http://www.w3.org/2000/svg" width="100%" height="100%" xmlns:xlink="http://www.w3.org/1999/xlink" viewBox="0 0 6804 3402" style="fill-rule:nonzero;clip-rule:evenodd;stroke-linecap:round;stroke-linejoin:round;">
<path fill="#ee1c25" d="M1.73621+0L6818.72+0L6818.72+0L6818.72+3402L6818.72+3402L1.73621+3402L1.73621+3402L1.73621+0L1.73621+0Z" opacity="1"/>
<path opacity="1" fill="#ffff00" d="M2914.17+603.816L3286.06+1748.36L2312.45+1040.99L3515.89+1040.99L2542.29+1748.36L2914.17+603.816Z"/>
<path opacity="1" fill="#ffff00" d="M4051.18+409.738L4015.96+809.336L3809.57+465.355L4178.73+622.33L3787.81+712.321L4051.18+409.738Z"/>
<path opacity="1" d="M4541.81+878.763L4354.29+1233.38L4297.56+836.266L4576.88+1124.19L4181.67+1055.43L4541.81+878.763Z" fill="#ffff00"/>
<path d="M4588.55+1585.97L4272.68+1833.25L4382.88+1447.53L4520.44+1824.36L4187.66+1600.36L4588.55+1585.97Z" opacity="1" fill="#ffff00"/>
<path opacity="1" d="M4043.06+1882.75L4024.44+2283.47L3803.97+1948.34L4179.32+2089.87L3792.46+2195.99L4043.06+1882.75Z" fill="#ffff00"/>
</svg>
