<?xml version="1.0" encoding="UTF-8" standalone="no"?> <svg height="100%" version="1.1" xmlns="http://www.w3.org/2000/svg" viewBox="0 0 6804 3402" xml:space="preserve" xmlns:xlink="http://www.w3.org/1999/xlink" style="fill-rule:nonzero;clip-rule:evenodd;stroke-linecap:round;stroke-linejoin:round;" width="100%">
<path d="M6298.75+3395.84L6298.75+13.0838L1211.03+13.0838L1211.03+3395.84L6298.75+3395.84Z" fill="#ffffff" fill-rule="evenodd" opacity="1"/>
<path opacity="1" d="M6803.96+3410.84L6803.96-0.871896L-0.0439095-0.871896L-0.0439095+3410.84L6803.96+3410.84Z" fill="#012169" fill-rule="evenodd"/>
<path d="M4344.64+3410.36L4344.64+2220.01L6832.65+2220.01L6832.65+1188.98L4344.64+1188.98L4344.64-1.35301L3137.7-1.35301L3137.7+1188.98L-0.162287+1188.98L-0.0773255+2220.01L3137.7+2220.01L3137.7+3410.36L4344.64+3410.36Z" fill-rule="evenodd" fill="#ffffff" opacity="1"/>
<path d="M1830.3-0.831123L6930.16+3395.9L5689.86+3395.9L1210.7+405.361L1210.7-0.831123L1830.3-0.831123Z" opacity="1" fill-rule="evenodd" fill="#ffffff"/>
<path d="M5679.19-0.831123L594.401+3410.84L1819.62+3410.94L6894.72-0.831123L5679.19-0.831123Z" opacity="1" fill="#ffffff" fill-rule="evenodd"/>
<path fill="#cc2229" fill-rule="evenodd" opacity="1" d="M6803.99+1375.94L4061.94+1375.94L4061.94-0.831109L3450.69-0.831109L3450.69+1375.94L-0.132495+1375.94L-0.132495+2034.09L3450.69+2034.09L3450.69+3410.88L4061.94+3410.88L4061.94+2034.09L6803.99+2034.09L6803.99+1375.94Z"/>
<path fill="#cc2229" fill-rule="evenodd" d="M1206.7+13.0203L2974.17+1193.25L2577.49+1193.25L1204.38+276.342L1204.38+13.0203C1204.38+13.0203+1206.7+13.0203+1206.7+13.0203ZM1204.38+3389.9L1204.38+3395.84L1592.12+3395.84L3131.05+2368.21L3131.05+2215.53L2963+2215.53L1204.38+3389.9ZM6292.1+3395.84L6292.1+3149.24L4893.78+2215.53L4497.1+2215.53L6264.69+3395.84L6292.1+3395.84ZM5872.69+13.0203L4337.99+1037.84L4337.99+1193.25L4501.9+1193.25L6269.38+13.0202C6269.38+13.0202+5872.69+13.0202+5872.69+13.0203Z" opacity="1"/>
</svg>
