<?xml version="1.0" encoding="UTF-8" standalone="no"?>
<svg xml:space="preserve" width="100%" height="100%" xmlns:vectornator="http://vectornator.io" viewBox="0 0 6804 3402" version="1.1" xmlns:xlink="http://www.w3.org/1999/xlink" style="fill-rule:nonzero;clip-rule:evenodd;stroke-linecap:round;stroke-linejoin:round;" xmlns="http://www.w3.org/2000/svg">
<path fill="#ffffff" fill-rule="evenodd" d="M-3.56812-0.00899003L6812.73-0.00899003L6812.73+3401.49L-3.56812+3401.49L-3.56812-0.00899003Z" opacity="1"/>
<path fill="#000000" fill-rule="evenodd" d="M3445.23+2268.66L3099.5+2268.66L2828.18+1934.6C2803.86+1905.43+2786.85+1877.47+2777.12+1850.73C2767.39+1823.98+2762.53+1799.92+2762.53+1778.52C2762.53+1730.86+2777.12+1694.64+2806.29+1669.84C2835.47+1645.05+2874.86+1632.64+2924.45+1632.64L3068.87+1632.64C3100.96+1632.64+3124.79+1623.65+3140.35+1605.66C3155.91+1587.66+3163.69+1565.06+3163.69+1537.82L3163.69+1489.69C3163.69+1460.51+3156.15+1438.15+3141.07+1422.58C3126+1407.02+3100.96+1399.24+3065.95+1399.24L2686.68+1399.24L2686.68+2268.66L2394.93+2268.66L2394.93+1174.6L3036.78+1174.6C3177.79+1174.6+3281.85+1197.94+3348.95+1244.62C3416.05+1291.3+3449.6+1366.67+3449.6+1470.72L3449.6+1533.45C3449.6+1579.15+3440.37+1619.76+3421.89+1655.26C3403.41+1690.75+3378.85+1720.65+3348.22+1744.97C3317.58+1769.28+3281.6+1788+3240.27+1801.13C3198.94+1814.26+3155.42+1820.82+3109.71+1820.82L3083.46+1820.82L3445.23+2268.66Z" opacity="1"/>
<path d="M4466.35+2268.66L4380.28+2039.63L3868.26+2039.63L3780.74+2268.66L3486.07+2268.66L3849.3+1386.12C3877.5+1317.07+3912.27+1261.64+3953.6+1219.82C3994.93+1178+4052.07+1157.09+4125+1157.09C4200.86+1157.09+4260.42+1177.76+4303.7+1219.09C4346.98+1260.42+4382.23+1315.12+4409.46+1383.2L4769.77+2268.66L4466.35+2268.66ZM4100.2+1438.63L3955.79+1813.53L4294.22+1813.53L4152.72+1438.63C4149.8+1431.82+4146.64+1425.74+4143.24+1420.4C4139.83+1415.05+4134.24+1412.37+4126.46+1412.37C4119.65+1412.37+4114.31+1414.81+4110.42+1419.67C4106.52+1424.53+4103.12+1430.85+4100.2+1438.63Z" fill="#000000" opacity="1" fill-rule="evenodd"/>
<path fill-rule="evenodd" d="M4871.88+2268.66L4871.88+1174.6L5734+1174.6L5734+1415.29L5163.63+1415.29L5163.63+1616.6L5734+1616.6L5734+1857.29L5163.63+1857.29L5163.63+2268.66L4871.88+2268.66Z" fill="#000000" opacity="1"/>
</svg>
