<svg xmlns="http://www.w3.org/2000/svg" viewBox="0 0 46 43" clip-rule="evenodd" stroke-linecap="round" stroke-linejoin="round"><path fill="#fff" d="M23.022 5.476c-10.31 0-18.691 8.38-18.691 18.691 0 10.31 8.38 18.648 18.691 18.648 10.31 0 18.647-8.337 18.647-18.648 0-10.31-8.336-18.691-18.647-18.691zm0 4.684c7.718 0 13.963 6.29 13.963 14.007 0 7.718-6.245 13.964-13.963 13.964-7.717 0-13.963-6.246-13.963-13.964 0-7.717 6.246-14.007 13.963-14.007z"/><path fill="#fff" d="M19.599 24.145a3.401 3.401 0 014.105-3.328c.554.117 4.578-4.75 6.739-5.193.372-.076.597.037.832.27.197.198.357.394.325.687-.225 2.077-5.453 6.164-5.314 6.684A3.405 3.405 0 0123 27.546a3.401 3.401 0 01-3.401-3.4zM38.538 5.998l2.587 2.542a1.821 1.821 0 01-2.553 2.598l-2.586-2.542a1.821 1.821 0 112.553-2.598zM20.788.186c1.97 0 2.522.024 4.45.024 1.926 0 2.228.99 2.221 2.196-.007 1.206-.167 2.171-2.247 2.171s-2.374-.024-4.45-.024c-2.075 0-2.228-.99-2.221-2.196.007-1.206.276-2.171 2.247-2.171z"/></svg>