<?xml version="1.0" encoding="UTF-8" standalone="no"?> <!-- Created with Vectornator for iOS (http://vectornator.io/) --><!DOCTYPE svg PUBLIC "-//W3C//DTD SVG 1.1//EN" "http://www.w3.org/Graphics/SVG/1.1/DTD/svg11.dtd">
<svg height="100%" style="fill-rule:nonzero;clip-rule:evenodd;stroke-linecap:round;stroke-linejoin:round;" xmlns:xlink="http://www.w3.org/1999/xlink" xmlns="http://www.w3.org/2000/svg" xml:space="preserve" width="100%" xmlns:vectornator="http://vectornator.io" version="1.1" viewBox="0 0 680.4 453.6">
<defs/>
<g id="Layer 1" vectornator:layerName="Layer 1">
<path d="M0.0624189+8.17124e-14L681.134+8.17124e-14L681.134+453.761L0.0624189+453.761L0.0624189+8.17124e-14Z" opacity="1" fill="#ffffff"/>
<g opacity="1">
<path d="M227.044+335.617L164.239+335.617L114.949+274.932C110.532+269.632+107.441+264.553+105.674+259.695C103.907+254.836+103.024+250.464+103.024+246.577C103.024+237.92+105.674+231.34+110.974+226.835C116.274+222.33+123.429+220.077+132.439+220.077L158.674+220.077C164.504+220.077+168.832+218.443+171.659+215.175C174.486+211.906+175.899+207.799+175.899+202.852L175.899+194.107C175.899+188.807+174.53+184.744+171.791+181.917C169.053+179.09+164.504+177.677+158.144+177.677L89.2438+177.677L89.2438+335.617L36.2438+335.617L36.2438+136.867L152.844+136.867C178.461+136.867+197.364+141.107+209.554+149.587C221.744+158.067+227.839+171.759+227.839+190.662L227.839+202.057C227.839+210.36+226.161+217.736+222.804+224.185C219.447+230.633+214.986+236.065+209.421+240.482C203.856+244.899+197.32+248.3+189.811+250.685C182.303+253.07+174.397+254.262+166.094+254.262L161.324+254.262L227.044+335.617Z" opacity="1" fill="#000000"/>
<path d="M412.544+335.617L396.909+294.012L303.894+294.012L287.994+335.617L234.464+335.617L300.449+175.292C305.572+162.749+311.888+152.679+319.396+145.082C326.905+137.485+337.284+133.687+350.534+133.687C364.314+133.687+375.135+137.441+382.996+144.95C390.858+152.458+397.262+162.395+402.209+174.762L467.664+335.617L412.544+335.617ZM346.029+184.832L319.794+252.937L381.274+252.937L355.569+184.832C355.039+183.595+354.465+182.491+353.846+181.52C353.228+180.548+352.212+180.062+350.799+180.062C349.562+180.062+348.591+180.504+347.884+181.387C347.177+182.27+346.559+183.419+346.029+184.832Z" opacity="1" fill="#000000"/>
<path d="M486.214+335.617L486.214+136.867L642.829+136.867L642.829+180.592L539.214+180.592L539.214+217.162L642.829+217.162L642.829+260.887L539.214+260.887L539.214+335.617L486.214+335.617Z" opacity="1" fill="#000000"/>
</g>
</g>
</svg>
