<svg xmlns="http://www.w3.org/2000/svg" xmlns:vectornator="http://vectornator.io" viewBox="0 0 1890.11 1890.09" clip-rule="evenodd" stroke-linecap="round" stroke-linejoin="round"><defs><linearGradient y1="2054.47" id="prefix__a" x1="-1176.51" y2="800.17" x2="-1789.99" gradientUnits="userSpaceOnUse" gradientTransform="matrix(1 0 0 -1 2111.45 2377.39)"><stop stop-color="#fff" offset="0"/><stop stop-color="#7a7a7a" offset="1"/></linearGradient><linearGradient y1="2052.11" id="prefix__b" x1="-1147.89" y2="815.37" x2="-547.488" gradientUnits="userSpaceOnUse" gradientTransform="matrix(1 0 0 -1 2111.45 2377.39)"><stop stop-color="#fff" offset="0"/><stop stop-color="#7a7a7a" offset="1"/></linearGradient><linearGradient y1="2020.05" id="prefix__c" x1="470.073" y2="955.368" x2="1018.8" gradientUnits="userSpaceOnUse" gradientTransform="matrix(1.0207 0 0 -1.0134 -61.53 2552.73)"><stop stop-color="#d50d16" offset="0"/><stop stop-color="#880d16" offset=".5"/><stop stop-color="#520d16" offset="1"/></linearGradient><linearGradient y1="45.571" id="prefix__d" x1="946" y2="1844.49" x2="945.056" gradientUnits="userSpaceOnUse"><stop stop-color="#ececec" offset="0"/><stop stop-color="#fff" offset=".216"/><stop stop-color="#9c9c9c" offset=".996"/></linearGradient><linearGradient y1="1696.49" id="prefix__e" x1="-933.389" y2="958.794" x2="-685.293" gradientUnits="userSpaceOnUse" gradientTransform="matrix(1 0 0 -1 2111.45 2377.39)"><stop stop-color="#157031" offset="0"/><stop stop-color="#0f5324" offset="1"/></linearGradient></defs><g vectornator:layerName="Untitled"><path d="M1844.52 945.032c0 496.758-402.7 899.458-899.464 899.458-496.759 0-899.461-402.7-899.462-899.458 0-496.758 402.703-899.461 899.462-899.461 496.754 0 899.464 402.703 899.464 899.461z" fill="#1e1d51"/><path d="M941.556 313.719c-76.82 1.445-150.518 15.117-219.031 39.031v493.782h219.031V313.719zM543.15 460.876c-114.221 96.945-194.768 230.647-222.156 382.125H543.15V460.876zm171.625 560.844v516.22c70.314 23.87 145.941 37.52 224.781 38.97v-555.19H714.775zm-394.5 1.41c22.77 161.31 105.024 304 224.281 406v-406H320.275z" fill="url(#prefix__a)"/><path d="M957.493 320.079c339.387 6.637 612.527 283.992 612.527 624.969 0 340.982-273.14 618.182-612.527 624.812V320.079z" fill="url(#prefix__b)"/><path d="M706.206 360.592V860.53h231.926v147.58H706.206v522.68a638.442 638.442 0 01-148.609-86.37v-436.31H315.975a635.853 635.853 0 01-3.062-62.356 634.11 634.11 0 015.741-85.223h238.942V446.988a638.836 638.836 0 01148.61-86.396z" fill="url(#prefix__c)"/><path d="M1115.71 530.549h215v30h-215v-30z" fill="#9d0d16"/><path d="M946 16.969c-513.072 0-929 415.927-929 929 0 513.071 415.927 929.001 929 929.001 513.07 0 929-415.93 929-929.001 0-282.192-125.81-534.995-324.41-705.375C1388.1 101.194 1176.88 16.969 946 16.969zm-.938 28.593c496.508 0 899.468 402.967 899.468 899.469 0 496.499-402.96 899.469-899.468 899.469-496.502 0-899.468-402.97-899.468-899.469 0-496.502 402.967-899.468 899.468-899.468zm-54.156 31.5V263.5h56.813v-62.812l45.875 62.812 74.746 10.938-64.78-83.719c14.22-2.954 40.88-18.048 40.88-49.844 0-47.602-42.87-62.813-69.784-62.813l-83.75-1zm71.782 40.876c15.452 0 26.407 10.473 26.906 21.937.499 11.465-7.433 23.906-24.906 23.906h-17.969l-.969-44.843 16.938-1zm267.812 10.593c-1.01-.006-2.03.011-3.03.031-49.01.999-90.46 30.716-100.38 79.25-9.88 48.34 34.03 105.539 87.69 117.719 58.23 13.216 112.56-14.43 124.81-77.187 10.49-53.738-29-106.504-87.65-117.688-7.22-1.375-14.38-2.082-21.44-2.125zM543 177.75l-50.844 26.906L516.062 415l53.844-39.875-6.968-31.875 58.812-34.906 26.906 19.937 61.813-24.906L543 177.75zm688.81 2.312c3.46.011 6.97.326 10.5 1 28.3 5.397 46.26 29.863 41.31 55.813-4.94 25.951-30.95 43.615-59.24 38.219-28.3-5.396-42.27-32.799-37.32-58.75 4.33-22.706 20.56-36.348 44.75-36.282zM545 244.531l42.844 32.907-30.906 17.937L545 244.531zm948.03 26.938l-159.5 110.656L1380.38 419l76.78-59.812-38.91 96.687 19.94 18.937 97.72-39.874-58.82 79.75 35.88 50.843 112.65-161.5-35.9-42.843-91.72 36.874 36.91-92.718-41.88-33.875zm-547.968 23.562c-358.663 0-650.031 291.368-650.031 650.031 0 358.668 291.369 649.998 650.031 649.998 358.668 0 650.028-291.33 650.028-649.998 0-358.663-291.36-650.031-650.028-650.031zm-595.468 21.281l-77.75 89.719 135.562 120.625 37.906-43.844-51.843-45.874 37.875-40.876-32.906-29.906-37.876 41.875-18.937-17.937 40.875-44.875-32.906-28.907zm582.906 3.782v515.875H730.281V357.875c63.256-23.156 131.292-36.381 202.219-37.781zm25 0c238.03 4.654 443.45 142.473 544.94 342a207.797 207.797 0 00-4-5.156c-24.87-30.887-56.19-51.373-82.88-68.532a12.482 12.482 0 00-7.12-1.968 12.488 12.488 0 00-9.78 5.187c-6.21 8.6-17.94 15.75-33.22 15.75h-115.16c-5.78 0-11.26 1.574-16 5-4.73 3.427-8.94 9.558-8.94 16.813v13.124c-.05.077-.16.279-.65.657-1.13.865-3.34 1.781-5.81 1.781h-99.22l.09-8.281v-.157c0-15.104-7.7-28.828-19.59-37.5l-.19-.156-.16-.094-43.37-29.406-.06-.062-.07-.032c-6.9-4.559-14.62-6.719-21.9-6.562-2.4.053-4.77.368-7.1.938-9.15 2.242-16.59 8.022-21.4 15.406-9.624 14.77-7.415 38.113 11.09 51.344l20.34 15.562.16.125.16.094c4.28 3.063 6.65 6.763 6.65 7.781l-.5 32.969v.187c0 .402-.06.502-.09.656-.57-.002-1.66-.128-3.94-.874-4.81-1.578-8.46-3.61-14.12-5.75-5.67-2.141-12.95-3.844-22.32-3.844-16.488 0-30.039 7.444-38.528 17.344a53.767 53.767 0 00-7.312 11.031V320.094zm-252.219 47.562v493.313H932.5v145.621H705.281v515.75a624.573 624.573 0 01-145.593-85.22v-430.53H322.969a632.02 632.02 0 01-3-61.528 630.03 630.03 0 015.625-84.093h234.094V452.906a624.834 624.834 0 01145.593-85.25zM1129 463.75c-10.21 0-18.5 8.288-18.5 18.5 0 10.213 8.29 18.5 18.5 18.5s18.5-8.287 18.5-18.5c0-10.212-8.29-18.5-18.5-18.5zm47.12 0c-10.21 0-18.49 8.288-18.5 18.5 0 10.213 8.29 18.5 18.5 18.5 10.22 0 18.51-8.287 18.5-18.5 0-10.212-8.28-18.5-18.5-18.5zm47.1 0c-10.21 0-18.5 8.288-18.5 18.5 0 10.213 8.29 18.5 18.5 18.5s18.5-8.287 18.5-18.5c0-10.212-8.29-18.5-18.5-18.5zm47.09 0c-10.21 0-18.5 8.288-18.5 18.5 0 10.213 8.29 18.5 18.5 18.5 10.22 0 18.5-8.287 18.5-18.5 0-10.212-8.28-18.5-18.5-18.5zm47.13 0c-10.21 0-18.5 8.288-18.5 18.5 0 10.213 8.29 18.5 18.5 18.5s18.5-8.287 18.5-18.5c0-10.212-8.29-18.5-18.5-18.5zm-782.752 9.844v362.375H329.469c25.303-143.653 99.696-270.437 205.219-362.375zm581.032 38.5v30h215v-30h-215zm0 40.375v30h215v-30h-215zm598.62.125l-169.46 68.781 47.84 111.656 44.84-18.937-24.9-56.844 20.93-9.969 23.94 54.844 40.85-16.969-22.91-52.812 19.94-8.969 23.9 56.813 41.88-16.938-46.85-110.656zM166.156 573.531l-23.906 52.813 165.469 76.781 52.843-107.687-40.874-20.938-31.907 55.844-121.625-56.813zm868.964 13.907c1.98-.115 4.28.4 7.41 2.468l43.25 29.344c5.39 3.931 8.97 11.2 8.97 17.062l-.5 40.532V677c0 15.963 8.07 29.565 18.5 39.062 6.15 5.6 13.19 10.019 20.72 12.719-7.53 2.701-14.57 7.119-20.72 12.719-10.43 9.498-18.5 23.102-18.5 39.062v.157l.5 40.687c0 5.864-3.95 13.228-9.34 17.156l-43 29.157c-4.18 2.758-6.74 2.719-9.16 2.125-2.42-.593-4.8-2.313-6.41-4.782-3.21-4.938-4.61-10.69 4.69-17.343l.16-.125.15-.125 20.69-15.781c7-5.007 16.78-13.419 16.78-27.876v-.187l-.5-33.156c0-7.073-2.54-15.06-9.69-20.469-7.14-5.408-17.35-6.077-27.12-2.875-6.98 2.287-11.53 4.745-15.19 6.125-3.65 1.381-6.74 2.219-13.47 2.219-9.416 0-15.202-3.542-19.559-8.625-4.357-5.082-6.594-12.163-6.593-16.813v-2.5c0-4.649 2.235-11.729 6.593-16.812 4.357-5.082 10.144-8.625 19.559-8.625 6.73 0 9.82.838 13.47 2.218 3.66 1.382 8.21 3.839 15.19 6.126 9.77 3.203 19.98 2.534 27.12-2.876 7.15-5.407 9.69-13.582 9.69-20.656l.5-32.968v-.188c0-14.456-10.09-23.087-17.09-28.094l-20.38-15.562-.15-.125-.16-.125c-9.3-6.651-7.9-12.405-4.69-17.344 1.61-2.469 3.99-4.188 6.41-4.781.62-.15 1.24-.245 1.87-.281zm375.69 27.781c23.93 15.639 48.75 33.294 68.16 57.406 21.79 27.066 37.22 61.887 37.22 113.219 0 96.442-90.06 173.906-176.69 173.906h-209.34c-5.95 0-12.04 2.726-15.72 6.938-3.69 4.213-5.17 9.297-5.13 14.156.04 4.861 1.61 9.828 5.25 13.968 3.65 4.143 9.64 6.908 15.6 6.908h204.37c73.48 0 112.66 47.29 112.66 103.12 0 54.41-40.69 105.57-112.16 105.57h-210.59c-5.11 0-10.53 2.31-13.88 6.03-3.34 3.72-4.74 8.24-4.72 12.56.03 4.32 1.44 8.77 4.75 12.44 3.32 3.66 8.73 6 13.85 6h156.75c33.74 0 62.44 32.88 62.43 64.28 0 15.92-4.52 30.62-14.53 41.31-10 10.69-25.99 18.44-52.87 18.44h-94c-3.75 0-7.69.82-11.31 3.44-3.63 2.61-6.59 7.62-6.44 12.81.15 5.19 3.14 9.65 6.62 12.12 3.48 2.48 7.37 3.38 11.13 3.38h62.34c8.8 0 15.3 3.85 20.44 10.09 5.14 6.25 8.12 15.01 8.12 22 0 8.72-3.21 16.77-8.9 21.81-3.69 3.28-8.79 5.55-15.78 6.1.34-3.6.4-7.68-2-12.56-2.85-5.8-10.81-10.41-17.56-10.41h-37.41c-13.03 0-27.41-4.91-38.03-14.19-10.63-9.27-17.91-22.42-17.91-41.34 0-17.4 7.28-29.81 17.59-38.72 10.33-8.91 24.03-13.56 34.13-13.56h91.94c4.15 0 8.19-.72 12.06-3.06 3.87-2.35 7.85-7.29 7.84-13.44 0-6.15-4.01-11.1-7.87-13.44-3.86-2.34-7.88-3.03-12.03-3.03h-144.03c-55.42 0-86.28-39.22-86.28-81.5 0-37.72 32.3-82.44 81.28-82.44h214.34c5.83 0 11.84-2.72 15.41-6.87 3.57-4.16 4.97-9.1 4.93-13.82-.03-4.71-1.49-9.56-5.03-13.65-3.53-4.09-9.46-6.85-15.31-6.85h-218.31c-61.03 0-109.32-45.25-109.31-113.59 0-57.084 46.7-115.625 115.78-115.625h197.87c10.79 0 20.47-4.854 26.41-11.937 5.93-7.084 8.58-15.813 8.62-24.407.05-8.594-2.52-17.398-8.47-24.531-5.95-7.132-15.7-11.969-26.56-11.969h-211.12l-.16-11.843c0-7.311 3.97-14.664 10.34-20.469 6.38-5.804 14.95-9.125 20.19-9.125h118.31c4.58 0 9.11-1.058 13.57-4.125 4.45-3.066 8.59-9.68 8.59-17.938 0-8.506-2.53-12.806-8.59-17.937-4.46-3.066-8.99-4.125-13.57-4.125h-118.31c-5.24 0-13.81-3.32-20.19-9.125-6.37-5.804-10.34-13.283-10.34-20.594l.09-7.25h144.41c7.99 0 15.29-2.562 21.03-6.969 5.75-4.405 10.44-11.163 10.44-19.687v-10.719h70.22c18.21.005 34.04-6.788 45.37-17.156zm127.41 132.437c20.64 62.053 31.81 128.434 31.81 197.406 0 218.338-111.96 410.508-281.62 522.248 6.62-9.42 9.72-20.78 9.71-32 0-13.36-4.79-26.91-13.81-37.87-.35-.44-.78-.83-1.15-1.25 28.43-1.38 50.08-11 64.18-26.07 15.25-16.28 21.29-37.68 21.28-58.4 0-30.61-17.13-60.07-43.09-76.31h9.5c83.75 0 137.16-63.27 137.16-130.57 0-57.05-37.11-108.168-98.85-123.402 88.64-16.65 167.85-96.405 167.85-195.594 0-13.579-1.06-26.279-2.97-38.188zm-580.72 4.438a53.753 53.753 0 007.312 11.031c8.489 9.9 22.04 17.344 38.528 17.344 9.37 0 16.65-1.703 22.32-3.844 5.66-2.14 9.31-4.172 14.12-5.75 2.27-.745 3.37-.872 3.94-.875.03.157.09.268.09.656v.188l.5 33.156c0 1.02-2.37 4.531-6.65 7.594l-.16.094-.16.124-20.65 15.813c-18.508 13.23-20.404 36.325-10.78 51.094 4.09 6.283 10.1 11.387 17.43 14.156-20.02 25.069-31.465 56.392-31.465 87.875 0 69.44 45.025 122.08 104.745 135.28-44.72 15.29-72.75 59.97-72.74 101.94 0 55.03 43.58 106.5 111.28 106.5h4.9c-1.09.85-2.21 1.67-3.28 2.59-15 12.95-26.25 32.93-26.25 57.66 0 25.71 10.87 46.6 26.44 60.19 15.57 13.59 35.4 20.34 54.5 20.34h31.31c-.64 2.28-1.37 4.41-1.37 4.41-1.53 3.47-1.41 7.44.34 10.81 1.75 3.36 4.94 5.76 8.66 6.5 8.94 1.77 17.4 1.89 25.06.59-88.09 50.51-189.66 80.2-297.97 82.32V752.094zm-673.688 21.781L89.406 837.688 82.437 895.5l184.438 99.688-1-66.782L238 915.5l4.188-68.656 32.656-8.156 8.968-64.813zm1429.528 6c-65.07 0-97.68 53.323-97.68 106.656 0 53.334 38.58 106.688 97.68 106.688 59.08.001 98.69-48.369 98.69-106.688 0-57.321-34.61-106.656-98.69-106.656zm-593.65 37.406h210.84c4.27 0 5.84 1.16 7.38 3 1.53 1.841 2.67 5.007 2.65 8.375-.02 3.369-1.2 6.58-2.78 8.469-1.58 1.889-3.16 3-7.25 3h-197.87c-6.03 0-11.91.386-17.66 1.094 3.03-6.103 4.75-12.875 4.75-19.969v-.156l-.06-3.813zm594.9 20.407c28.69 0 45.41 26.782 45.41 48.843 0 21.562-17.34 48.844-45.41 48.844-28.07 0-44.4-23.672-44.4-48.844 0-25.171 15.72-48.843 44.4-48.843zM198.438 857.781l-2.376 38.25-52.812-24.469 55.188-13.781zm127.468 173.809h208.782v384.85c-111.013-96.69-187.587-231.93-208.782-384.85zm404.375 0H932.5v538.29c-70.928-1.4-138.961-14.64-202.219-37.79v-500.5z" fill="url(#prefix__d)"/><path d="M1035.12 587.438c1.97-.114 4.27.401 7.4 2.469l43.25 29.344c5.4 3.931 8.97 11.199 8.97 17.062l-.5 40.531V677c0 15.963 8.08 29.565 18.5 39.062 6.15 5.6 13.19 10.019 20.72 12.719-7.53 2.701-14.57 7.119-20.72 12.719-10.42 9.498-18.5 23.101-18.5 39.062v.156l.5 40.688c0 5.864-3.95 13.227-9.34 17.156l-43 29.156c-4.18 2.758-6.73 2.719-9.16 2.125-2.42-.593-4.79-2.312-6.4-4.781-3.22-4.938-4.62-10.691 4.69-17.344l.15-.125.16-.125 20.69-15.781c6.99-5.006 16.78-13.418 16.78-27.875v-.188l-.5-33.156c0-7.073-2.54-15.06-9.69-20.469-7.15-5.408-17.36-6.077-27.13-2.875-6.97 2.287-11.53 4.745-15.18 6.125-3.66 1.381-6.75 2.219-13.47 2.219-9.424 0-15.209-3.542-19.566-8.625-4.357-5.082-6.594-12.162-6.594-16.812v-2.5c0-4.649 2.236-11.729 6.594-16.812 4.357-5.082 10.143-8.625 19.566-8.625 6.72 0 9.81.839 13.47 2.219 3.65 1.381 8.21 3.839 15.18 6.125 9.77 3.203 19.98 2.534 27.13-2.875 7.14-5.408 9.69-13.582 9.69-20.656l.5-32.969v-.188c0-14.456-10.1-23.087-17.1-28.094l-20.37-15.562-.16-.125-.15-.125c-9.31-6.651-7.91-12.405-4.69-17.344 1.61-2.469 3.98-4.188 6.4-4.781.62-.15 1.25-.244 1.88-.281z" fill="#9d0d16"/><path d="M1410.81 615.219c23.92 15.639 48.74 33.294 68.15 57.406 21.79 27.066 37.22 61.887 37.22 113.219 0 96.442-90.06 173.906-176.69 173.906h-209.34c-5.95 0-12.03 2.726-15.72 6.938-3.68 4.213-5.16 9.297-5.12 14.156.04 4.861 1.6 9.828 5.25 13.969 3.64 4.142 9.63 6.907 15.59 6.907h204.37c73.48 0 112.66 47.29 112.66 103.12 0 54.41-40.69 105.57-112.16 105.57h-210.59c-5.1 0-10.53 2.31-13.87 6.03-3.35 3.72-4.75 8.24-4.72 12.56.02 4.32 1.43 8.77 4.75 12.44 3.31 3.66 8.72 6 13.84 6h156.75c33.74 0 62.44 32.88 62.44 64.28 0 15.92-4.53 30.62-14.53 41.31-10.01 10.69-25.99 18.44-52.88 18.44h-94c-3.74 0-7.68.82-11.31 3.44-3.62 2.61-6.59 7.62-6.44 12.81.16 5.19 3.15 9.65 6.63 12.12 3.48 2.48 7.36 3.38 11.12 3.38h62.35c8.79 0 15.3 3.85 20.43 10.09 5.14 6.25 8.13 15.01 8.13 22 0 8.72-3.22 16.77-8.91 21.81-3.68 3.28-8.78 5.55-15.78 6.1.35-3.6.41-7.68-2-12.56-2.85-5.8-10.8-10.41-17.56-10.41h-37.41c-13.02 0-27.4-4.91-38.03-14.19-10.62-9.27-17.9-22.42-17.9-41.34 0-17.4 7.27-29.81 17.59-38.72s24.03-13.56 34.13-13.56h91.93c4.16 0 8.2-.72 12.07-3.06 3.86-2.35 7.85-7.29 7.84-13.44-.01-6.15-4.01-11.1-7.87-13.44-3.87-2.34-7.89-3.03-12.04-3.03h-144.03c-55.41 0-86.28-39.22-86.28-81.5 0-37.72 32.31-82.44 81.28-82.44h214.35c5.83 0 11.84-2.72 15.4-6.87 3.57-4.16 4.98-9.1 4.94-13.82-.03-4.71-1.5-9.56-5.03-13.65-3.53-4.09-9.46-6.85-15.31-6.85h-218.31c-61.03 0-109.32-45.25-109.32-113.591 0-57.084 46.71-115.625 115.79-115.625h197.87c10.79 0 20.47-4.854 26.41-11.938 5.93-7.083 8.58-15.812 8.62-24.406.05-8.594-2.52-17.398-8.47-24.531-5.95-7.132-15.7-11.969-26.56-11.969h-211.12l-.16-11.844c0-7.31 3.97-14.664 10.34-20.469 6.38-5.804 14.95-9.125 20.19-9.125h118.31c4.58 0 9.11-1.058 13.57-4.125 4.45-3.066 8.59-9.68 8.59-17.938 0-8.506-2.53-12.807-8.59-17.938-4.46-3.066-8.99-4.125-13.57-4.125h-118.31c-5.24 0-13.81-3.32-20.19-9.125-6.37-5.804-10.34-13.283-10.34-20.594l.09-7.25h144.41c7.99 0 15.29-2.562 21.03-6.969 5.74-4.405 10.44-11.164 10.44-19.688v-10.719h70.22c18.21.005 34.04-6.784 45.37-17.152z" fill="url(#prefix__e)"/></g></svg>