<svg xmlns="http://www.w3.org/2000/svg" xmlns:vectornator="http://vectornator.io" viewBox="0 0 1890.11 1890.09" clip-rule="evenodd" stroke-linecap="round" stroke-linejoin="round"><defs><linearGradient y1="2054.47" id="prefix__a" x1="-1176.51" y2="800.17" x2="-1789.99" gradientUnits="userSpaceOnUse" gradientTransform="matrix(1 0 0 -1 2111.45 2377.39)"><stop stop-color="#fff" offset="0"/><stop stop-color="#7a7a7a" offset="1"/></linearGradient><linearGradient y1="2052.11" id="prefix__b" x1="-1147.89" y2="815.37" x2="-547.488" gradientUnits="userSpaceOnUse" gradientTransform="matrix(1 0 0 -1 2111.45 2377.39)"><stop stop-color="#fff" offset="0"/><stop stop-color="#7a7a7a" offset="1"/></linearGradient><linearGradient y1="2020.05" id="prefix__c" x1="470.073" y2="955.368" x2="1018.8" gradientUnits="userSpaceOnUse" gradientTransform="matrix(1.0207 0 0 -1.0134 -61.53 2552.73)"><stop stop-color="#d50d16" offset="0"/><stop stop-color="#880d16" offset=".5"/><stop stop-color="#520d16" offset="1"/></linearGradient><linearGradient y1="2523.63" id="prefix__d" x1="978.84" y2="673.257" x2="978.786" gradientUnits="userSpaceOnUse" gradientTransform="matrix(1 0 0 -1 -33.855 2540.88)"><stop stop-color="#ececec" offset="0"/><stop stop-color="#fff" offset=".216"/><stop stop-color="#9c9c9c" offset=".996"/></linearGradient><linearGradient y1="1696.49" id="prefix__e" x1="-933.389" y2="958.794" x2="-685.293" gradientUnits="userSpaceOnUse" gradientTransform="matrix(1 0 0 -1 2111.45 2377.39)"><stop stop-color="#157031" offset="0"/><stop stop-color="#0f5324" offset="1"/></linearGradient></defs><g vectornator:layerName="Untitled"><path d="M1844.52 945.032c0 496.758-402.7 899.458-899.464 899.458-496.759 0-899.461-402.7-899.462-899.458 0-496.758 402.703-899.461 899.462-899.461 496.754 0 899.464 402.703 899.464 899.461z" fill="#1e1d51"/><path d="M941.556 313.719c-76.82 1.445-150.518 15.117-219.031 39.031v493.782h219.031V313.719zM543.15 460.876c-114.221 96.945-194.768 230.647-222.156 382.125H543.15V460.876zm171.625 560.844v516.22c70.314 23.87 145.941 37.52 224.781 38.97v-555.19H714.775zm-394.5 1.41c22.77 161.31 105.024 304 224.281 406v-406H320.275z" fill="url(#prefix__a)"/><path d="M957.493 320.079c339.387 6.637 612.527 283.992 612.527 624.969 0 340.982-273.14 618.182-612.527 624.812V320.079z" fill="url(#prefix__b)"/><path d="M706.206 360.592V860.53h231.926v147.58H706.206v522.68a638.442 638.442 0 01-148.609-86.37v-436.31H315.975a635.853 635.853 0 01-3.062-62.356 634.11 634.11 0 015.741-85.223h238.942V446.988a638.836 638.836 0 01148.61-86.396z" fill="url(#prefix__c)"/><path d="M1115.71 530.549h215v30h-215v-30z" fill="#9d0d16"/><path d="M945.056 45.563c496.504 0 899.464 402.967 899.464 899.469 0 496.498-402.96 899.468-899.464 899.468-496.502 0-899.469-402.97-899.469-899.468 0-496.502 402.967-899.469 899.469-899.469zm-54.156 31.5v186.438h56.812v-62.812l45.875 62.812 74.753 10.938-64.78-83.719c14.21-2.954 40.87-18.048 40.87-49.844 0-47.602-42.86-62.812-69.78-62.812l-83.75-1.001zm71.781 40.875c15.452 0 26.408 10.474 26.906 21.938.499 11.465-7.432 23.906-24.906 23.906h-17.969l-.969-44.844 16.938-1zm267.809 10.594c-1-.006-2.02.011-3.03.031-49.01.998-90.45 30.716-100.37 79.25-9.88 48.339 34.02 105.539 87.69 117.719 58.22 13.216 112.56-14.431 124.81-77.188 10.49-53.738-29.01-106.504-87.66-117.688-7.21-1.375-14.38-2.081-21.44-2.124zm-687.497 49.219l-50.844 26.906 23.907 210.344 53.844-39.875-6.969-31.875 58.812-34.906 26.906 19.938 61.812-24.906-167.468-125.626zm688.817 2.312c3.45.01 6.96.326 10.5 1 28.29 5.396 46.26 29.862 41.31 55.812-4.95 25.951-30.95 43.615-59.25 38.219-28.3-5.396-42.26-32.799-37.31-58.75 4.33-22.706 20.56-36.347 44.75-36.281zm-686.817 64.469l42.844 32.906-30.906 17.938-11.938-50.844zm948.027 26.937l-159.5 110.656L1380.37 419l76.78-59.812-38.91 96.688 19.94 18.938 97.72-39.875-58.81 79.75 35.87 50.844 112.66-161.501-35.91-42.844-91.72 36.875 36.91-92.719s-41.87-33.875-41.88-33.875zm-547.964 23.563c-358.663 0-650.031 291.368-650.031 650.031 0 358.667 291.368 649.997 650.031 649.997 358.664 0 650.034-291.33 650.034-649.997 0-358.663-291.37-650.031-650.034-650.031zm-595.469 21.281l-77.75 89.719 135.562 120.625 37.906-43.844-51.844-45.875 37.875-40.875-32.906-29.906-37.874 41.875-18.938-17.938 40.875-44.875-32.906-28.906zm582.906 3.781v515.875H730.275V357.876c63.256-23.156 131.291-36.382 202.218-37.782zm25 0c238.027 4.654 443.457 142.473 544.937 342-1.3-1.741-2.64-3.46-4-5.156-24.86-30.887-56.19-51.372-82.87-68.531a12.543 12.543 0 00-7.13-1.969c-3.89.113-7.5 2.03-9.78 5.188-6.21 8.6-17.93 15.75-33.22 15.75h-115.16c-5.77 0-11.26 1.574-16 5-4.73 3.427-8.93 9.557-8.93 16.812v13.125c-.06.076-.17.278-.66.656-1.13.865-3.34 1.781-5.81 1.781h-99.22l.09-8.281v-.156c0-15.105-7.7-28.828-19.59-37.5l-.19-.156-.15-.094-43.38-29.406-.06-.062-.06-.031c-6.91-4.559-14.63-6.719-21.91-6.562-2.39.053-4.77.368-7.09.938-9.15 2.242-16.6 8.022-21.41 15.406-9.619 14.77-7.41 38.114 11.09 51.344l20.35 15.562.15.125.16.094c4.28 3.063 6.66 6.763 6.66 7.781l-.5 32.969v.188c0 .402-.06.501-.1.656-.57-.002-1.66-.129-3.94-.875-4.81-1.577-8.46-3.609-14.12-5.75-5.66-2.14-12.94-3.844-22.31-3.844-16.494 0-30.045 7.444-38.533 17.344a53.794 53.794 0 00-7.312 11.031V320.094h-.002zm-252.218 47.563v493.312h227.219v145.621H705.275v515.75a624.893 624.893 0 01-145.594-85.21v-430.54H322.962a632.3 632.3 0 01-3-61.527 630.222 630.222 0 015.625-84.094h234.094V452.907a624.79 624.79 0 01145.594-85.25zm423.715 96.094c-10.21 0-18.5 8.288-18.5 18.5 0 10.213 8.29 18.5 18.5 18.5 10.22 0 18.5-8.287 18.5-18.5 0-10.212-8.28-18.5-18.5-18.5zm47.13 0c-10.21 0-18.5 8.288-18.5 18.5 0 10.213 8.29 18.5 18.5 18.5s18.5-8.287 18.5-18.5c0-10.212-8.29-18.5-18.5-18.5zm47.09 0c-10.21 0-18.5 8.288-18.5 18.5 0 10.213 8.29 18.5 18.5 18.5s18.5-8.287 18.5-18.5c0-10.212-8.29-18.5-18.5-18.5zm47.1 0c-10.22 0-18.5 8.288-18.5 18.5 0 10.213 8.28 18.5 18.5 18.5 10.21 0 18.5-8.287 18.5-18.5 0-10.212-8.29-18.5-18.5-18.5zm47.12 0c-10.21 0-18.5 8.288-18.5 18.5 0 10.213 8.29 18.5 18.5 18.5s18.5-8.287 18.5-18.5c0-10.212-8.29-18.5-18.5-18.5zm-782.749 9.843v362.375H329.462c25.303-143.653 99.697-270.437 205.219-362.375zm581.029 38.5v30h215v-30h-215zm0 40.375v30h215v-30h-215zm598.63.125l-169.47 68.781 47.84 111.657 44.85-18.938-24.91-56.844 20.94-9.969 23.94 54.844 40.84-16.969-22.91-52.812 19.94-8.969 23.91 56.812 41.87-16.938-46.84-110.655zM166.15 573.532l-23.906 52.812 165.469 76.781 52.843-107.687-40.875-20.938-31.906 55.844-121.625-56.812zm868.97 13.906c1.97-.114 4.27.401 7.4 2.469l43.25 29.344c5.4 3.931 8.97 11.199 8.97 17.062l-.5 40.531V677c0 15.963 8.08 29.565 18.5 39.062 6.15 5.6 13.19 10.019 20.72 12.719-7.53 2.701-14.57 7.119-20.72 12.719-10.42 9.498-18.5 23.101-18.5 39.062v.156l.5 40.688c0 5.864-3.95 13.227-9.34 17.156l-43 29.156c-4.18 2.758-6.73 2.719-9.16 2.125-2.42-.593-4.79-2.312-6.4-4.781-3.22-4.938-4.62-10.691 4.69-17.344l.15-.125.16-.125 20.69-15.781c6.99-5.006 16.78-13.418 16.78-27.875v-.188l-.5-33.156c0-7.073-2.54-15.06-9.69-20.469-7.15-5.408-17.36-6.077-27.13-2.875-6.97 2.287-11.53 4.745-15.18 6.125-3.66 1.381-6.75 2.219-13.47 2.219-9.424 0-15.209-3.542-19.566-8.625-4.357-5.082-6.594-12.162-6.594-16.812v-2.5c0-4.649 2.236-11.729 6.594-16.812 4.357-5.082 10.143-8.625 19.566-8.625 6.72 0 9.81.839 13.47 2.219 3.65 1.381 8.21 3.839 15.18 6.125 9.77 3.203 19.98 2.534 27.13-2.875 7.14-5.408 9.69-13.582 9.69-20.656l.5-32.969v-.188c0-14.456-10.1-23.087-17.1-28.094l-20.37-15.562-.16-.125-.15-.125c-9.31-6.651-7.91-12.405-4.69-17.344 1.61-2.469 3.98-4.188 6.4-4.781.62-.15 1.25-.244 1.88-.281zm375.69 27.781c23.92 15.639 48.74 33.294 68.15 57.406 21.79 27.066 37.22 61.887 37.22 113.219 0 96.442-90.06 173.906-176.69 173.906h-209.34c-5.95 0-12.03 2.726-15.72 6.938-3.68 4.213-5.16 9.297-5.12 14.156.04 4.861 1.6 9.828 5.25 13.969 3.64 4.142 9.63 6.907 15.59 6.907h204.37c73.48 0 112.66 47.29 112.66 103.12 0 54.41-40.69 105.57-112.16 105.57h-210.59c-5.1 0-10.53 2.31-13.87 6.03-3.35 3.72-4.75 8.24-4.72 12.56.02 4.32 1.43 8.77 4.75 12.44 3.31 3.66 8.72 6 13.84 6h156.75c33.74 0 62.44 32.88 62.44 64.28 0 15.92-4.53 30.62-14.53 41.31-10.01 10.69-25.99 18.44-52.88 18.44h-94c-3.74 0-7.68.82-11.31 3.44-3.62 2.61-6.59 7.61-6.44 12.81.16 5.19 3.15 9.64 6.63 12.12 3.48 2.48 7.36 3.38 11.12 3.38h62.35c8.79 0 15.3 3.84 20.43 10.09 5.14 6.25 8.13 15 8.13 22 0 8.72-3.22 16.77-8.91 21.81-3.68 3.27-8.78 5.55-15.78 6.1.35-3.6.41-7.68-2-12.56-2.85-5.8-10.8-10.41-17.56-10.41h-37.41c-13.02 0-27.4-4.91-38.03-14.19-10.62-9.27-17.9-22.42-17.9-41.34 0-17.4 7.27-29.81 17.59-38.72s24.03-13.56 34.13-13.56h91.93c4.16 0 8.2-.72 12.07-3.07 3.86-2.34 7.85-7.28 7.84-13.43-.01-6.15-4.01-11.1-7.87-13.44-3.87-2.34-7.89-3.03-12.04-3.03h-144.03c-55.41 0-86.28-39.22-86.28-81.5 0-37.73 32.31-82.44 81.28-82.44h214.35c5.83 0 11.84-2.72 15.4-6.88 3.57-4.15 4.98-9.09 4.94-13.81-.03-4.71-1.5-9.57-5.03-13.65-3.53-4.09-9.46-6.85-15.31-6.85h-218.31c-61.03 0-109.32-45.25-109.32-113.591 0-57.084 46.71-115.625 115.79-115.625h197.87c10.79 0 20.47-4.854 26.41-11.938 5.93-7.083 8.58-15.812 8.62-24.406.05-8.594-2.52-17.398-8.47-24.531-5.95-7.132-15.7-11.969-26.56-11.969h-211.12l-.16-11.844c0-7.31 3.97-14.664 10.34-20.469 6.38-5.804 14.95-9.125 20.19-9.125h118.31c4.58 0 9.11-1.058 13.57-4.125 4.45-3.066 8.59-9.68 8.59-17.938 0-8.506-2.53-12.807-8.59-17.938-4.46-3.066-8.99-4.125-13.57-4.125h-118.31c-5.24 0-13.81-3.32-20.19-9.125-6.37-5.804-10.34-13.283-10.34-20.594l.09-7.25h144.41c7.99 0 15.29-2.562 21.03-6.969 5.74-4.405 10.44-11.164 10.44-19.688v-10.719h70.22c18.21.005 34.04-6.784 45.37-17.152zm127.4 132.438c20.64 62.053 31.81 128.434 31.81 197.406 0 218.337-111.96 410.507-281.62 522.247 6.62-9.42 9.72-20.78 9.72-32 0-13.36-4.8-26.91-13.81-37.87-.36-.44-.79-.83-1.16-1.25 28.44-1.37 50.08-11 64.19-26.06 15.24-16.29 21.28-37.69 21.28-58.41 0-30.61-17.14-60.07-43.1-76.31h9.5c83.76 0 137.16-63.27 137.16-130.56 0-57.06-37.11-108.176-98.84-123.41 88.63-16.649 167.84-96.405 167.84-195.594 0-13.579-1.05-26.28-2.97-38.189zm-580.717 4.437a53.713 53.713 0 007.312 11.031c8.488 9.9 22.039 17.344 38.535 17.344 9.36 0 16.65-1.703 22.31-3.844 5.66-2.14 9.31-4.172 14.12-5.75 2.28-.745 3.37-.872 3.94-.875.04.157.1.268.1.656v.188l.5 33.156c0 1.02-2.38 4.531-6.66 7.594l-.16.094-.15.125-20.66 15.812c-18.504 13.23-20.4 36.325-10.78 51.094 4.09 6.283 10.1 11.388 17.44 14.157-20.02 25.069-31.471 56.391-31.471 87.874 0 69.44 45.031 122.08 104.751 135.28-44.73 15.29-72.75 59.97-72.75 101.94 0 55.03 43.59 106.5 111.28 106.5h4.91c-1.1.86-2.22 1.67-3.29 2.59-14.99 12.96-26.25 32.93-26.25 57.66 0 25.71 10.87 46.6 26.44 60.19 15.57 13.59 35.4 20.34 54.5 20.34h31.31c-.64 2.28-1.37 4.41-1.37 4.41-1.53 3.47-1.4 7.45.35 10.81 1.75 3.37 4.93 5.76 8.65 6.5 8.95 1.77 17.4 1.89 25.06.59-88.09 50.51-189.65 80.2-297.967 82.32V752.094zm-673.687 21.782L89.4 837.688l-6.969 57.813 184.438 99.687-1-66.781-27.875-12.906 4.188-68.656 32.656-8.156 8.968-64.813zm1429.534 6c-65.07 0-97.69 53.323-97.69 106.656 0 53.334 38.59 106.688 97.69 106.688 59.07.001 98.69-48.369 98.69-106.688 0-57.321-34.62-106.656-98.69-106.656zm-593.66 37.406h210.84c4.28 0 5.84 1.16 7.38 3 1.53 1.841 2.67 5.007 2.66 8.375-.02 3.369-1.2 6.58-2.79 8.469-1.58 1.889-3.16 3-7.25 3h-197.87c-6.03 0-11.91.386-17.66 1.094 3.04-6.103 4.75-12.875 4.75-19.969v-.156l-.06-3.813zm594.91 20.406c28.68 0 45.4 26.783 45.4 48.844 0 21.562-17.34 48.844-45.4 48.844-28.08 0-44.41-23.672-44.41-48.844 0-25.171 15.73-48.844 44.41-48.844zM198.431 857.782l-2.375 38.25-52.812-24.469 55.187-13.781zM325.9 1031.59h208.781v384.85c-111.012-96.69-187.586-231.93-208.781-384.85zm404.375 0h202.219v538.29c-70.928-1.4-138.961-14.64-202.219-37.79v-500.5zM947.681.001C620.477-.52 301.889 169.011 126.65 472.532-134.17 924.286 20.803 1502.62 472.556 1763.44c451.754 260.82 1030.084 105.85 1290.904-345.91 230.65-399.5 136.14-897.982-201.23-1188.336-44.13-37.98-92.42-72.398-144.67-102.568C1269.32 41.044 1107.48.255 947.681.001z" fill="url(#prefix__d)"/><path d="M1035.12 587.438c1.97-.114 4.27.401 7.4 2.469l43.25 29.344c5.4 3.931 8.97 11.199 8.97 17.062l-.5 40.531V677c0 15.963 8.08 29.565 18.5 39.062 6.15 5.6 13.19 10.019 20.72 12.719-7.53 2.701-14.57 7.119-20.72 12.719-10.42 9.498-18.5 23.101-18.5 39.062v.156l.5 40.688c0 5.864-3.95 13.227-9.34 17.156l-43 29.156c-4.18 2.758-6.73 2.719-9.16 2.125-2.42-.593-4.79-2.312-6.4-4.781-3.22-4.938-4.62-10.691 4.69-17.344l.15-.125.16-.125 20.69-15.781c6.99-5.006 16.78-13.418 16.78-27.875v-.188l-.5-33.156c0-7.073-2.54-15.06-9.69-20.469-7.15-5.408-17.36-6.077-27.13-2.875-6.97 2.287-11.53 4.745-15.18 6.125-3.66 1.381-6.75 2.219-13.47 2.219-9.424 0-15.209-3.542-19.566-8.625-4.357-5.082-6.594-12.162-6.594-16.812v-2.5c0-4.649 2.236-11.729 6.594-16.812 4.357-5.082 10.143-8.625 19.566-8.625 6.72 0 9.81.839 13.47 2.219 3.65 1.381 8.21 3.839 15.18 6.125 9.77 3.203 19.98 2.534 27.13-2.875 7.14-5.408 9.69-13.582 9.69-20.656l.5-32.969v-.188c0-14.456-10.1-23.087-17.1-28.094l-20.37-15.562-.16-.125-.15-.125c-9.31-6.651-7.91-12.405-4.69-17.344 1.61-2.469 3.98-4.188 6.4-4.781.62-.15 1.25-.244 1.88-.281z" fill="#9d0d16"/><path d="M1410.81 615.219c23.92 15.639 48.74 33.294 68.15 57.406 21.79 27.066 37.22 61.887 37.22 113.219 0 96.442-90.06 173.906-176.69 173.906h-209.34c-5.95 0-12.03 2.726-15.72 6.938-3.68 4.213-5.16 9.297-5.12 14.156.04 4.861 1.6 9.828 5.25 13.969 3.64 4.142 9.63 6.907 15.59 6.907h204.37c73.48 0 112.66 47.29 112.66 103.12 0 54.41-40.69 105.57-112.16 105.57h-210.59c-5.1 0-10.53 2.31-13.87 6.03-3.35 3.72-4.75 8.24-4.72 12.56.02 4.32 1.43 8.77 4.75 12.44 3.31 3.66 8.72 6 13.84 6h156.75c33.74 0 62.44 32.88 62.44 64.28 0 15.92-4.53 30.62-14.53 41.31-10.01 10.69-25.99 18.44-52.88 18.44h-94c-3.74 0-7.68.82-11.31 3.44-3.62 2.61-6.59 7.62-6.44 12.81.16 5.19 3.15 9.65 6.63 12.12 3.48 2.48 7.36 3.38 11.12 3.38h62.35c8.79 0 15.3 3.85 20.43 10.09 5.14 6.25 8.13 15.01 8.13 22 0 8.72-3.22 16.77-8.91 21.81-3.68 3.28-8.78 5.55-15.78 6.1.35-3.6.41-7.68-2-12.56-2.85-5.8-10.8-10.41-17.56-10.41h-37.41c-13.02 0-27.4-4.91-38.03-14.19-10.62-9.27-17.9-22.42-17.9-41.34 0-17.4 7.27-29.81 17.59-38.72s24.03-13.56 34.13-13.56h91.93c4.16 0 8.2-.72 12.07-3.06 3.86-2.35 7.85-7.29 7.84-13.44-.01-6.15-4.01-11.1-7.87-13.44-3.87-2.34-7.89-3.03-12.04-3.03h-144.03c-55.41 0-86.28-39.22-86.28-81.5 0-37.72 32.31-82.44 81.28-82.44h214.35c5.83 0 11.84-2.72 15.4-6.87 3.57-4.16 4.98-9.1 4.94-13.82-.03-4.71-1.5-9.56-5.03-13.65-3.53-4.09-9.46-6.85-15.31-6.85h-218.31c-61.03 0-109.32-45.25-109.32-113.591 0-57.084 46.71-115.625 115.79-115.625h197.87c10.79 0 20.47-4.854 26.41-11.938 5.93-7.083 8.58-15.812 8.62-24.406.05-8.594-2.52-17.398-8.47-24.531-5.95-7.132-15.7-11.969-26.56-11.969h-211.12l-.16-11.844c0-7.31 3.97-14.664 10.34-20.469 6.38-5.804 14.95-9.125 20.19-9.125h118.31c4.58 0 9.11-1.058 13.57-4.125 4.45-3.066 8.59-9.68 8.59-17.938 0-8.506-2.53-12.807-8.59-17.938-4.46-3.066-8.99-4.125-13.57-4.125h-118.31c-5.24 0-13.81-3.32-20.19-9.125-6.37-5.804-10.34-13.283-10.34-20.594l.09-7.25h144.41c7.99 0 15.29-2.562 21.03-6.969 5.74-4.405 10.44-11.164 10.44-19.688v-10.719h70.22c18.21.005 34.04-6.784 45.37-17.152z" fill="url(#prefix__e)"/></g></svg>