<svg xmlns="http://www.w3.org/2000/svg" viewBox="0 0 510.3 510.3" clip-rule="evenodd" stroke-linecap="round" stroke-linejoin="round"><g fill="#fff"><path d="M126.531 128.619C56.773 128.619 0 185.352 0 255.119c0 69.758 56.773 126.562 126.531 126.562a125.89 125.89 0 0074.094-24.031 123.925 123.925 0 0012.813-10.656c24.378-23.065 39.624-55.724 39.624-91.844a47.12 47.12 0 0112.844-32.375 47.181 47.181 0 0129.219-14.656 20.597 20.597 0 004.344-1.094c1.015-.427 1.593-1 1.593-1l.032-77.406c-28.526 0-53.975 8.91-74.813 24.031a123.694 123.694 0 00-6.625 5.125 126.146 126.146 0 00-45.812 97.344 47.035 47.035 0 01-12.875 32.375c-8.644 9.19-20.862 14.937-34.438 14.937-26.077 0-47.281-21.204-47.281-47.281 0-26.077 21.204-47.312 47.281-47.312a47.123 47.123 0 0134.438 14.937 142.816 142.816 0 0139.656-70.125 125.743 125.743 0 00-74.094-24.031zM316.344 128.619v75l1.437.25c.903.239 1.792.554 2.657.906.674.282 1.361.615 2.812 1.469 8.431 5.478 17.603 9.605 26.375 14.469 5.273 2.935 10.582 5.731 15.531 9.187 4.881 3.396 9.524 7.028 13.313 11.688 2.858 3.532 5.41 7.224 7.031 11.5 2.449 6.476 4.795 12.989 7.125 19.5 1.92 5.392 3.645 10.857 6 16.062a76.846 76.846 0 007.219 12.844c4.164 5.836 8.898 10.163 15.281 13.406 0 0 1.904.855 1.563 1.281-3.038 1.161-4.364 1.189-6.813.438-2.261-.717-4.109-2.115-5.781-3.719-1.451-1.374-2.794-2.873-4.219-4.281-2.304-2.244-4.605-4.472-6.969-6.656a7.47 7.47 0 00-2.312-1.375 1.596 1.596 0 00-1.563.187c-.458.331-.7.874-.656 1.438.044.89.291 1.748.719 2.531.887 1.45 1.896 2.808 2.937 4.156 1.75 2.338 3.467 4.705 5.344 6.906a53.917 53.917 0 004.875 4.875c1.186 1.067 2.581 1.925 3.844 2.907.452.341.843.777 1.5 1.375-.632.23-.954.386-1.313.437-2.764.282-5.38-.357-7.906-1.406-2.782-1.169-5.369-2.737-7.844-4.469-1.561-1.101-3.097-2.26-4.719-3.25-2.056-1.28-3.364-1.158-5.156.438-1.058.921-2.001 2.004-2.906 3.062a7.55 7.55 0 01-6.344 2.844 45.349 45.349 0 00-4.531.062c-3.669.299-7.027 1.538-10.125 3.5-1.109.7-2.192 1.471-3.344 2.094-1.502.785-2.998 1.59-4.594 2.188-3.413 1.254-7.354-1.033-7.968-4.625-.154-.888-.139-1.815-.156-2.719-.018-.785.059-1.613 0-2.406-.137-1.98-.669-2.396-2.657-2.157-2.509.325-3.117-.36-2.281-2.843.853-2.449 1.908-4.864 2.812-7.313 1.485-3.968 3.461-7.677 5.782-11.219 1.092-1.672 2.036-3.449 2.906-5.25.529-1.075.869-2.237 1.125-3.406.265-1.075-.206-1.94-1-2.281-.845-.359-1.565-.058-2.187.531-1.622 1.527-3.294 2.958-4.813 4.563-3.336 3.524-7.443 5.314-12.187 5.843-1.4.171-2.797.455-4.188.625-.674.077-1.357 0-2.125 0-.23-1.203.264-2.109.563-3.031a75.212 75.212 0 003.031-14.406c.435-3.934-.036-7.817-.907-11.656a6.802 6.802 0 00-.906-2.157c-.717-1.143-2.155-1.237-3.094-.281-.58.606-.906 1.329-.906 2.156l-.031 3.313a57.287 57.287 0 01-1.156 13.187c-.393 1.75-.971 3.498-1.594 5.188-.794 2.21-2.094 4.069-3.844 5.656-1.263 1.161-2.521 2.305-3.75 3.5-2.833 2.842-3.167 6.243-.812 9.469 2.406 3.328 4.82 6.683 7.406 9.875 2.108 2.645 3.156 5.547 3.156 8.875-.007.907.09 1.795.25 2.687.094.461.403.866.719 1.532.563-.419 1.167-.668 1.406-1.094a17.408 17.408 0 001.875-11.375 6.77 6.77 0 00-1.219-2.688c-1.757-2.577-3.597-5.107-5.406-7.625l-2.281-4.218c2.492-2.245 3.455-2.117 5.281.562 2.637 3.891 5.139 7.867 7.656 11.844 1.434 2.218 1.734 4.673 1.188 7.25-.58 2.747-1.031 5.53-1.594 8.875-.623 3.072-1.226 3.682-4.468 3.656-2.356-.008-4.096.799-5.282 2.813-1.058 1.826-2.685 2.925-4.562 3.718l-2.25 1v37.25l6.187-.093c66.439-1.622 120.25-55.911 120.719-122.844.017-1.203-.034-2.414 0-3.625v-44.844h37.531l29.438-81.656H316.344z"/><path d="M319.5 223.681a2.874 2.874 0 00-2.719 1.532 2.786 2.786 0 00.094 3.125 8.535 8.535 0 001.656 1.718h.031a55.999 55.999 0 003.344 2.5c4.369 3.072 8.451 6.432 11.25 11.125.666 1.093 1.454 1.393 2.188 1.094 1.041-.452.912-1.419 1.031-2.187-.026-1.792-.629-4.063-1.781-6.094-2.594-4.608-6.154-8.36-10.625-11.219-.913-.597-1.985-.943-3-1.344-.453-.187-.983-.233-1.469-.25zM367.125 267.525c-.499-.008-.979.197-1.5.594-.4.295-.754.641-1.063 1.031-2.133 2.731-3.521 5.803-4.374 9.156a5.847 5.847 0 00-.126 1.532c.043 1.254.582 1.999 1.563 2.281 1.067.324 1.974.075 2.656-.813.563-.708 1.017-1.502 1.563-2.218.623-.785 1.419-1.08 2.375-.688.751.307 1.553.517 2.219.969 1.57 1.075 3.057 2.248 4.593 3.375a10.468 10.468 0 013.781 5.312c.282.854.699 1.67 1.126 2.438.401.7 1.126.778 1.843.719a1.75 1.75 0 001.594-1.188c.171-.452.202-.965.313-1.562-.615-4.165-1.584-8.267-5.126-11.125-3.268-2.654-6.336-5.553-9.937-9.188-.495-.397-1.001-.616-1.5-.625zM288.469 301.775c-1.227-.272-2.678.88-2.031 2.531.733 1.886 1.681 4.282 1.937 6.032.427 2.926-2.421 3.846-4 3.906-3.9.145-6.194.204-10.094.656-7.603.887-13.256.966-17.812.813-7.16 15.709-19.248 31.7-30.188 41.906a125.957 125.957 0 0071.281 24c3.525 0 3.5.062 3.5.062V351.65c-2.278.811-4.25.264-5.906-1.469a15.127 15.127 0 01-1.968-2.656c-.658-1.109-1.204-2.314-1.75-3.5-1.144-2.526-1.241-2.642-4.032-2.531a4.154 4.154 0 01-3.468-1.469c-1.938-2.159-3.59-4.542-5.126-7.187-.315-.265.849-1.04 1.344-1.125a208.905 208.905 0 018.594-1.438c1.792-.282 3.13.535 4.094 1.969.674.998 1.232 2.053 1.812 3.094.31.517.617 1.048.875 1.593 1.34 3.03 3.752 4.052 6.875 3.625a18.332 18.332 0 0011.563-6.375c3.456-3.933 2.79-5.536.281-8.812-.717-.956-1.505-1.922-2.375-2.75-2.782-2.645-5.959-4.766-9.594-6.063a20.293 20.293 0 01-5.031-2.656c-1.792-1.323-4.297-3.83-5.219-5.937-.469-1.093-1.86-4.383-2.5-5.407-.277-.433-.653-.69-1.062-.781zm17.187 23.75a7.712 7.712 0 012.156 3.688c.444 1.962-.174 3.643-1.906 4.625a8.678 8.678 0 01-2.844.875c-1.791.23-2.575-.22-3.343-1.875-.862-1.878-1.665-3.822-1.75-6.125 2.628-.632 5.127-1.094 7.687-1.188zM371.5 307.556c-1.237.35-2.539.781-3.562 1.532-2.108 1.527-2.865 3.735-2.438 6.312.188 1.015.779 1.545 2.75 1.656 4.727-.341 5.844-2.225 5.844-6.218-.009-.282-.009-.872-.094-1.469-.205-1.417-1.135-2.188-2.5-1.813z"/></g></svg>