<svg xmlns="http://www.w3.org/2000/svg" viewBox="0 0 510.3 510.3" xmlns:vectornator="http://vectornator.io" clip-rule="evenodd" stroke-linecap="round" stroke-linejoin="round"><defs><linearGradient x1="222.792" y1="-.036" gradientTransform="matrix(4.11037 0 0 -4.11037 -703.579 188.953)" id="prefix__a" y2="-20.972" x2="243.728" gradientUnits="userSpaceOnUse"><stop offset="0" stop-color="#396"/><stop offset="1" stop-color="#004f32"/><stop stop-color="#004f32" offset="1"/></linearGradient></defs><g vectornator:layerName="Layer 1" fill-rule="evenodd"><path d="M255.22 291.823c-.93 0-1.614.696-1.622.712-.04.033-16.515 15.753-16.515 15.753-6.075 5.864-14.14 3.41-15.002 3.123 0 0-70.419-19.209-70.429-19.216-13.438-4.054-16.108-8.427-18.165-13.738 0 0-1.195-3.302-4.119-4.167 0 0-86.082-25.271-86.09-25.271-3.513-1.084-5.446-2.075-6.827-4.75 0 0-4.725-8.319-4.74-8.343-1.048-1.994-2.947-2.205-3.057-2.221-6.51-.879-8.419-4.509-9.226-6.054l-3.84-6.744c-1.201-2.09-2.918-2.267-2.972-2.273-3.702-.234-5.463-1.168-6.994-3.682 0 0-3.754-6.243-3.77-6.275-1.845-3.409-1.207-5.849-.356-7.298 1.795-2.97 5.077-3.195 6.394-3.242h205.837c5.828 0 10.537 1.766 14.019 5.258 2.501 2.492 4.223 5.744 5.114 9.66.016.092.258.91 2.02.91h40.684c1.763 0 2.004-.816 2.019-.91.892-3.916 2.614-7.168 5.115-9.66 3.481-3.492 8.189-5.258 14.02-5.258h205.837c1.317.045 4.597.272 6.391 3.241.853 1.448 1.489 3.888-.356 7.298-.016.031-3.77 6.275-3.77 6.275-1.531 2.513-3.291 3.447-6.994 3.682-.052.006-1.772.183-2.972 2.272l-3.84 6.744c-.807 1.546-2.715 5.176-9.225 6.055-.109.016-2.008.227-3.058 2.221-.015.023-4.739 8.343-4.739 8.343-1.381 2.674-3.314 3.667-6.825 4.75-.006 0-86.09 25.27-86.09 25.27-2.924.865-4.119 4.167-4.119 4.167-2.055 5.312-4.725 9.685-18.165 13.739-.008.006-70.429 19.216-70.429 19.216-.861.286-8.927 2.74-15.002-3.124 0 0-16.473-15.722-16.517-15.753-.006-.016-.689-.712-1.62-.712h-.005v.002z"/><path fill="url(#prefix__a)" d="M153.29 246.465l-.044-.045v-28.605h203.931v28.619c-.006.015-.016.015-.022.023l-203.865.008z"/><path d="M166.796 222.383h-.851l-8.715 19.496h2.36l.038-.112c.705-2.373 1.614-4.646 2.496-6.826l.183-.463h6.739a102.476 102.476 0 012.842 7.295l.039.106h3.258l-8.389-19.496zm-3.829 10.608c.178-.43 2.465-5.789 2.737-6.424.269.635 2.601 5.994 2.784 6.424h-5.521zm13.157 7.501l.072.075c1.029 1.123 3.35 1.647 4.598 1.647 4.089 0 6.952-2.639 6.952-6.424 0-3.139-2.375-4.063-4.671-4.972-2.04-.812-3.979-1.561-3.979-3.879 0-1.759 1.387-3.031 3.289-3.031 1.52 0 2.668.803 3.25 2.271l.039.105h.519l.815-2.46-.091-.085c-1.11-1.001-2.82-1.356-4.036-1.356-3.812 0-6.271 2.129-6.271 5.434 0 3.364 2.509 4.34 4.717 5.221 1.998.772 3.872 1.515 3.872 3.827 0 2.144-1.599 3.833-3.635 3.833-1.866 0-3.103-.804-4.309-2.773l-.047-.075h-.52l-.564 2.642zm27.01-17.707h-14.337v2.008l.185-.015a51.352 51.352 0 015.828-.335v17.497h2.754v-17.488c1.947 0 3.807.112 5.546.326l.194.022v-2.015h-.17zm9.877-.402c-6.081 0-10.336 4.1-10.336 9.957 0 5.909 4.137 9.872 10.283 9.872 6.353 0 10.629-4.138 10.629-10.29.002-6.592-5.315-9.539-10.576-9.539zm5.091 16.428c-1.353 1.431-3.05 2.16-5.069 2.16-4.452 0-7.331-3.257-7.331-8.296 0-5.584 2.909-9.048 7.581-9.048 2.204 0 4.284.969 5.57 2.59 1.412 1.803 1.7 3.683 1.7 5.934.008.122.015.258.015.388 0 1.831-.746 4.431-2.466 6.272zm24.581-16.026h-1.708v14.132h-.032c-.098-.115-13.044-14.132-13.044-14.132h-1.317v19.094h1.879v-14.775h.039c.1.114 11.799 13.064 11.799 13.064l1.467 1.713h1.087v-19.096h-.17zm30.852 0h-.675l-4.625 8.387s-2.927 5.335-3.192 5.813c-2.853-4.759-5.423-9.767-7.61-14.109l-.045-.091h-.971l-.016.16c-.272 2.82-1.914 14.312-2.632 18.745l-.038.189h2.315v-.164c0-2.69.477-6.7.984-10.952l.305-2.629c.324.62 3.916 7.442 5.288 10.253l1.553 3.198h.519l.044-.106c1.597-3.669 3.852-7.858 6.938-13.374.437 3.289 1.015 9.858 1.336 13.623l.017.153h2.925l-.025-.189c-.66-4.632-1.381-10.761-2.224-18.746l-.017-.159h-.154v-.002zm13.095-.402h-.857l-8.718 19.496h2.374l.031-.112c.709-2.395 1.622-4.675 2.509-6.874 0 0 .109-.273.163-.416h6.744a103.37 103.37 0 012.837 7.294l.038.107h3.261l-8.382-19.495zm-3.834 10.608c.179-.43 2.467-5.789 2.74-6.424l2.785 6.424h-5.525zm20.601-.545c3.445-.696 5.507-2.659 5.507-5.311 0-2.916-2.048-4.348-6.266-4.348h-5.984v19.094h2.748v-9.153h.802c.711.842 1.424 1.683 2.138 2.523-.009-.01 3.237 4.19 3.237 4.19l1.776 2.44h3.599c0-.002-7.23-9.033-7.557-9.435zm-3.995-1.09v-7.213c1.132-.053 2.889-.128 3.841.025 1.907.308 2.875 1.422 2.875 3.292 0 1.919-1.259 3.319-3.381 3.746-1.194.239-2.636.196-3.335.15zm25.397-8.571h-14.342v2.008l.187-.015a51.26 51.26 0 015.822-.335v17.497h2.768v-17.488c1.94 0 3.804.112 5.545.326l.192.022v-2.015h-.172zm2.435 19.094h2.598v-19.094h-2.598v19.094zm21.042-19.094v14.132h-.024c-.101-.115-13.044-14.132-13.044-14.132h-1.32v19.094h1.88v-14.775h.033c.1.114 11.815 13.064 11.815 13.064l1.467 1.713h1.071v-19.096h-1.878z" fill="#fff"/></g><g vectornator:layerName="Layer 2" fill="#fff"><path d="M237.168 286.981l10.41-37.538h6.155v38.547l-16.565-1.009zM150.264 231.885v4.712l-5.221 1.077-3.824-4.569 9.045-1.22zM150.264 224.809v4.074l-11.196 1.51-3.444-4.614 14.64-.97zM281.302 213.869c.721-3.189 2.097-5.804 4.074-7.782 2.737-2.742 6.551-4.137 11.312-4.137h94.558l-9.16 12.856H280.969c.209-.367.334-.937.333-.937zm223.896-7.047l-3.691 6.139c-.69 1.138-1.117 1.653-3.954 1.833l-115.467.012 9.16-12.856 111.179.001c1.076.045 2.474.166 3.214 1.387.089.165.3.506.3 1.12 0 .545-.173 1.319-.741 2.364zM273.432 303.091s-16.73-15.109-16.725-15.092l16.558-1.013 4.318 15.571c.1.44.801 3.214 2.748 5.42-2.687-.765-3.502-1.561-6.899-4.886zm-16.725-15.092v-38.551h6.153l10.405 37.538-16.558 1.013z"/><path d="M237.168 286.981l10.41-37.538h6.155v38.547l-16.565-1.009zm-2.733 18.534a9.754 9.754 0 01-4.331 2.441c1.962-2.213 2.644-4.994 2.747-5.425l4.317-15.55 16.565 1.009c-3.633 3.453-19.298 17.525-19.298 17.525zM213.709 201.953c4.77 0 8.572 1.395 11.312 4.139 1.979 1.977 3.351 4.592 4.081 7.782 0 0 .147.546.335.939H128.321c0-.005-9.165-12.862-9.165-12.857l94.553-.003zm-85.388 12.855l-115.444-.002c-2.615-.195-3.172-.505-3.994-1.856.01.009-3.413-5.679-3.685-6.128-.568-1.045-.756-1.819-.73-2.365.062-1.395 1.011-2.47 3.508-2.509l111.18.003M491.503 218.992l-3.91 6.864c-.534 1.015-1.356 2.584-3.968 3.487-2.184.545-6.529.198-8.033.015l-98.696-6.556 3.336-5.024 112.094.003a9.578 9.578 0 00-.823 1.211zm-131.375 2.704v-3.918h20.104l-3.336 5.024-16.768-1.106zM475.331 234.136c.025-.03-3.746 6.609-4.529 7.987-.193.258-1.266 1.424-4.754.961l-94.672-12.691 3.453-4.614 100.452 6.666c.142.017.551.062 1.134.114a8.117 8.117 0 00-1.084 1.577zm-115.182-5.253v-4.074l14.68.97-3.453 4.614-11.227-1.51zM443.944 251.856c-3.436.91-10.157-.121-12.49-.606l-66.059-13.572 3.833-4.569 95.109 12.76-20.393 5.987zm-83.795-15.253v-4.714l9.079 1.22-3.833 4.569s-4.147-.848-5.246-1.075zM412.851 260.975c-4.41 1.181-10.166-.729-10.221-.745l-.069-.021s-.007-.008-.015-.008l-42.4-13.022 2.967-6.937 67.736 13.92c.141.022 1.459.294 3.31.554l-21.308 6.259zm-52.702-21.337l2.964.604-2.967 6.937.003-7.541zM380.059 270.606c-2.979.811-7.373-.91-8.83-1.645 0 0-11.234-5.258-22.769-10.654l9.018-8.864 44.229 13.623c.085.031.876.289 2.089.562l-23.737 6.978zm-50.538-21.163h27.957l-9.018 8.864c-5.966-2.798-14.783-6.918-18.939-8.864zM373.361 277.176c-1.268 3.25-2.593 6.598-11.522 9.953-3.687 1.145-8.071-2.114-8.109-2.15-.015-.016-12.593-9.01-23.914-17.11l13.039-8.909 27.09 12.676c.133.067 2.614 1.32 5.618 1.88-1.436 1.636-2.086 3.326-2.202 3.66zm-69.285-27.733h18.44l20.339 9.517-13.039 8.909c-9.816-7.03-20.158-14.433-25.74-18.426zM339.694 293.437l-3.352.909c-2.823.676-6.267-2.121-7.368-3.283 0 0-7.602-7.917-14.555-15.176l12.565-6.364 24.956 17.852c.091.075 1.364 1.029 3.235 1.841a26228.92 26228.92 0 00-15.481 4.221zm-50.641-43.994h9.892l28.039 20.08-12.565 6.364c-9.233-9.622-20.355-21.225-25.366-26.444zM310.219 301.476c-2.354.371-5.085-3.492-5.876-4.933l-8.293-14.032 15.439-5.365 15.325 15.989c.115.114 1.567 1.621 3.672 2.811l-20.267 5.53zm-33.698-52.033h8.401l26.567 27.703-15.439 5.365-19.529-33.068zM287.898 307.559c-1.584.365-2.921.205-4.071-.489-2.467-1.51-3.288-4.98-3.333-5.184l-4.236-15.278 16.816-3.297 8.683 14.72c.244.43 1.688 2.947 3.851 4.705l-17.71 4.823zm-14.838-58.116l20.014 33.868-16.816 3.297-10.304-37.166h7.106v.001zM229.943 301.863c0 .037-.808 3.66-3.339 5.207-1.148.694-2.481.855-4.065.489l-17.711-4.825c2.163-1.767 3.622-4.282 3.872-4.744-.008.008 4.583-7.751 8.664-14.669l16.815 3.289-4.236 15.253zm7.434-52.42h7.106l-10.304 37.167-16.815-3.289c7.498-12.683 17.503-29.628 20.013-33.878zM200.217 301.476l-20.266-5.532c2.102-1.196 3.56-2.704 3.671-2.817 0 0 8.003-8.361 15.323-15.991l15.442 5.375-8.272 14.003c-.815 1.468-3.546 5.333-5.898 4.962zm25.297-52.033h8.404l-19.531 33.068-15.442-5.375c10.653-11.1 23.474-24.466 26.569-27.693zM174.089 294.346l-18.83-5.13a16.711 16.711 0 003.266-1.865c-.016.016 13.182-9.427 24.925-17.828l12.578 6.364-14.568 15.176c-1.099 1.162-4.545 3.959-7.371 3.283zm37.403-44.903h9.893l-25.357 26.444-12.578-6.364c12.168-8.714 24.853-17.799 28.042-20.08zM139.251 268.939l25.724-12.04-12.009-7.456a63381.496 63381.496 0 01-44.2 13.607c-.698.23-1.407.422-2.124.578 12.864 3.78 22.845 6.711 23.742 6.978 2.98.811 7.364-.91 8.867-1.667zm41.66-19.496h-27.945l12.009 7.456 15.936-7.456zM148.596 287.131c-8.893-3.357-10.226-6.696-11.489-9.938a12.15 12.15 0 00-2.214-3.676 23.255 23.255 0 005.664-1.903c-.025.008 15.06-7.038 27.047-12.654l13.035 8.903-23.883 17.086c-.069.069-4.473 3.342-8.16 2.182zm39.346-37.688h18.436l-25.739 18.42-13.035-8.903c9.662-4.524 18.61-8.707 20.338-9.517zM97.612 260.985c-7.113-2.086-14.225-4.174-21.335-6.265a51.141 51.141 0 003.322-.562c-.007.01 48.741-10.012 67.664-13.897l2.972 6.852-42.386 13.109c-.095.028-5.826 1.932-10.235.764l-.002-.001zm52.582-21.33l.041 7.458-2.974-6.856 2.933-.602zM66.527 251.861a8506.71 8506.71 0 00-20.42-5.996l95.112-12.76 3.824 4.569-66.055 13.575c-2.328.483-9.019 1.514-12.461.613v-.001zm83.737-19.976v4.712l-5.221 1.077-3.824-4.569 9.045-1.22zM44.398 243.085c-3.467.463-4.556-.682-4.756-.954l-4.563-8.033a7.866 7.866 0 00-1.057-1.536c.585-.053 101.602-6.783 101.602-6.783l3.444 4.614-94.67 12.692zm105.866-18.276v4.074l-11.196 1.51-3.444-4.614 14.64-.97zM150.264 221.717l-16.727 1.106-3.339-5.024h20.066v3.918z"/><path d="M26.8 229.362c-2.616-.901-3.445-2.47-3.98-3.486-1.598-2.719-3.702-6.782-4.736-8.077h112.114l3.339 5.024-98.714 6.553c-1.495.185-5.842.532-8.024-.014zm123.464-7.645l-16.727 1.106-3.339-5.024h20.066v3.918z"/></g></svg>