<svg xmlns="http://www.w3.org/2000/svg" xmlns:vectornator="http://vectornator.io" viewBox="0 0 510.3 510.3" clip-rule="evenodd" stroke-linecap="round" stroke-linejoin="round"><g vectornator:layerName="Layer 1"><path d="M255.142 45.695C137.749 45.695 67.7 87.21 67.7 87.21l1.428 94.534c0 43.395 14.177 228.033 186.012 328.556 171.928-100.523 186.019-285.1 186.019-328.565l1.42-94.527c0 .002-69.996-41.513-187.437-41.513" fill="#231f20"/><path d="M435.529 93.995S374.465 55.09 255.142 55.09c-119.309 0-180.379 38.905-180.379 38.905l1.874 87.741c0 34.379 6.58 218.537 178.505 318.479C427.07 400.29 433.641 216.124 433.641 181.736l1.888-87.741z" fill="#fff200"/><path d="M443.053 56.407L255.142 24.468 67.247 56.408l.47 31.529s94.424-40.985 187.425-40.975c93.008 0 187.43 40.975 187.43 40.975l.481-31.53z" fill="#ed1c24"/><path d="M67.247 47.014V35.746L255.157.04l187.896 35.705v11.276L255.142 12.258 67.247 47.014z" fill="#009a4e"/><path d="M250.91 69.645s-.201 2.035-.684 3.224c-.436 1.088-1.631 1.84-1.548 2.567.077.736.86 1.591 2.04 2.208 1.18.607 1.656 1.078 2.851 1.386 1.112.265 2.52 1.096 2.935.154.404-.933-.209-2.106-.895-3.216-1.176-1.924-1.762-2.389-3.504-5.057-.37-.565-.669-1.191-1.195-1.266m-8.805 208.867c.111-.334 2.909 1.412 4.346 2.268 3.039 1.814 4.416 2.892 7.107 4.927a89.981 89.981 0 015.291 4.295c2.627 2.257 4.04 4.185 4.748 3.728 1.009-1.228-1.678-4.808-4.059-6.758-2.318-1.892-4.71-3.45-6.57-4.688-2.375-1.556-2.584-1.934-6.149-4.322-3.82-2.559-7.123-5.767-7.123-5.767l-3.726-2.935-5.827-4.921-6.463-5.971-4.899-5.442s-3.803-4.654-4.406-5.535c-.603-.899-2.39-3.773-3.88-6.212-1.327-2.182-3.884-5.579-4.128-5.87-1.378-1.678-4.54-1.002-8.2-3.167-4.467-2.626-5.536-5.022-5.536-5.022s-.175-.359-.333-.549c-.167-.205-.509-.43-.509-.43l-2.322-1.644-1.34-.881s-1.026-.838-2.305-1.387c-1.271-.556-4.125-2.215-4.125-2.215l-5.099-3.251s-1.998-1.609-2.665-2.138c-.663-.523-1.924-1.241-1.924-1.241s-.8-.411-1.045-.419c-.242-.016-1.294-.12-1.294-.12s-.979-.248-1.981.925c-1.005 1.172-.77.548.861 7.162.637 2.627.577 11.832 1.27 14.623.894 3.609 3.405 8.264 3.662 8.812.261.54.436 2.559.436 2.559s-.103 1.626.073 2.652c.771 4.748 7.727 1.625 9.258 8.143 1.518 6.438-.902 12.862-.902 12.862s-1.505 3.183-3.606 3.698c-2.113.496-5.381-4.168-7.749-7.956-2.331-3.715-4.248-8.589-4.859-10.139-.616-1.541-.932-1.883-1.638-3.019-1.045-1.66-1.896-1.37-3.059-3.995-1.169-2.644-.133-3.706-.667-6.007-.295-1.274-.577-1.411-.972-3.234-.392-1.823-.911-7.589-.911-7.589l-.736-5.391s-.265-2.456-.594-3.987c-1.186-5.382-1.579-10.585-1.579-10.585l-.218-2.131-.09-2.207s-.067-1.07.194-2.156c.265-1.095.8-2.001.8-2.001s1.079-1.822 1.263-2.268c.184-.436 2.409-3.012 2.409-3.012s1.146-.949 3.046-2.131c1.894-1.163 3.609-1.069 3.609-1.069s.493-.06 3.854.359c3.375.429 10.297 2.259 12.029 2.721 1.729.455 3.777 1.18 5.126 1.917 3.847 2.097 5.013 1.206 1.947-1.18-2.058-1.616-2.634-2.336-4.295-3.858-1.4-1.276-2.503-2.14-3.546-3.328-1.035-1.199-4.031-5.603-4.031-5.603l-1.856-2.755s-1.011-1.112-1.169-1.198a10.428 10.428 0 01-.663-.479s-1.227.069-2.507-.188c-1.279-.239-1.882 1.548-1.882 1.548s-2.768 5.167-5.583 8.333c-4.547 5.134-7.817 8.632-9.496 11.353-2.349 3.79-1.84 7.941-3.052 9.857-.704 1.13-1.086 1.293-1.471 2.276-1.18 2.976 3.11 4.611 2.131 7.914-1.562 5.237-13.835 10.421-15.464 9.549-1.682-.89-.305-7.965.264-10.267.579-2.301 2.295-5.68 2.453-5.86.157-.171.569-.966.702-1.642.132-.684.175-2.208.262-3.073.08-.847.424-2.198.424-2.198s.06-.274 1.137-2.644c1.088-2.362 5.083-7.863 7.958-13.115 1.865-3.431 2.66-5.511 4.543-8.925 1.746-3.166 4.714-7.965 4.714-7.965s1.263-2.456 1.857-3.371c.599-.934 1.852-2.712 3.023-4.45 1.186-1.736 1.481-3.046 3.033-4.476 1.289-1.189 2.153-1.822 3.829-2.369 2.496-.821 4.205-.368 6.738.334 2.653.728 4.467 1.934 6.19 3.371a24.463 24.463 0 013.008 3.039l.834 1.232.513.308 1.612 1.026 3.672 2.439s8.709 5.921 9.185 6.237c.469.308 2.023 1.591 2.344 1.702.316.087 2.64-2.422 7.188-5.569 5.266-3.644 7.14-3.364 8.863-4.313 1.729-.948 2.446-1.745 3.795-3.096 2.041-2.054 2.05-3.132 4.373-5.988 2.332-2.858 4.521-4.45 4.521-4.45s.315-.316 4.474-5.006c4.162-4.697 5.994-8.248 5.994-8.248l2.288-4.561s3.304-7.093 4.363-9.9c1.058-2.815 1.058-3.764 1.058-3.764s.158-.727-.654-2.155c-.817-1.43-1.664-.78-3.233-.455-3.039.643-4.873-.144-7.928-.674-2.807-.479-4.269-1.301-7.072-1.78-2.842-.479-4.504-.932-7.351-.659-.588.069-1.169.189-1.736.359-1.596.539-2.048.659-3.243 1.343-1.382.66-2.293.872-3.83.906-1.058.017-1.708.051-2.687-.333-.676-.257-1.052-.454-1.597-.934a4.22 4.22 0 01-.744-.856c-.026-.309-.124-.292.167-.771.278-.496.647-.582.647-.582l1.309-.325s1.84-.489 1.994-.523c.167-.043 1.92-.616 2.691-.857.783-.248 1.631-.693 1.631-.693s.482-.744.291-1.189c-.218-.489-1.261-.523-1.261-.523s-1.471.523-1.639.556l-2.482.788s-1.839.402-3.26.736c-1.424.325-3.468.487-3.468.487l-.613-.162s-.71-.469-.814-.939c-.097-.436-.167-.77-.248-1.257-.295-1.806-.655-2.909-.244-4.69.175-.744.352-1.146.677-1.847.268-.59.445-.915.794-1.464l1.137-1.83 2.122-3.14a7.682 7.682 0 012.117-1.608c1.361-.761 2.148-.983 3.83-1.173 1.668-.171 1.886-.154 4.244-.684 2.366-.53 4.038-1.471 4.038-1.471s5.643-2.07 9.087-3.764c3.598-1.762 5.184-3.662 8.923-5.126a29.56 29.56 0 014.121-1.31.758.758 0 00.368-.495c.168-.598-.761-.882-1.386-.812-.553.05-1.84.64-2.135.007-.231-.505 1.18-.794 1.18-.794s.66-.308.667-.684c.025-.556-.954-.198-1.387-.24-2.181-.24-2.356-.641-3.872-1.02-1.796-.444-2.768-.991-4.607-1.06-1.646-.078-3.183.281-4.196.53-1.026.247-1.06-.752-.66-.94 2.875-1.344 2.935-1.464 4.959-1.549 1.112-.043 2.664.205 2.832.282.167.087 2.382-.024 2.961-.597.569-.566-1.832-.54-2.961-.985-1.036-.419-2.631-.53-2.593-1.223.043-.694.821-.316 1.366-.445.684-.162 1.095-.155 1.796-.258 1.27-.17 1.387-.274 3.267-.445 1.876-.162 4.566.616 4.566.616s2.811 1.257 4.196 1.907c1.385.66 3.059.985 3.059.985s1.949.291 3.459-.66c1.519-.941.666-1.54.121-2.395-.517-.814-1.175-1.958-.201-4.166.858-1.924 1.294-4.149 1.552-4.356.285-.248 1.497 1.464 2.256 2.182 2.749 2.567 6.412 3.85 9.839 9.24.269.437 1.567-.257 5.556.352 3.993.616 7.462 4.893 8.356 5.911.9 1.019 2.078.983 2.078.983l1.919.248 6.965.119s3.164-.557 4.985.127c1.276.47 5.521 3.311 3.585 4.4-1.356.75-2.632-.908-3.85-.993-1.449-.094-2.087.17-3.375.496-2.702.684-8.5 2.439-6.398 3.15.173.05.446.11.446.11l1.059.171s2.547.582 4.07 1.19c2.338.924 3.416 1.94 5.59 3.199 1.207.711 1.757 1.421 3.089 1.814 1.233.359 2.011-.008 3.27.214 1.652.291 2.584.616 4.089 1.343 2.23 1.086 3.064 2.387 5.082 3.833.992.728 1.834.848 2.584 1.823.173.222.327.325.396.59.275.898-1.469.368-2.393.224-1.021-.171-1.464-.677-2.396-1.113-1.387-.64-2.056-1.377-3.578-1.659-1.112-.205-1.762-.034-2.892.017-1.086.051-1.683.222-2.771.239-1.875.026-2.943-.147-4.775-.523-2.051-.428-3.06-1.24-5.133-1.659-2.291-.479-6.4-2.456-5.99-.488.197.958 2.379 1.755 2.379 1.755s1.463.813 2.891 1.428c1.432.616 2.203 1.548 2.203 1.548l.982.737s1.009 1.386 2.319 2.935c1.304 1.557 3.579 1.514 3.579 1.514s1.387 0 4.375.607c2.969.616 6.029 2.446 6.029 2.446s2.329 1.583 3.663 3.183c1.343 1.583.573 2.396.411 2.567-.161.162-.118.077-.28.162-.161.077-1.839-1.994-1.839-1.994l-1.182-1.026s-1.184-.813-2.697-1.309c-1.509-.487-1.993-.155-1.993-.155s-3.219.891-5.991.814c-2.777-.077-4.248-1.18-4.248-1.18l-1.755-1.18s-2.642-2.48-2.726-1.31c-.062.797 1.163 1.678 1.163 1.678s.862.865 1.42 1.404c1.058 1.043 1.487 1.575 2.71 2.668 1.221 1.103 1.995 1.103 1.995 1.103s.66.154.904.197c.239.042.686.171.686.171s.411.154 2.326.934c1.917.778 3.959 2.447 3.959 2.447s.196.171.481.204c.29.042.863.316 1.024.369.166.041.654.041 1.755.195 1.098.171.694.865.694.865l-.205.281-.897.607s-1.181.335-2.003.369c-.815.041-1.952-.403-1.952-.403l-2.486-.939s-2.488-.65-3.014-.737a80.007 80.007 0 01-3.138-.607 12.947 12.947 0 01-1.798-.65c-.289-.171-.855-.291-2.191-.941-1.351-.66-1.89-1.428-3.56-1.96-1.667-.53-2.687-.641-3.954.248-2.153 1.488 3.268 1.729 5.983 3.072 3.978 1.958 6.225 3.415 7.185 5.536.951 2.131 1.919 2.909 1.919 2.909s2.794 1.411 4.07 2.891c.684.795.796 1.464 1.469 2.268 1.548 1.799 4.528 1.712 5.13 3.243.565 1.428-2.415.788-3.971.641-2.807-.274-3.478-2.831-6.091-3.876-1.472-.583-2.422-.59-3.935-1.096-2.738-.905-4.025-2.097-6.778-2.952-1.659-.505-4.686-2.711-4.327-1.018.092.419.323.727.451.975.118.248.816 1.137.816 1.137s.939 1.233 1.351 1.548c.404.335 2.19 1.678 4.723 3.063 2.533 1.385 4.724 4.038 4.724 4.038s.752 1.079 1.114 1.84c.372.838.119 1.095.681 2.275.578 1.18.858 1.404 1.595 2.121 1.847 1.797 3.782 1.438 6.159 2.413.633.248.682.359 1.383 1.096.686.736-.128 1.061-.128 1.061s-2.623.66-4.319.523c-2.21-.181-3.18-.848-5.341-1.91-2.153-1.059-3.303-2.976-3.508-3.105-.203-.121-.727-.694-1.135-.985-.411-.274-1.45-.506-2.401-.77-.939-.258-1.507-.299-2.45-.564-1.297-.368-2.65-.942-3.256-1.139-.617-.205-2.026-.462-3.039.147-2.052 1.206 3.161 2.035 4.794 3.756.828.89 1.163 1.505 1.952 2.412.597.703.844 1.199 1.589 1.755.513.378 1.432.771 1.432.771s1.255.582 3.089 1.591c1.847 1.019 4.004 3.877 4.004 3.877l1.301 1.993.785 1.147.197.529.282.651s.94 1.223 1.633 1.625c.694.409.573.778.573.778s-.084.248-.573.532c-.488.291-.74.041-1.428-.164-.704-.195-1.137-.855-1.749-1.343-.617-.496-1.287-1.72-2.411-2.413-.985-.59-2.279-.804-2.775-.975-.491-.162-1.71-.932-2.201-1.137-.488-.205-1.755-.78-1.755-.78s-2.463-1.385-3.797-1.753c-1.353-.368-.498.462-.498.462s1.221 1.883 2.381 2.644c1.505 1.002 3.619 1.881 2.937 2.687-.463.539-1.098.342-1.791.257-1.129-.12-2.495-1.48-2.495-1.48s-.566-.369-3.093-1.18c-2.533-.823-1.603.573-1.028 1.3a4.706 4.706 0 001.357 1.146l1.696.771.79.248s.682.12 2.976.65c2.275.53 3.544 1.625 3.544 1.625s1.223 1.156 2.929 2.413c1.729 1.257 3.431 1.591 4.363 1.719.94.111.9.77.9.77s.128.607.085.812a.485.485 0 01-.444.368c-.216 0-.293.077-.539.205-.239.12-1.223.282-1.223.282s-2.565-.084-4.561-.564c-2.001-.496-3.744-1.875-3.919-1.967-.154-.077-2.037-1.095-3.296-1.507-1.274-.41-3.264-.239-3.465-.161-.205.084-.9.204-2.087.529-1.179.325.293.771.293.771l.855.094 2.036.154s2.077.248 3.877.907c1.785.641 2.933 1.951 4.111 3.133a14.298 14.298 0 002.492 1.958l.932.606.496.369.12.325s-.038.171-.12.368c-.085.214-.367.368-.367.368s-.453-.077-.661-.077c-.205 0-1.53-.71-2.514-1.146-1.047-.462-1.567-.872-2.661-1.137-.951-.231-2.202-.325-2.473-.248-.287.077-2.371.369-3.968.489a22.33 22.33 0 01-4.869-.085c-2.698-.325-6.264-2.446-6.717-1.849-.932 1.224 1.924 1.592 3.288 2.379 1.891 1.086 5.168 2.088 5.168 2.088s2.38.532 3.78 1.18c3.067 1.42 3.997 3.517 6.454 5.742 1.37 1.25 2.449 1.779 4.277 2.044 1.569.222 1.548.042 4.036-.445 2.479-.496 4.004-2.858 4.724-2.003.146.18.09.325.039.573-.039.239-.242.693-.242.693s-.282.41-.729.855c-.445.446-2.163 1.387-3.053 1.755-.9.369-3.106.976-5.872.891-2.779-.077-6.652-2.198-6.652-2.198l-2.807-1.18s-1.299-.617-2.157-.942c-2.326-.862-3.798-.787-6.203-1.428-1.497-.393-2.448-.813-3.794-1.095-1.351-.275-.595.248-.449.454.643.848 1.47 1.12 2.533 1.626 1.413.684 2.403.548 3.877 1.138 1.606.668 3.014 1.601 3.9 2.165.9.573 1.556 1.206 2.415 2.121l2.976 2.524s.694.573.771.814c.084.248.411.855.246 1.839-.162.983-.966.291-.966.291l-.789-.488-.767-.737-1.266-1.026s-1.064-.975-2.892-1.916c-1.834-.932-4.04-1.18-4.04-1.18s-1.96-.292-1.883.325c.089.616.54.659 2.08 1.06 1.549.411 2.573 1.18 2.573 1.18s1.593 1.189 2.721 2.489c1.155 1.31 1.471 2.567 1.471 2.567s.575 1.062 2.044 2.49c1.464 1.43 2.249.941 2.155 1.625-.077.693-.738.821-.738.821s-.359-.041-.521-.041c-.154 0-.539-.205-.943-.359-.4-.171-1.948-1.233-1.948-1.233s-2.413-1.95-2.702-2.164c-.275-.198-2.563-1.909-2.563-1.909s-1.336-.855-2.319-1.351a25.406 25.406 0 00-3.02-1.224c-.738-.238-2.07-.325-2.07-.325s-1.644-.238-2.61-.607c-1.567-.59-3.382-2.258-3.578-2.335-.195-.085-1.666-.573-1.948-.53-.282.041-.936 2.771-1.086 4.346-.667 6.622 1.093 11.011 3.812 17.078 3.961 8.82 14.94 19.78 14.94 19.78s2.757 1.575 3.935 2.499c3.288 2.577 8.728 6.212 13.538 11.021 4.119 4.122 9.615 11.45 9.615 11.45s3.156 4.424 4.62 7.546c1.806 3.843 3.245 9.677 3.245 9.677s.128 1.017.246 1.22c.111.214.378.471.585.481l1.918.067c.203 0 2.381-.172 3.815-.529 1.437-.357 4.84-1.909 7.085-3.095 2.242-1.174 4.938-3.457 4.938-3.457s.508-.431 3.142-3.354c2.632-2.928 4.331-7.317 4.962-8.961.617-1.66 1.137-4.816 1.53-10.232.404-5.417-.333-11.15-.333-11.15s-.992-7.991-1.595-10.702c-.596-2.721-2.037-7.135-2.037-7.135s-1.007-3.953-1.336-6.443c-.308-2.499-.372-6.545-.372-6.545s0-2.482.823-7.066c.812-4.58 3.627-9.181 3.627-9.181s.778-1.539 3.816-5.167c3.08-3.689 4.074-4.286 7.119-6.487 2.409-1.745 5.553-4.526 6.569-3.876 1.132.718-1.106 2.131-1.845 2.865-1.901 1.874-5.468 5.218-8.352 10.233-2.506 4.346-3.438 7.221-4.074 10.053-.623 2.841-.358 5.938-.281 7.007.088 1.06.678.676.678.676s6.107-4.902 9.429-8.634c3.611-4.021 6.8-11.182 8.059-11.242.836-.043 1.24 1.874 1.043 2.745-.805 3.723-1.058 4.192-2.255 6.641-1.402 2.848-2.672 4.115-4.585 6.708-2.037 2.737-3.012 3.79-4.637 7.409-2.345 5.21-.979 9.231-.979 9.231s.282 2.447 1.386 2.413c1.846-.06 5.887-5.16 8.522-9.326 1.941-3.072 2.649-6.604 3.934-8.453 1.145-1.65 2.172 2.677 1.684 5.227-.573 3.02-2.076 5.733-5.363 10.011-3.219 4.185-3.108 8.163-3.108 8.163s-.349 1.822-.605 5.774c-.257 3.953.874 9.944.874 9.944s1.024 5.005 1.214 8.812c.188 3.798.058 12.484-3.501 19.219-1.413 2.711-4.466 6.46-4.466 6.46s-2.319 2.393-4.254 3.797c-1.922 1.404-6.518 3.566-6.518 3.566s-3.182 1.113-3.644 1.214c-.447.119-.751.509-.751.509l.426.867c.113.257 1.009 2.448 1.009 2.448s.96 3.123 1.317 5.597c.359 2.456-.058 3.018-.419 4.918-.342 1.805-1.136.969-1.336 4.526-.18 3.14 1.259 4.707.994 8.223-.116 1.537-1.864-1.922-2.7-3.407-1.792-3.235-1.358-8.155-1.4-9.376-.05-1.223-.135-2.567-.59-4.141-.573-1.988-1.375-3.563-2.318-4.775-.94-1.214-1.934-1.9-2.276-1.787-.323.113-.342.761-.359 1.086-.015.325.643 1.488.806 1.746.145.25 1.336 2.412 1.336 2.412s.519 1.652.741 4.88c.203 3.234-.791 7.193-.791 7.193s-1.286 4.502-2.652 7.127c-1.514 2.918-4.859 6.888-4.859 6.888s-2.395 2.199-4.19 5.81c-1.798 3.612-.257 5.194-.924 5.637-.682.474-2.103-2.07-2.488-3.797-.353-1.592-.165-2.343.47-4.149.623-1.719 2.07-4.209 2.07-4.209l2.172-3.679s2.577-4.972 3.388-8.566c.823-3.602-.103-7.59-.103-7.59s-.118-1.317-1.009-1.268c-.904.051-1.556.859-1.917 1.806-.751 1.978.308 1.625-.823 4.913-.9 2.592-1.129 2.248-1.602 3.783-.555 1.847-.863 3.726-.827 4.885.041 1.146-.59.665-.59.665s-1.086-2.052-1.086-4.592c0-1.387.05-2.163.216-3.544.246-2.217 1.144-5.61 1.144-5.61s.981-3.347.769-6.417c-.215-3.065-1.293-3.64-1.293-3.64s-.274-.421-1.47-.344c-1.181.077-1.133 2.208-1.133 2.208s-.357 3.029-.826 4.912c-1.31 5.218-3.039 7.946-6.139 12.335-2.787 3.971-6.588 7.454-8.478 9.097-1.89 1.651-7.711 5.896-7.711 5.896l-6.812 4.534s-2.702 2.634-3.953 5.774c-1.255 3.132-1.178 5.588-.461 8.471.72 2.875 1.77 4.227 2.31 5.015.546.795 1.601 2.215 1.939 3.859.212 1.028.058 1.652.12 2.702.058.904.18 1.421.162 2.317-.034 1.449.231 2.48-.581 3.662-.616.906-2.26 1.678-2.26 1.678s-1.84.823-2.943 1.49c-11.601 7.007-15.725 11.533-22.255 19.344-2.087 2.481-.554 2.334-2.788 5.288-1.325 1.762-4.431 1.755-5.56 3.867-1.552 2.864 3.534 5.697-2.349 8.232-7.557 3.267-20.59.932-20.844-.087-.71-2.826 2.543-6.041 3.687-7.307 5.31-5.802 10.049-5.945 11.778-10.738.368-1.028.234-1.91 4.44-5.025 2.968-2.198 14.812-11.105 19.979-17.059 1.763-2.028 3.303-3.39 4.074-5.598.77-2.215-.771-3.621-.771-3.621l-2.129-3.465-4.066-7.273s-1.702-3.86-2.649-6.092c-.936-2.225-2.723-8.256-2.723-8.256s-1.317-5.382-1.529-8.897c-.404-6.331.469-10.012 2.129-16.13 2.157-7.982 7.05-11.311 9.002-19.19.567-2.285.682-6.212-.47-6.022-1.112.19-1.208 3.303-2.029 5.37-3.149 7.821-7.308 11.252-9.591 19.365-1.533 5.476-2.147 8.734-2.132 14.427 0 3.249-.119 2.649.719 8.298.309 2.085.84 3.192 1.453 5.218.43 1.439 1.593 4.122 1.593 4.122s1.644 3.595 2.191 6.101c.188.844.393 1.344.342 2.208-.103 1.498.147 1.823-.573 3.172-.9 1.67-.342 2.661-3.219 3.284-2.521.532-7.732-1.135-7.732-1.135s-21.387-6.493-35.037-4.629c-2.708.366-4.155 1.353-6.889 1.298-2.459-.036-3.73-1.967-6.195-1.229-.513.154-.671.506-1.112.804-3.629 2.524-.857 6.716-10.384 4.534-5.851-1.343-12.937-4.909-11.704-7.168 1.639-2.986 3.846-3.474 8.467-5.37 4.94-2.02 12.358-1.449 13.814-1.558 1.789-.118 4.363-1.375 7.546-1.432 5.511-.092 6.498.558 6.498.558l9.376.822 17.916.24s3.204-.257 4.497-.498c1.279-.248 2.3-2.773 2.993-3.978.69-1.197-.019-2.976-.019-2.976l-.543-.831-1.698-2.754-3.159-5.312-3.495-6.966s-2.285-4.868-3.512-8.059c-1.212-3.168-1.913-4.954-2.724-8.241-.844-3.388-1.348-6.135-1.455-8.835-.139-3.893-.383-6.947.703-10.13" fill="#231f20"/><path d="M358.501 272.043c3.755-4.852 4.125-9.335 4.347-15.684.174-4.604-1.575-11.704-1.575-11.704l-.239-.513s-.661-.855-1.065.274c.064 1.002.195 1.806.195 1.806l.222 9.145s-.291 4.605-1.854 9.354c-2.646 8.008-9.662 11.593-10.688 14.458-1.733 4.809 6.14-1.309 10.657-7.136m-39.562 14.797s-1.548.434-1.574 1.96c-.04 1.528.373 2.858.342 4.686-.044 2.326-2.199 5.051-.816 5.919 2.388 1.507 4.431-9.121 3.707-10.693-.727-1.571-1.431-1.891-1.659-1.872m-26.629 73.679s-.436-.238-1.298.085c-.855.319-.805 1.21-.805 1.21s-.165.941.528 1.052c.694.096 1.84-1.582 1.832-1.785-.015-.19-.257-.562-.257-.562M267.278 378.3s-.269.265-.038.451c.224.173.54-.065.54-.065s4.331-3.373 6.888-5.758c2.717-2.544 6.607-6.914 6.607-6.914s.265-.342-.04-.624c-.287-.275-1.05.154-1.659.443-.539.275-.855.588-1.248.925-.404.334-1.659 1.64-1.659 1.64l-3.354 3.258-2.085 1.96-2.045 1.96-.868.983s-.229.373-.28.469a7.589 7.589 0 01-.289.393s-.301.301-.301.378c0 .077-.103.18-.111.274 0 .1-.058.227-.058.227m-7.49 4.912s-.477-.385-1.204 0c-.739.376-1.524 1.394-1.586 1.509-.06.111-.474.665-.195 1.135.274.47 1.212-.222 1.343-.248.135-.019 1.359-.97 1.359-.97s.708-.443.283-1.426m-14.32 14.51s-.603-1.154-1.407-.675c-.817.47-1.246.633-1.98 1.642-.124.19-.919 1.214-1.07 1.472-.14.266-.918 1.762.677 1.854 2.768.182.962-1.606 1.909-2.294.77-.536 2.208-.402 2.225-.968.022-.552-.354-1.031-.354-1.031m-49.043-57.915s-1.669.395-1.789.983c-.124.588.971 1.163 1.146 1.189.184.036.569.463 1.665-.281 1.095-.745 1.052-1.383 1.052-1.383s.647-.748-2.074-.508m26.98-.881s-.017-.607-1.197-.539c-1.185.067-1.446.289-1.471.462-.036.188.051.488 1.12.573 1.079.086 1.514-.007 1.548-.496m25.489.746c-2.14-.028-1.454.041-2.777.111-2.4.128-3.709.028-6.071-.126-3.315-.211-8.45-1.052-8.45-1.052s-.647-.137-.902.265c-.242.43.626 1.309 1.404 1.557 4.195 1.308 4.415 1.069 7.288 1.122 1.595.026 2.49-.135 4.072-.24 2.007-.138 2.952.171 5.133-.412.573-.148 1.13-1.218.303-1.225m14.38-4.28s-.432-.489-1.314-.061c-.888.435-1.42 1.404-1.42 1.404s-.412.643.462.539a5.168 5.168 0 001.86-.616c.222-.116.857-.727.412-1.266M250.76 162.963s6.084-5.699 10.415-13.211c2.584-4.474 3.707-14.904 1.49-12.294-1.005 1.172-2.206 6.597-4.124 10.592-2.732 5.697-8.574 13.775-8.574 13.775s-1.257 2.696.793 1.138m-24.243 14.435s-.646.488-.359 1.31c.301.821 1.554.195 1.554.195s2.785-1.052 5.727-1.173c2.956-.12 7.039.761 7.039.761s1.946.54 2.275.66c.325.118 1.387.641 1.554.703.175.06 1.173.563 1.74.05.583-.512-3.538-4.242-7.734-4.808-6.98-.951-11.58 2.044-11.58 2.044l-.216.258zm-28.796 24.615c.506.409 2.845-4.031 4.801-6.836 1.428-2.071 4.038-5.519 4.038-5.519s1.163-1.584-.821-.693c-.817.359-3.033 2.044-4.594 5.15-1.332 2.637-3.925 7.469-3.424 7.898m-16.14-19.328s-.5 1.703 1.52 3.867c2.023 2.156 2.544 3.944 3.837 2.654.359-.342-1.261-3.268-2.088-4.072a29.78 29.78 0 01-1.437-1.472l-.517-.428-.68-.368-.376-.154c-.004 0-.118-.104-.259-.027m-6.537-16.512s-2.182.411-2.727 1.464c-.539 1.059 2.516.419 2.516.419s2.033.118 2.078-.66c.053-.778-.263-.874-1.867-1.223m-34.721 57.538c-1.103-.334-1.296 1.866-1.437 2.567-.137.71.492 2.138.744 2.122.265-.008 1.152-1.395 1.203-2.079.05-.685.483-2.311-.51-2.61m36.055 42.849s-1.99-1.574-2.296-.947c-.295.613 1.646 3.397 1.646 3.397s.586.904 1.505.487c.911-.419.582-1.421.582-1.421s-.614-1.302-1.437-1.516m-15.045-46.357s-.506-.12-.701.487c-.184.607-.162 1.618-.295 2.815-.117.949.244 3.465.244 3.465s.193 1.986.586 3.2c.432 1.292 1.588 3.132 1.588 3.132s.436.958.962.915c.526-.051.406-.684.406-.684s-1.669-6.631-1.729-7.307c-.201-2.199-.184-4.893-.184-4.893l-.017-.412s-.017-.691-.86-.718m2.613-20.227s-.928-.188-1.77 1.591c-.851 1.789-.676 2.507-.603 2.592.068.086.752.06 1.83-1.592 1.066-1.644.831-2.258.831-2.258s-.06-.333-.288-.333m25.282 18.337s1.122 1.652-1.015 1.274c-2.13-.385-6.61-3.91-8.423-4.859-1.8-.949-4.758-1.266-3.512-2.362.218-.195.274-.376.643-.393.368-.017 1.582.47 1.663.506.069.041 3.22 1.334 3.337 1.377.116.051 1.875.804 3.136 1.541 1.262.744 3.303 2.172 3.303 2.172l.868.744zm58.965 50.754c.579 1.839-6.712-3.85-10.618-6.859-10.357-7.965-23.033-24.308-21.451-25.746 1.317-1.197 6.511 6.289 14.126 14.529 8.129 8.792 17.601 16.988 17.943 18.076m30.436-7.815c-2.249 2.414-3.053 5.504-1.755 7.813 1.285 2.24 1.678-3.277 3.095-4.921 1.21-1.402 1.952-1.19 3.97-2.61 3.427-2.417-2.445-3.349-5.31-.282m-12.961-51.564c-1.537-.257-1.487 2.096-1.267 3.781 1.028 7.495 4.39 13.271 8.882 18.72 2.738 3.302 10.235 9.206 11.116 8.264.316-.342-7.145-6.091-11.884-13.493-3.362-5.246-5.167-9.703-5.581-14.032-.052-.538.077-3.025-1.266-3.24M236.656 98.553c-3.384 1.84-9.245 3.448-9.245 3.448s-.27.573.483.513c5.019-.393 6.93-1.035 9.613-2.208 2.668-1.163 4.624-4.372 4.624-4.372s1.079-1.977-.945-.342c-.616.498-2.683 1.945-4.53 2.961m40.769-12.884s-1.148-.257-1.919.224c-.767.486-.547.88-.547.88s1.182.925 2.037 1.063c.855.127 2.687.924 2.603.308-.07-.624-1.098-1.763-1.44-2.071-.359-.31-.734-.404-.734-.404m-19.193 35.209c.202.402 3.631-.53 4.94-1.267 1.045-.582 1.438-2.523 1.438-2.523s.291-1.891-.154-1.165c-1.964 3.192-6.415 4.543-6.224 4.955m-.11-8.796c1.383-2.644-3.803 2.764-6.443 4.168-1.613.855-4.23 1.976-4.23 1.976s-.693.865.274.795c.972-.077 3.441.771 5.421-.787.466-.359 2.557-3.388 2.557-3.388s1.754-1.49 2.421-2.764m-.801 11.31c.1.436 5.927.282 7.381-.137 1.137-.333 1.755-2.37 1.755-2.37s.701-1.77.113-1.163c-2.631 2.678-9.345 3.226-9.249 3.67m-93.281 53.192s-.885-.315-1.98 1.334c-1.086 1.635-5.972 9.044-5.1 10.147 1.026 1.293 5.258-6.631 6.545-8.119 1.296-1.481.779-3.003.779-3.003s-.016-.332-.244-.359m106.472 133.928c-.513 2.465.12 7.491.958 8.487 2.073 2.499.804-3.901 1.094-6.144.25-2.105.524-2.822 1.54-5.064 1.849-4.023-2.499-2.533-3.592 2.721m-17.823-214.62s-1.612.036-2.874.728c-1.261.703-1.596 1.668-1.596 1.668s-.251.703-.077 1.096c.369.857 2.101-.436 3.328-.008.992.352 1.464.633 2.208 1.539.659.797 1.822 1.926 2.55 1.284.727-.641.466-2.242.466-2.242s-.861-2.62-1.981-3.371c-1.122-.744-2.024-.693-2.024-.693m-26.775 18.455s-.895.147-.684 1.233c.214 1.088.798.915.798.915s1.866-.795 1.742-1.917c-.111-1.137-1.856-.231-1.856-.231m-13.074-5.86s-.979.035-1.665 1.249a14.713 14.713 0 00-1.086 2.465s-.329 1.599.248 2.095c.579.506 1.199-1.035 2.024-1.616.499-.358.804-.529 1.313-.881.703-.486 1.839.137 1.755-1.283-.09-1.421-1.605-2.097-2.589-2.029m42.24-15.213s-2.225-.316-2.139.54c.074.787 1.21.315 1.937.642.711.308 1.164.436 1.731.966.417.368.366 1.095.879 1.103.709.01.558-.275.558-.275s-.635-1.916-1.471-2.472c-.827-.538-1.495-.504-1.495-.504m24.827 8.967c-.327 1.206-.521 1.634-.521 1.634s-.627 2.456 1.864 1.549c2.48-.925 1.21-.53 2.984-1.394 1.772-.865 1.714-.393 3.014-.335.442.017.72.043 1.385-.094.556-.111.325-.785-.923-1.12-1.345-.359-3.014-.265-4.928-.291-1.115-.009-2.552-1.146-2.875.051M281 93.138s-1.144-.248-1.916.231c-.778.489-.547.872-.547.872s1.189.934 2.037 1.062c.855.144 2.687.932 2.617.308-.084-.624-1.112-1.753-1.452-2.07a2.07 2.07 0 00-.739-.403m4.382 17.078s-1.225-.238-2.055.231c-.837.463-.59.821-.59.821s1.277.872 2.183 1.002c.906.12 2.873.864 2.796.274-.077-.582-1.171-1.651-1.548-1.952-.374-.291-.786-.376-.786-.376m.359 6.203s-1.293-.282-2.172.248c-.874.52-.609.949-.609.949s1.344 1.001 2.302 1.155c.971.145 3.031.992 2.942.316-.084-.667-1.228-1.9-1.625-2.242-.393-.33-.838-.426-.838-.426m.592 6.041s-1.406-.316-2.353.274c-.95.599-.667 1.069-.667 1.069s1.46 1.137 2.496 1.301c1.048.161 3.288 1.136 3.2.385-.092-.761-1.351-2.156-1.778-2.541-.428-.377-.898-.488-.898-.488m-.147 7.469s-1.394-.316-2.352.282c-.951.59-.662 1.069-.662 1.069s1.457 1.129 2.5 1.293c1.046.171 3.303 1.136 3.199.375-.095-.761-1.351-2.147-1.779-2.533a2.312 2.312 0 00-.906-.486m-1.016 14.554s-1.406-.315-2.356.282c-.947.59-.666 1.069-.666 1.069s1.453 1.139 2.496 1.301c1.046.171 3.303 1.129 3.2.376-.092-.761-1.351-2.156-1.78-2.543-.424-.374-.894-.485-.894-.485m.945-7.29s-1.614-.359-2.719.325c-1.094.684-.763 1.233-.763 1.233s1.688 1.317 2.884 1.505c1.209.188 3.817 1.309 3.696.436-.103-.882-1.555-2.49-2.051-2.928a2.658 2.658 0 00-1.047-.571m-1.64 13.861s-1.148-.265-1.934.231c-.789.487-.547.882-.547.882s1.197.934 2.063 1.069c.855.137 2.702.941 2.624.308-.078-.626-1.113-1.772-1.46-2.088-.354-.317-.746-.402-.746-.402m-1.086 6.314s-.951-.214-1.601.197c-.652.402-.463.727-.463.727s1 .78 1.708.891c.714.111 2.25.77 2.184.257-.06-.522-.915-1.471-1.21-1.736a1.615 1.615 0 00-.618-.336m-1.344 5.75s-.866-.198-1.456.171c-.581.358-.412.659-.412.659s.893.703 1.541.797c.643.111 2.029.701 1.979.238-.062-.469-.833-1.334-1.098-1.557-.263-.241-.554-.308-.554-.308m-1.368 4.714s-.874-.195-1.456.162c-.581.368-.412.667-.412.667s.9.693 1.541.794c.65.111 2.029.703 1.967.231-.058-.462-.828-1.326-1.093-1.557-.258-.228-.547-.297-.547-.297m-1.644 5.468s-.701-.162-1.163.137c-.481.301-.335.539-.335.539s.728.556 1.241.65c.52.077 1.644.557 1.593.179-.051-.376-.675-1.069-.893-1.257a1.099 1.099 0 00-.443-.248m-1.967 5.124s-.598-.128-1.002.12c-.411.248-.289.462-.289.462s.624.479 1.067.549c.444.077 1.413.489 1.379.162-.043-.316-.59-.925-.763-1.086a.964.964 0 00-.392-.207m-2.03 4.861s-.605-.128-1.001.128c-.419.248-.289.452-.289.452s.635.489 1.078.557c.443.077 1.402.496 1.37.163-.051-.325-.586-.924-.771-1.088-.184-.163-.387-.212-.387-.212M143.45 208.037s-1.015 1.967-.517 3.046c.502 1.078 1.87-1.721 1.87-1.721s1.415-2.798.838-3.311c-.586-.521-.921.934-2.191 1.986" fill="#fff"/><path d="M220.604 381.218s-.761-.982-1.481-.268c-.72.721-1.655 1.867-3.32 1.757-1.672-.126-2.39-.386-3.332-.788-.928-.411-2.232-1.026-2.232-1.026s-3.397-1.309-6.279-1.377c-2.875-.077-7.58 1.124-9.858 3.593-2.279 2.456-2.858 5.015-2.858 5.015s-.761 4.494.545 6.544c1.304 2.071 2.725 4.286 5.887 6.227 3.174 1.941 4.555 2.661 4.555 2.661l5.505 2.533 5.089 1.918s7.354 2.199 8.247 7.761c.89 5.563-2.447 12.756-12.599 13.418-9.989.652-14.854-4.2-16.409-7.308-1.554-3.123-.66-5.757-.66-5.757l.419-.855.393-.195s1.554 1.052 3.076.853c1.518-.196 4.312-2.028 3.733-5.014-.586-2.995-3.267-3.652-4.556-3.543-1.28.114-7.003 1.593-7.114 9.915-.117 8.318 7.465 12.749 7.465 12.749s5.368 3.343 11.43 3.08c6.065-.275 11.084-2.687 11.084-2.687s8.98-4.467 9.219-14.228c.227-9.752-5.951-13.187-5.951-13.187s-2.216-1.548-4.239-2.488a540.444 540.444 0 01-6.879-3.267l-4.94-2.251-2.995-1.669-1.678-1.129s-3.999-3.151-1.866-6.573c2.14-3.42 8.326-2.14 8.326-2.14s4.782 1.009 8.514 3.696c3.735 2.68 5.917 5.906 5.917 5.906l1.548 2.535.191.351 1.327-.462s-2.063-5.756-2.456-8.172c-.383-2.405-.768-6.128-.768-6.128m59.199 32.917s1.336 1.479 3.112 1.479c1.798 0 4.346-1.248 4.312-4.476-.033-3.225-3.299-4.089-3.299-4.089s-4.94-1.163-7.343 3.86c-2.411 5.013-1.094 9.366-1.094 9.366s1.131 6.77 8.283 10.773c7.151 4 14.819 1.052 14.819 1.052s5.748-1.911 10.728-7.512c4.979-5.596 7.35-12.246 7.35-12.246l1.744-4.352 2.099.04s2.925.274 4.975-1.402c2.075-1.68 3.354-3.968 3.354-3.968l.269-.694-1.328-.616s-1.505 1.977-3.612 2.174c-2.095.188-4.275-.163-4.275-.163l2.019-5.408s2.333-4.705 3.002-5.795c.662-1.084 3.38-4.583 3.38-4.583s5.598-.034 11.002-1.163c5.41-1.129 8.745-2.488 8.745-2.488l6.691-2.766 1.633-.89-.504-1.327s-6.026 2.14-14.94 3.159c-8.895 1.009-14.492-.077-14.492-.077l-10.115-1.566s-3.074-.497-5.442-.537c-2.367-.037-7.204.846-7.204.846s-4.808 1.093-6.98 2.728c-2.191 1.635-7.358 5.449-4.979 11.278 2.363 5.834 12.048 2.719 13.417-1.601-.048.039.54-1.394.54-1.394l.161-.78-.826-.316-.972 1.129s-3.611 3.039-6.415 1.086c-2.786-1.941-.892-4.654-.616-4.971.267-.305 1.779-2.137 5.398-2.949 3.619-.811 9.061.506 9.061.506l5.911 1.086s3.266.624 3.412.624c.162 0 1.214.154 1.214.154l-2.065 2.294s-2.995 2.875-5.098 7.043c-2.095 4.158-3.064 6.33-3.064 6.33l-.205.316s-2.632.308-4.301 1.317c-1.678 1.011-2.764 2.567-2.764 2.567l-.782 1.403 1.049.891s1.208-1.362 2.687-1.746c1.479-.394 2.604.196 2.604.196s-2.142 5.281-3.151 7.187c-1.009 1.905-2.721 5.408-5.132 8.01-2.403 2.6-4.158 4.867-9.676 5.644-5.521.771-9.414-2.771-10.848-4.515-1.447-1.745-2.294-4.397-2.371-6.33-.087-1.954.922-3.818.922-3.818" fill="#231f20"/></g></svg>