<?xml version="1.0" encoding="UTF-8" standalone="no"?> <!-- Created with Vectornator for iOS (http://vectornator.io/) --><!DOCTYPE svg PUBLIC "-//W3C//DTD SVG 1.1//EN" "http://www.w3.org/Graphics/SVG/1.1/DTD/svg11.dtd">
<svg xml:space="preserve" style="fill-rule:nonzero;clip-rule:evenodd;stroke-linecap:round;stroke-linejoin:round;" xmlns="http://www.w3.org/2000/svg" version="1.1" viewBox="0 0 510.3 510.3" xmlns:vectornator="http://vectornator.io" xmlns:xlink="http://www.w3.org/1999/xlink">
<metadata>
<vectornator:setting value="true" key="UndoHistoryDisabled"/>
<vectornator:setting key="WDCMYKEnabledKey" value="false"/>
<vectornator:setting key="VNSnapToGuides" value="true"/>
<vectornator:setting value="true" key="WDRulersVisible"/>
<vectornator:setting value="false" key="WDSnapToPoints"/>
<vectornator:setting value="false" key="WDSnapToGrid"/>
<vectornator:setting key="WDOutlineMode" value="false"/>
<vectornator:setting key="WDSnapToEdges" value="false"/>
<vectornator:setting value="false" key="WDDynamicGuides"/>
<vectornator:setting key="WDDisplayWhiteBackground" value="false"/>
<vectornator:setting value="false" key="WDIsolateActiveLayer"/>
<vectornator:setting value="true" key="VNDimensionsVisible"/>
<vectornator:setting key="IsTimeLapseWatermarkDisabled" value="false"/>
<vectornator:setting value="true" key="WDGuidesVisible"/>
<vectornator:setting key="WDUnits" value="Points"/>
</metadata>
<defs/>
<g vectornator:layerName="Layer 1" id="Layer 1">
<path fill-rule="evenodd" opacity="1" fill="#231f20" d="M255.062+45.6951C141.446+45.6951+73.6506+83.7735+73.6506+83.7735L75.0326+170.483C75.0326+210.286+88.7536+379.642+255.06+471.844C421.456+379.642+435.094+210.342+435.094+170.475L436.468+83.7717C436.468+83.7735+368.724+45.6951+255.062+45.6951"/>
<path fill-rule="evenodd" opacity="1" fill="#fff200" d="M429.598+89.997C429.598+89.997+370.499+54.3125+255.015+54.3125C139.545+54.3125+80.4401+89.997+80.4401+89.997L82.2531+170.476C82.2531+202.009+88.6217+370.924+255.015+462.594C421.412+370.94+427.771+202.017+427.771+170.476L429.598+89.997Z"/>
<path fill="#ffffff" opacity="1" d="M73.1659+56.4073L73.1659+47.0142L255.015+12.2584L436.88+47.0217L436.88+56.4073L255.015+24.4681L73.1659+56.4073Z" fill-rule="evenodd"/>
<path opacity="1" fill-rule="evenodd" fill="#ed1c24" d="M436.88+56.4073L255.015+24.4681L73.1659+56.4073L73.6205+87.9369C73.6205+87.9369+165.006+46.9522+255.015+46.9616C345.031+46.9616+436.415+87.9369+436.415+87.9369L436.88+56.4073Z"/>
<path d="M73.1659+47.0142L73.1659+35.7459L255.03+0.041124L436.88+35.7459L436.88+47.0217L255.015+12.2584L73.1659+47.0142Z" fill="#009a4e" fill-rule="evenodd" opacity="1"/>
<path fill-rule="evenodd" fill="#231f20" opacity="1" d="M250.919+67.6625C250.919+67.6625+250.725+69.529+250.257+70.62C249.835+71.6179+248.679+72.3073+248.759+72.9742C248.834+73.6498+249.592+74.434+250.734+74.9994C251.876+75.556+252.336+75.9886+253.493+76.2713C254.569+76.5143+255.932+77.276+256.333+76.4125C256.724+75.556+256.131+74.4806+255.467+73.462C254.329+71.6972+253.762+71.2715+252.076+68.8241C251.718+68.3053+251.428+67.7314+250.919+67.6625M242.398+259.241C242.505+258.935+245.213+260.537+246.604+261.322C249.545+262.986+250.878+263.974+253.482+265.841C255.241+267.092+256.949+268.406+258.603+269.78C261.145+271.851+262.513+273.619+263.198+273.2C264.175+272.074+261.574+268.79+259.27+267.001C257.026+265.266+254.711+263.837+252.911+262.701C250.613+261.274+250.41+260.927+246.96+258.737C243.263+256.39+240.066+253.447+240.066+253.447L236.46+250.755L230.821+246.242L224.565+240.765L219.824+235.773C219.824+235.773+216.143+231.504+215.56+230.696C214.976+229.872+213.247+227.236+211.805+224.999C210.52+222.997+208.046+219.881+207.809+219.614C206.476+218.075+203.416+218.695+199.873+216.71C195.55+214.301+194.515+212.103+194.515+212.103C194.515+212.103+194.346+211.774+194.193+211.6C194.032+211.412+193.701+211.205+193.701+211.205L191.453+209.697L190.156+208.889C190.156+208.889+189.163+208.121+187.926+207.617C186.695+207.107+183.933+205.585+183.933+205.585L178.998+202.604C178.998+202.604+177.065+201.128+176.419+200.642C175.777+200.163+174.557+199.504+174.557+199.504C174.557+199.504+173.783+199.127+173.546+199.12C173.311+199.105+172.293+199.01+172.293+199.01C172.293+199.01+171.346+198.782+170.376+199.858C169.403+200.933+169.631+200.361+171.209+206.427C171.826+208.837+171.768+217.28+172.438+219.84C173.304+223.15+175.734+227.42+175.983+227.923C176.235+228.418+176.404+230.27+176.404+230.27C176.404+230.27+176.305+231.761+176.475+232.702C177.221+237.057+183.954+234.193+185.435+240.171C186.904+246.076+184.562+251.969+184.562+251.969C184.562+251.969+183.106+254.888+181.072+255.361C179.027+255.816+175.864+251.538+173.573+248.063C171.317+244.656+169.461+240.185+168.87+238.763C168.274+237.35+167.968+237.036+167.285+235.994C166.273+234.472+165.45+234.738+164.324+232.33C163.193+229.905+164.195+228.931+163.679+226.82C163.393+225.652+163.12+225.526+162.738+223.854C162.358+222.182+161.856+216.893+161.856+216.893L161.144+211.948C161.144+211.948+160.887+209.696+160.569+208.291C159.421+203.355+159.041+198.582+159.041+198.582L158.83+196.628L158.743+194.603C158.743+194.603+158.678+193.622+158.93+192.626C159.187+191.622+159.705+190.791+159.705+190.791C159.705+190.791+160.749+189.119+160.927+188.71C161.105+188.31+163.259+185.948+163.259+185.948C163.259+185.948+164.368+185.077+166.207+183.993C168.04+182.926+169.699+183.012+169.699+183.012C169.699+183.012+170.177+182.957+173.429+183.342C176.696+183.735+183.395+185.414+185.071+185.837C186.745+186.255+188.727+186.92+190.032+187.596C193.756+189.519+194.884+188.702+191.917+186.513C189.925+185.031+189.368+184.371+187.76+182.975C186.405+181.804+185.338+181.012+184.328+179.922C183.326+178.823+180.427+174.783+180.427+174.783L178.63+172.256C178.63+172.256+177.652+171.236+177.499+171.157C177.279+171.019+177.065+170.872+176.857+170.718C176.857+170.718+175.67+170.781+174.431+170.545C173.193+170.326+172.61+171.965+172.61+171.965C172.61+171.965+169.931+176.705+167.206+179.609C162.806+184.318+159.641+187.526+158.016+190.022C155.742+193.498+156.235+197.306+155.062+199.063C154.381+200.099+154.011+200.249+153.638+201.151C152.496+203.88+156.648+205.38+155.701+208.41C154.189+213.213+142.311+217.968+140.734+217.168C139.106+216.352+140.439+209.862+140.99+207.751C141.55+205.64+143.211+202.541+143.364+202.376C143.516+202.219+143.915+201.49+144.043+200.87C144.171+200.243+144.213+198.845+144.297+198.051C144.374+197.274+144.707+196.035+144.707+196.035C144.707+196.035+144.765+195.784+145.808+193.61C146.861+191.444+150.727+186.398+153.51+181.581C155.315+178.434+156.084+176.526+157.906+173.394C159.596+170.49+162.469+166.089+162.469+166.089C162.469+166.089+163.691+163.836+164.266+162.997C164.846+162.14+166.058+160.509+167.192+158.915C168.34+157.323+168.625+156.121+170.127+154.809C171.375+153.719+172.211+153.138+173.833+152.637C176.249+151.884+177.903+152.299+180.354+152.943C182.922+153.611+184.677+154.717+186.345+156.035C187.399+156.881+188.374+157.814+189.256+158.822L190.063+159.952L190.56+160.235L192.12+161.176L195.674+163.413C195.674+163.413+204.103+168.844+204.563+169.134C205.017+169.416+206.521+170.593+206.832+170.695C207.138+170.775+209.387+168.473+213.789+165.587C218.885+162.245+220.699+162.501+222.367+161.631C224.04+160.761+224.734+160.03+226.039+158.791C228.015+156.907+228.024+155.918+230.272+153.299C232.529+150.677+234.647+149.217+234.647+149.217C234.647+149.217+234.952+148.927+238.977+144.625C243.005+140.317+244.779+137.06+244.779+137.06L246.993+132.877C246.993+132.877+250.191+126.371+251.216+123.796C252.239+121.214+252.239+120.344+252.239+120.344C252.239+120.344+252.392+119.677+251.607+118.367C250.816+117.055+249.996+117.652+248.478+117.95C245.536+118.539+243.761+117.818+240.805+117.331C238.088+116.892+236.673+116.138+233.96+115.699C231.21+115.259+229.601+114.844+226.846+115.094C226.277+115.158+225.714+115.268+225.166+115.424C223.621+115.918+223.183+116.028+222.027+116.655C220.689+117.261+219.808+117.455+218.32+117.487C217.296+117.502+216.667+117.533+215.72+117.181C215.065+116.945+214.701+116.765+214.174+116.324C213.898+116.095+213.655+115.83+213.454+115.539C213.429+115.256+213.334+115.271+213.615+114.832C213.885+114.377+214.242+114.298+214.242+114.298L215.509+114C215.509+114+217.289+113.552+217.438+113.52C217.6+113.481+219.297+112.955+220.043+112.734C220.801+112.507+221.621+112.099+221.621+112.099C221.621+112.099+222.088+111.416+221.903+111.008C221.692+110.56+220.683+110.528+220.683+110.528C220.683+110.528+219.259+111.008+219.096+111.038L216.694+111.761C216.694+111.761+214.914+112.13+213.539+112.436C212.161+112.734+210.183+112.883+210.183+112.883L209.589+112.734C209.589+112.734+208.902+112.304+208.802+111.873C208.708+111.473+208.64+111.167+208.561+110.72C208.276+109.064+207.928+108.052+208.325+106.418C208.495+105.736+208.666+105.367+208.981+104.724C209.24+104.183+209.411+103.885+209.749+103.381L210.849+101.703L212.903+98.8227C213.491+98.2219+214.184+97.723+214.952+97.3478C216.269+96.6498+217.031+96.4462+218.659+96.2719C220.273+96.1151+220.484+96.1307+222.766+95.6445C225.056+95.1588+226.674+94.2953+226.674+94.2953C226.674+94.2953+232.136+92.3961+235.469+90.8432C238.951+89.2266+240.486+87.4841+244.105+86.1416C245.402+85.6494+246.734+85.2479+248.093+84.9403C248.275+84.8433+248.404+84.678+248.449+84.4853C248.612+83.9372+247.713+83.677+247.108+83.7407C246.573+83.7873+245.327+84.3285+245.042+83.7476C244.818+83.2841+246.184+83.0186+246.184+83.0186C246.184+83.0186+246.823+82.736+246.829+82.3913C246.854+81.8811+245.906+82.2103+245.487+82.1707C243.376+81.9518+243.207+81.583+241.74+81.2365C240.001+80.8281+239.061+80.3265+237.281+80.2628C235.688+80.1922+234.2+80.5214+233.22+80.7488C232.227+80.9763+232.194+80.0594+232.581+79.8871C235.364+78.6548+235.422+78.5445+237.38+78.467C238.457+78.4273+239.959+78.6548+240.121+78.7254C240.283+78.8048+242.427+78.703+242.987+78.1774C243.538+77.6586+241.214+77.6827+240.121+77.2743C239.119+76.89+237.575+76.7882+237.612+76.1523C237.653+75.5163+238.406+75.8628+238.934+75.7439C239.596+75.5957+239.994+75.6025+240.672+75.5077C241.901+75.3509+242.014+75.2561+243.834+75.0993C245.65+74.951+248.253+75.6645+248.253+75.6645C248.253+75.6645+250.974+76.8176+252.314+77.4139C253.654+78.0188+255.275+78.317+255.275+78.317C255.275+78.317+257.161+78.5842+258.622+77.7121C260.092+76.8486+259.267+76.2988+258.739+75.5147C258.239+74.7684+257.602+73.7187+258.545+71.6937C259.375+69.9288+259.797+67.8883+260.047+67.6987C260.323+67.4712+261.496+69.0412+262.23+69.6996C264.891+72.0539+268.436+73.231+271.753+78.1756C272.013+78.5756+273.269+77.9395+277.13+78.498C280.995+79.0632+284.352+82.9859+285.217+83.92C286.088+84.8542+287.228+84.8214+287.228+84.8214L289.086+85.0489L295.827+85.1575C295.827+85.1575+298.889+84.6473+300.651+85.2746C301.886+85.7055+305.995+88.3114+304.121+89.3093C302.808+89.9987+301.573+88.4769+300.395+88.3993C298.992+88.3131+298.375+88.5561+297.128+88.8543C294.513+89.4817+288.902+91.0913+290.936+91.7428C291.104+91.7893+291.368+91.8446+291.368+91.8446L292.393+92.0014C292.393+92.0014+294.858+92.5356+296.332+93.0923C298.595+93.9402+299.638+94.8727+301.742+96.027C302.91+96.6792+303.442+97.3304+304.731+97.6909C305.925+98.0202+306.678+97.6835+307.896+97.8872C309.495+98.1541+310.397+98.4522+311.854+99.119C314.012+100.115+314.819+101.308+316.772+102.635C317.732+103.302+318.547+103.413+319.273+104.307C319.441+104.51+319.59+104.605+319.656+104.848C319.922+105.672+318.235+105.186+317.34+105.053C316.352+104.897+315.923+104.433+315.021+104.033C313.679+103.446+313.032+102.77+311.559+102.511C310.482+102.323+309.853+102.48+308.76+102.527C307.709+102.573+307.131+102.73+306.078+102.746C304.263+102.77+303.229+102.611+301.456+102.266C299.471+101.873+298.495+101.129+296.488+100.744C294.271+100.305+290.294+98.4916+290.691+100.297C290.882+101.175+292.994+101.906+292.994+101.906C292.994+101.906+294.41+102.652+295.792+103.216C297.178+103.781+297.924+104.636+297.924+104.636L298.874+105.312C298.874+105.312+299.851+106.583+301.119+108.004C302.381+109.432+304.582+109.393+304.582+109.393C304.582+109.393+305.925+109.393+308.817+109.95C311.69+110.515+314.652+112.193+314.652+112.193C314.652+112.193+316.906+113.645+318.197+115.113C319.497+116.565+318.751+117.31+318.595+117.467C318.439+117.616+318.48+117.538+318.324+117.616C318.168+117.686+316.544+115.787+316.544+115.787L315.4+114.846C315.4+114.846+314.254+114.1+312.79+113.645C311.329+113.198+310.861+113.503+310.861+113.503C310.861+113.503+307.745+114.32+305.062+114.25C302.375+114.179+300.951+113.167+300.951+113.167L299.253+112.085C299.253+112.085+296.696+109.81+296.614+110.883C296.554+111.614+297.74+112.422+297.74+112.422C297.74+112.422+298.574+113.216+299.114+113.71C300.138+114.667+300.553+115.155+301.737+116.157C302.919+117.169+303.668+117.169+303.668+117.169C303.668+117.169+304.307+117.31+304.543+117.35C304.774+117.388+305.207+117.507+305.207+117.507C305.207+117.507+305.604+117.648+307.458+118.363C309.313+119.077+311.289+120.608+311.289+120.608C311.289+120.608+311.479+120.765+311.755+120.795C312.036+120.833+312.59+121.085+312.746+121.133C312.907+121.171+313.379+121.171+314.445+121.312C315.507+121.469+315.116+122.106+315.116+122.106L314.918+122.363L314.05+122.92C314.05+122.92+312.907+123.227+312.111+123.259C311.322+123.296+310.222+122.889+310.222+122.889L307.816+122.028C307.816+122.028+305.408+121.432+304.899+121.352C303.884+121.186+302.87+120.999+301.862+120.795C301.268+120.637+300.686+120.438+300.122+120.199C299.842+120.042+299.294+119.932+298.001+119.336C296.694+118.73+296.172+118.026+294.556+117.538C292.942+117.052+291.955+116.95+290.729+117.765C288.645+119.13+293.892+119.351+296.519+120.583C300.369+122.379+302.544+123.715+303.473+125.661C304.394+127.615+305.331+128.329+305.331+128.329C305.331+128.329+308.035+129.623+309.27+130.981C309.932+131.71+310.04+132.324+310.691+133.061C312.19+134.711+315.074+134.631+315.656+136.036C316.203+137.345+313.319+136.758+311.813+136.624C309.096+136.372+308.447+134.027+305.918+133.068C304.493+132.534+303.574+132.527+302.11+132.063C299.46+131.233+298.214+130.14+295.55+129.355C293.944+128.892+291.014+126.869+291.362+128.422C291.451+128.806+291.675+129.089+291.798+129.316C291.913+129.543+292.588+130.359+292.588+130.359C292.588+130.359+293.497+131.49+293.896+131.779C294.287+132.086+296.015+133.318+298.467+134.588C300.918+135.859+303.039+138.292+303.039+138.292C303.039+138.292+303.767+139.282+304.117+139.98C304.477+140.748+304.232+140.984+304.776+142.066C305.335+143.149+305.606+143.354+306.32+144.012C308.107+145.66+309.98+145.331+312.281+146.225C312.893+146.453+312.941+146.554+313.619+147.23C314.283+147.905+313.495+148.204+313.495+148.204C313.495+148.204+310.957+148.809+309.315+148.683C307.176+148.517+306.237+147.905+304.146+146.931C302.062+145.96+300.949+144.202+300.751+144.083C300.554+143.972+300.047+143.447+299.652+143.18C299.255+142.929+298.249+142.716+297.329+142.474C296.42+142.237+295.87+142.199+294.957+141.956C293.702+141.619+292.393+141.092+291.806+140.912C291.209+140.724+289.845+140.488+288.865+141.046C286.879+142.153+291.924+142.913+293.505+144.492C294.306+145.308+294.63+145.872+295.394+146.704C295.972+147.349+296.211+147.804+296.932+148.314C297.428+148.66+298.318+149.021+298.318+149.021C298.318+149.021+299.532+149.555+301.307+150.48C303.095+151.415+305.182+154.036+305.182+154.036L306.442+155.864L307.201+156.916L307.392+157.402L307.665+157.999C307.665+157.999+308.575+159.12+309.245+159.489C309.917+159.864+309.8+160.203+309.8+160.203C309.8+160.203+309.719+160.43+309.245+160.691C308.773+160.958+308.529+160.728+307.863+160.54C307.182+160.361+306.763+159.756+306.171+159.308C305.574+158.854+304.925+157.731+303.837+157.095C302.884+156.554+301.632+156.358+301.152+156.201C300.676+156.052+299.497+155.346+299.021+155.158C298.549+154.97+297.323+154.443+297.323+154.443C297.323+154.443+294.939+153.172+293.648+152.835C292.338+152.497+293.166+153.258+293.166+153.258C293.166+153.258+294.348+154.986+295.47+155.684C296.927+156.603+298.973+157.409+298.313+158.148C297.865+158.643+297.25+158.462+296.579+158.384C295.487+158.274+294.165+157.026+294.165+157.026C294.165+157.026+293.617+156.688+291.171+155.944C288.72+155.189+289.62+156.47+290.176+157.136C290.733+157.812+291.49+158.188+291.49+158.188L293.131+158.895L293.896+159.122C293.896+159.122+294.556+159.232+296.776+159.718C298.978+160.205+300.206+161.209+300.206+161.209C300.206+161.209+301.39+162.269+303.041+163.422C304.714+164.575+306.361+164.882+307.263+164.999C308.173+165.101+308.134+165.705+308.134+165.705C308.134+165.705+308.258+166.262+308.217+166.45C308.174+166.638+307.975+166.788+307.787+166.788C307.578+166.788+307.503+166.858+307.265+166.976C307.034+167.086+306.082+167.234+306.082+167.234C306.082+167.234+303.599+167.157+301.667+166.717C299.731+166.262+298.044+164.997+297.874+164.913C297.725+164.842+295.903+163.908+294.684+163.53C293.451+163.154+291.525+163.311+291.331+163.383C291.133+163.46+290.46+163.57+289.311+163.868C288.17+164.166+289.595+164.575+289.595+164.575L290.422+164.661L292.393+164.803C292.393+164.803+294.403+165.03+296.145+165.635C297.873+166.223+298.984+167.424+300.124+168.508C300.854+169.19+301.663+169.791+302.535+170.304L303.438+170.86L303.918+171.199L304.034+171.497C304.034+171.497+303.997+171.653+303.918+171.834C303.835+172.03+303.562+172.172+303.562+172.172C303.562+172.172+303.124+172.101+302.923+172.101C302.724+172.101+301.442+171.45+300.489+171.05C299.476+170.626+298.973+170.25+297.914+170.007C296.994+169.795+295.783+169.709+295.521+169.78C295.243+169.85+293.226+170.118+291.68+170.228C290.112+170.365+288.531+170.339+286.968+170.15C284.357+169.852+280.906+167.907+280.467+168.454C279.565+169.577+282.329+169.914+283.649+170.636C285.479+171.632+288.651+172.551+288.651+172.551C288.651+172.551+290.954+173.039+292.309+173.634C295.278+174.936+296.178+176.86+298.556+178.9C299.882+180.047+300.926+180.532+302.695+180.775C304.214+180.979+304.193+180.814+306.601+180.367C309.001+179.912+310.476+177.746+311.173+178.53C311.315+178.695+311.26+178.828+311.211+179.055C311.173+179.275+310.977+179.691+310.977+179.691C310.977+179.691+310.704+180.067+310.271+180.475C309.841+180.884+308.178+181.748+307.317+182.085C306.446+182.424+304.31+182.98+301.633+182.902C298.944+182.832+295.195+180.886+295.195+180.886L292.479+179.804C292.479+179.804+291.222+179.238+290.391+178.94C288.14+178.149+286.715+178.218+284.388+177.63C282.939+177.27+282.019+176.884+280.716+176.626C279.408+176.374+280.14+176.853+280.281+177.042C280.904+177.82+281.704+178.069+282.733+178.534C284.1+179.161+285.058+179.036+286.485+179.577C288.039+180.19+289.402+181.046+290.26+181.563C291.131+182.089+291.766+182.669+292.597+183.509L295.477+185.824C295.477+185.824+296.149+186.349+296.223+186.57C296.305+186.798+296.621+187.355+296.461+188.257C296.305+189.159+295.526+188.524+295.526+188.524L294.763+188.076L294.021+187.4L292.795+186.459C292.795+186.459+291.766+185.565+289.996+184.702C288.221+183.847+286.086+183.62+286.086+183.62C286.086+183.62+284.189+183.352+284.264+183.918C284.35+184.483+284.787+184.522+286.277+184.89C287.776+185.267+288.767+185.972+288.767+185.972C288.767+185.972+290.309+187.063+291.401+188.255C292.518+189.457+292.824+190.61+292.824+190.61C292.824+190.61+293.381+191.584+294.803+192.894C296.219+194.205+296.979+193.757+296.888+194.384C296.814+195.02+296.174+195.137+296.174+195.137C296.174+195.137+295.827+195.1+295.67+195.1C295.521+195.1+295.148+194.912+294.757+194.77C294.37+194.614+292.872+193.639+292.872+193.639C292.872+193.639+290.536+191.851+290.257+191.655C289.991+191.473+287.776+189.904+287.776+189.904C287.776+189.904+286.483+189.119+285.532+188.664C284.584+188.231+283.608+187.856+282.609+187.542C281.895+187.323+280.606+187.244+280.606+187.244C280.606+187.244+279.014+187.025+278.079+186.687C276.563+186.146+274.806+184.616+274.617+184.545C274.428+184.467+273.004+184.02+272.731+184.059C272.458+184.097+271.825+186.601+271.68+188.045C271.035+194.119+272.738+198.145+275.37+203.71C279.203+211.8+289.829+221.852+289.829+221.852C289.829+221.852+292.497+223.297+293.637+224.145C296.82+226.508+302.084+229.842+306.74+234.253C310.726+238.034+316.045+244.756+316.045+244.756C316.045+244.756+319.1+248.813+320.517+251.677C322.265+255.202+323.657+260.553+323.657+260.553C323.657+260.553+323.781+261.486+323.895+261.672C324.003+261.868+324.261+262.104+324.462+262.113L326.318+262.175C326.514+262.175+328.622+262.017+330.01+261.69C331.401+261.362+334.694+259.939+336.867+258.851C339.037+257.774+341.646+255.68+341.646+255.68C341.646+255.68+342.138+255.285+344.687+252.603C347.235+249.918+348.879+245.892+349.49+244.384C350.087+242.862+350.59+239.967+350.97+234.999C351.361+230.03+350.648+224.772+350.648+224.772C350.648+224.772+349.688+217.442+349.104+214.956C348.528+212.46+347.133+208.411+347.133+208.411C347.133+208.411+346.158+204.786+345.84+202.502C345.542+200.21+345.48+196.498+345.48+196.498C345.48+196.498+345.48+194.222+346.276+190.017C347.062+185.816+349.787+181.596+349.787+181.596C349.787+181.596+350.54+180.185+353.48+176.857C356.461+173.473+357.423+172.926+360.37+170.907C362.701+169.306+365.744+166.755+366.728+167.352C367.823+168.01+365.657+169.306+364.942+169.98C363.102+171.698+359.65+174.766+356.859+179.366C354.433+183.352+353.531+185.989+352.916+188.586C352.313+191.192+352.569+194.033+352.644+195.013C352.729+195.986+353.3+195.633+353.3+195.633C353.3+195.633+359.21+191.137+362.426+187.714C365.92+184.026+369.007+177.458+370.225+177.403C371.034+177.363+371.425+179.122+371.235+179.92C370.456+183.335+370.211+183.765+369.052+186.012C367.695+188.624+366.466+189.786+364.615+192.165C362.643+194.675+361.7+195.641+360.127+198.96C357.857+203.739+359.179+207.427+359.179+207.427C359.179+207.427+359.452+209.672+360.521+209.64C362.307+209.585+366.218+204.908+368.769+201.086C370.647+198.269+371.332+195.029+372.576+193.333C373.684+191.82+374.678+195.788+374.206+198.127C373.651+200.897+372.197+203.386+369.015+207.31C365.9+211.148+366.007+214.797+366.007+214.797C366.007+214.797+365.67+216.468+365.422+220.093C365.173+223.719+366.268+229.214+366.268+229.214C366.268+229.214+367.259+233.805+367.443+237.297C367.625+240.78+367.499+248.747+364.054+254.925C362.687+257.412+359.732+260.85+359.732+260.85C359.732+260.85+357.488+263.045+355.615+264.333C353.755+265.621+349.307+267.604+349.307+267.604C349.307+267.604+346.227+268.625+345.78+268.717C345.347+268.827+345.053+269.184+345.053+269.184L345.465+269.979C345.575+270.215+346.442+272.225+346.442+272.225C346.442+272.225+347.371+275.089+347.717+277.359C348.064+279.611+347.66+280.127+347.311+281.87C346.98+283.525+346.212+282.758+346.018+286.021C345.844+288.901+347.236+290.338+346.98+293.563C346.868+294.973+345.176+291.8+344.367+290.438C342.633+287.471+343.053+282.958+343.012+281.838C342.964+280.717+342.881+279.484+342.441+278.04C341.886+276.217+341.11+274.772+340.197+273.66C339.288+272.547+338.326+271.918+337.995+272.021C337.682+272.125+337.664+272.719+337.647+273.017C337.633+273.315+338.27+274.382+338.427+274.619C338.568+274.848+339.72+276.831+339.72+276.831C339.72+276.831+340.223+278.346+340.437+281.307C340.634+284.274+339.672+287.905+339.672+287.905C339.672+287.905+338.427+292.034+337.105+294.442C335.64+297.118+332.403+300.76+332.403+300.76C332.403+300.76+330.085+302.777+328.347+306.089C326.607+309.402+328.099+310.853+327.453+311.259C326.793+311.694+325.418+309.361+325.045+307.777C324.704+306.316+324.885+305.628+325.5+303.971C326.103+302.394+327.503+300.11+327.503+300.11L329.606+296.736C329.606+296.736+332.1+292.175+332.885+288.879C333.681+285.575+332.785+281.917+332.785+281.917C332.785+281.917+332.671+280.709+331.808+280.754C330.933+280.801+330.302+281.542+329.953+282.411C329.226+284.225+330.251+283.901+329.157+286.917C328.285+289.294+328.064+288.979+327.606+290.387C327.069+292.081+326.771+293.804+326.806+294.868C326.845+295.919+326.235+295.478+326.235+295.478C326.235+295.478+325.184+293.595+325.184+291.266C325.184+289.993+325.232+289.282+325.393+288.015C325.631+285.981+326.5+282.869+326.5+282.869C326.5+282.869+327.449+279.799+327.244+276.983C327.036+274.172+325.993+273.645+325.993+273.645C325.993+273.645+325.727+273.259+324.57+273.329C323.427+273.4+323.473+275.354+323.473+275.354C323.473+275.354+323.128+278.133+322.674+279.86C321.406+284.646+319.733+287.148+316.733+291.174C314.035+294.816+310.356+298.011+308.527+299.518C306.698+301.032+301.064+304.926+301.064+304.926L294.472+309.085C294.472+309.085+291.857+311.501+290.646+314.381C289.431+317.253+289.506+319.506+290.2+322.151C290.896+324.788+291.913+326.028+292.435+326.75C292.964+327.48+293.985+328.782+294.312+330.29C294.517+331.233+294.368+331.805+294.428+332.768C294.484+333.598+294.602+334.072+294.585+334.894C294.552+336.223+294.808+337.168+294.023+338.252C293.426+339.083+291.835+339.792+291.835+339.792C291.835+339.792+290.054+340.546+288.987+341.158C277.759+347.585+273.768+351.737+267.448+358.901C265.428+361.177+266.912+361.042+264.75+363.751C263.467+365.368+260.461+365.361+259.369+367.298C257.866+369.925+262.789+372.524+257.095+374.849C249.781+377.846+237.168+375.704+236.922+374.769C236.235+372.177+239.383+369.228+240.49+368.067C245.629+362.745+250.216+362.614+251.889+358.218C252.245+357.275+252.116+356.466+256.186+353.609C259.059+351.593+270.522+343.423+275.522+337.962C277.229+336.102+278.719+334.852+279.465+332.827C280.211+330.795+278.719+329.506+278.719+329.506L276.659+326.328L272.724+319.657C272.724+319.657+271.076+316.116+270.16+314.069C269.254+312.028+267.524+306.496+267.524+306.496C267.524+306.496+266.25+301.56+266.045+298.336C265.654+292.529+266.498+289.152+268.105+283.541C270.193+276.219+274.928+273.166+276.817+265.939C277.366+263.843+277.478+260.241+276.363+260.416C275.286+260.59+275.193+263.445+274.399+265.341C271.351+272.515+267.326+275.662+265.116+283.103C263.633+288.126+263.039+291.114+263.053+296.336C263.053+299.316+262.938+298.766+263.749+303.947C264.048+305.86+264.562+306.875+265.155+308.733C265.571+310.053+266.697+312.514+266.697+312.514C266.697+312.514+268.288+315.812+268.817+318.11C268.999+318.884+269.198+319.343+269.148+320.135C269.049+321.509+269.291+321.807+268.594+323.045C267.723+324.577+268.263+325.486+265.478+326.057C263.039+326.545+257.995+325.016+257.995+325.016C257.995+325.016+237.296+319.06+224.085+320.77C221.465+321.106+220.064+322.011+217.418+321.961C215.038+321.928+213.808+320.156+211.422+320.833C210.926+320.975+210.773+321.297+210.346+321.571C206.834+323.886+209.517+327.731+200.296+325.73C194.634+324.498+187.775+321.227+188.969+319.155C190.555+316.416+192.691+315.968+197.163+314.229C201.944+312.377+209.124+312.9+210.533+312.8C212.264+312.692+214.756+311.539+217.836+311.487C223.17+311.402+224.125+311.999+224.125+311.999L233.199+312.753L250.539+312.973C250.539+312.973+253.64+312.737+254.891+312.516C256.129+312.288+257.117+309.972+257.788+308.867C258.456+307.769+257.77+306.138+257.77+306.138L257.244+305.375L255.601+302.849L252.543+297.977L249.161+291.588C249.161+291.588+246.949+287.122+245.762+284.196C244.589+281.29+243.91+279.652+243.125+276.637C242.309+273.529+241.821+271.01+241.717+268.533C241.583+264.962+241.347+262.161+242.398+259.241"/>
<path opacity="1" fill="#ffffff" fill-rule="evenodd" d="M355.049+253.308C358.683+248.858+359.041+244.746+359.256+238.922C359.424+234.699+357.732+228.187+357.732+228.187L357.5+227.716C357.5+227.716+356.861+226.932+356.47+227.968C356.531+228.887+356.658+229.624+356.658+229.624L356.873+238.012C356.873+238.012+356.591+242.236+355.079+246.592C352.518+253.937+345.728+257.225+344.735+259.853C343.057+264.264+350.677+258.653+355.049+253.308M316.76+266.88C316.76+266.88+315.261+267.278+315.236+268.678C315.198+270.079+315.597+271.299+315.567+272.976C315.525+275.11+313.439+277.609+314.778+278.405C317.089+279.787+319.066+270.039+318.365+268.597C317.662+267.156+316.98+266.863+316.76+266.88M290.987+334.461C290.987+334.461+290.565+334.242+289.731+334.539C288.904+334.831+288.952+335.648+288.952+335.648C288.952+335.648+288.792+336.512+289.463+336.613C290.135+336.701+291.244+335.162+291.236+334.976C291.222+334.802+290.987+334.461+290.987+334.461M266.761+350.77C266.761+350.77+266.5+351.013+266.724+351.184C266.941+351.342+267.247+351.124+267.247+351.124C267.247+351.124+271.438+348.03+273.913+345.843C276.543+343.509+280.307+339.501+280.307+339.501C280.307+339.501+280.564+339.187+280.269+338.928C279.991+338.676+279.252+339.07+278.663+339.335C278.141+339.587+277.836+339.874+277.455+340.183C277.064+340.49+275.85+341.687+275.85+341.687L272.604+344.676L270.586+346.474L268.606+348.271L267.766+349.173C267.766+349.173+267.545+349.515+267.495+349.603C267.439+349.691+267.216+349.964+267.216+349.964C267.216+349.964+266.924+350.24+266.924+350.31C266.924+350.381+266.825+350.475+266.817+350.562C266.817+350.653+266.761+350.77+266.761+350.77M259.512+355.275C259.512+355.275+259.05+354.922+258.346+355.275C257.631+355.62+256.872+356.554+256.811+356.659C256.753+356.761+256.353+357.269+256.623+357.7C256.888+358.132+257.796+357.497+257.923+357.473C258.053+357.456+259.238+356.583+259.238+356.583C259.238+356.583+259.923+356.177+259.512+355.275M245.652+368.584C245.652+368.584+245.069+367.526+244.291+367.965C243.5+368.396+243.085+368.546+242.374+369.471C242.254+369.646+241.485+370.585+241.339+370.821C241.203+371.065+240.45+372.438+241.994+372.522C244.673+372.689+242.925+371.049+243.842+370.418C244.587+369.926+245.979+370.049+245.995+369.53C246.016+369.024+245.652+368.584+245.652+368.584M198.187+315.463C198.187+315.463+196.572+315.825+196.456+316.365C196.336+316.904+197.396+317.431+197.565+317.455C197.743+317.488+198.116+317.88+199.176+317.197C200.236+316.514+200.195+315.929+200.195+315.929C200.195+315.929+200.821+315.243+198.187+315.463M224.299+314.655C224.299+314.655+224.283+314.098+223.141+314.161C221.994+314.222+221.741+314.426+221.717+314.584C221.682+314.757+221.767+315.032+222.801+315.11C223.845+315.189+224.266+315.103+224.299+314.655M248.968+315.339C246.897+315.314+247.561+315.377+246.281+315.441C243.958+315.558+242.691+315.467+240.405+315.325C237.197+315.132+232.227+314.36+232.227+314.36C232.227+314.36+231.601+314.235+231.354+314.604C231.12+314.998+231.96+315.804+232.713+316.032C236.773+317.231+236.986+317.012+239.766+317.061C241.31+317.085+242.176+316.937+243.707+316.841C245.65+316.714+246.564+316.998+248.675+316.463C249.23+316.327+249.769+315.346+248.968+315.339M262.886+311.413C262.886+311.413+262.467+310.965+261.614+311.357C260.754+311.756+260.24+312.645+260.24+312.645C260.24+312.645+259.841+313.235+260.687+313.14C261.536+313.045+262.271+312.698+262.487+312.575C262.702+312.468+263.316+311.908+262.886+311.413M250.774+153.257C250.774+153.257+256.662+148.029+260.854+141.139C263.355+137.035+264.442+127.469+262.296+129.863C261.324+130.938+260.161+135.914+258.305+139.578C255.661+144.803+250.007+152.213+250.007+152.213C250.007+152.213+248.79+154.686+250.774+153.257M227.311+166.497C227.311+166.497+226.686+166.944+226.964+167.698C227.255+168.451+228.468+167.877+228.468+167.877C228.468+167.877+231.163+166.912+234.01+166.801C236.871+166.691+240.823+167.499+240.823+167.499C240.823+167.499+242.706+167.995+243.025+168.105C243.339+168.213+244.367+168.693+244.529+168.75C244.698+168.805+245.664+169.266+246.213+168.795C246.777+168.326+242.789+164.904+238.728+164.385C231.972+163.513+227.52+166.26+227.52+166.26L227.311+166.497ZM199.442+189.074C199.931+189.45+202.195+185.377+204.088+182.804C205.47+180.905+207.996+177.742+207.996+177.742C207.996+177.742+209.122+176.289+207.202+177.106C206.411+177.436+204.266+178.981+202.756+181.83C201.466+184.249+198.957+188.681+199.442+189.074M183.821+171.346C183.821+171.346+183.337+172.908+185.292+174.893C187.25+176.871+187.754+178.511+189.006+177.327C189.353+177.014+187.785+174.33+186.985+173.592C186.505+173.158+186.041+172.707+185.594+172.242L185.094+171.85L184.436+171.512L184.072+171.371C184.068+171.371+183.957+171.276+183.821+171.346M177.494+156.201C177.494+156.201+175.382+156.578+174.855+157.544C174.333+158.515+177.29+157.928+177.29+157.928C177.29+157.928+179.258+158.036+179.301+157.323C179.352+156.609+179.047+156.521+177.494+156.201M143.89+208.976C142.823+208.67+142.636+210.688+142.5+211.331C142.367+211.982+142.976+213.292+143.22+213.277C143.476+213.27+144.335+211.998+144.384+211.37C144.432+210.742+144.851+209.251+143.89+208.976M178.785+248.279C178.785+248.279+176.859+246.835+176.563+247.41C176.278+247.972+178.156+250.526+178.156+250.526C178.156+250.526+178.723+251.355+179.613+250.973C180.495+250.588+180.176+249.669+180.176+249.669C180.176+249.669+179.582+248.475+178.785+248.279M164.224+205.759C164.224+205.759+163.735+205.649+163.546+206.205C163.368+206.762+163.389+207.69+163.26+208.787C163.147+209.658+163.497+211.966+163.497+211.966C163.497+211.966+163.683+213.787+164.064+214.901C164.482+216.086+165.601+217.774+165.601+217.774C165.601+217.774+166.023+218.652+166.532+218.613C167.041+218.566+166.925+217.985+166.925+217.985C166.925+217.985+165.309+211.903+165.251+211.283C165.057+209.266+165.073+206.795+165.073+206.795L165.057+206.417C165.057+206.417+165.04+205.784+164.224+205.759M166.753+187.206C166.753+187.206+165.855+187.034+165.04+188.665C164.217+190.306+164.386+190.965+164.457+191.043C164.522+191.122+165.184+191.098+166.228+189.583C167.259+188.075+167.032+187.511+167.032+187.511C167.032+187.511+166.974+187.206+166.753+187.206M191.222+204.025C191.222+204.025+192.308+205.54+190.24+205.194C188.178+204.841+183.842+201.607+182.088+200.737C180.345+199.866+177.483+199.576+178.689+198.57C178.9+198.392+178.954+198.226+179.311+198.21C179.667+198.194+180.842+198.641+180.92+198.674C180.987+198.712+184.037+199.898+184.15+199.937C184.262+199.984+185.965+200.675+187.185+201.351C188.407+202.033+190.382+203.343+190.382+203.343L191.222+204.025ZM248.29+250.578C248.85+252.265+241.794+247.047+238.013+244.287C227.99+236.981+215.721+221.991+217.253+220.672C218.527+219.574+223.554+226.44+230.924+233.998C238.792+242.063+247.959+249.58+248.29+250.578M277.747+243.41C275.57+245.624+274.792+248.459+276.048+250.576C277.292+252.631+277.672+247.571+279.043+246.063C280.214+244.777+280.933+244.971+282.886+243.669C286.202+241.452+280.519+240.597+277.747+243.41M265.203+196.114C263.715+195.878+263.763+198.037+263.976+199.582C264.971+206.457+268.225+211.755+272.573+216.753C275.222+219.781+282.478+225.197+283.331+224.333C283.637+224.019+276.416+218.746+271.829+211.956C268.575+207.145+266.828+203.057+266.428+199.086C266.377+198.592+266.502+196.311+265.203+196.114M237.124+94.1782C233.849+95.8656+228.176+97.3405+228.176+97.3405C228.176+97.3405+227.915+97.8661+228.644+97.811C233.501+97.4506+235.351+96.8617+237.948+95.7858C240.53+94.7193+242.423+91.7756+242.423+91.7756C242.423+91.7756+243.467+89.9625+241.508+91.462C240.912+91.9187+238.912+93.2457+237.124+94.1782M276.581+82.3603C276.581+82.3603+275.47+82.1241+274.724+82.5654C273.982+83.0117+274.195+83.3737+274.195+83.3737C274.195+83.3737+275.339+84.2216+276.166+84.3475C276.994+84.4646+278.767+85.1954+278.685+84.6301C278.618+84.0579+277.623+83.0135+277.292+82.7309C276.944+82.4464+276.581+82.3603+276.581+82.3603M258.006+114.655C258.201+115.024+261.52+114.169+262.787+113.493C263.798+112.959+264.179+111.179+264.179+111.179C264.179+111.179+264.46+109.444+264.03+110.11C262.129+113.038+257.821+114.277+258.006+114.655M257.899+106.587C259.238+104.162+254.219+109.122+251.664+110.41C250.103+111.194+247.57+112.223+247.57+112.223C247.57+112.223+246.899+113.016+247.835+112.952C248.776+112.881+251.165+113.659+253.081+112.23C253.533+111.901+255.556+109.122+255.556+109.122C255.556+109.122+257.254+107.756+257.899+106.587M257.124+116.961C257.221+117.361+262.86+117.22+264.268+116.835C265.368+116.53+265.966+114.661+265.966+114.661C265.966+114.661+266.645+113.038+266.076+113.595C263.529+116.051+257.031+116.554+257.124+116.961M166.844+165.75C166.844+165.75+165.988+165.461+164.928+166.974C163.877+168.473+159.148+175.269+159.992+176.281C160.985+177.467+165.081+170.199+166.327+168.834C167.581+167.475+167.08+166.079+167.08+166.079C167.08+166.079+167.065+165.775+166.844+165.75M269.891+288.593C269.394+290.854+270.007+295.464+270.818+296.377C272.824+298.669+271.596+292.799+271.877+290.742C272.119+288.811+272.384+288.153+273.367+286.097C275.157+282.407+270.949+283.774+269.891+288.593M252.641+91.7377C252.641+91.7377+251.081+91.7704+249.86+92.4047C248.639+93.0492+248.315+93.9351+248.315+93.9351C248.315+93.9351+248.072+94.5797+248.24+94.9399C248.598+95.7262+250.274+94.54+251.461+94.933C252.421+95.2553+252.878+95.5134+253.598+96.3444C254.236+97.0754+255.362+98.111+256.066+97.5221C256.77+96.9342+256.517+95.4656+256.517+95.4656C256.517+95.4656+255.684+93.063+254.6+92.3736C253.514+91.6912+252.641+91.7377+252.641+91.7377M226.728+108.666C226.728+108.666+225.861+108.8+226.066+109.796C226.273+110.794+226.838+110.636+226.838+110.636C226.838+110.636+228.644+109.907+228.524+108.877C228.416+107.835+226.728+108.666+226.728+108.666M214.074+103.291C214.074+103.291+213.127+103.323+212.463+104.436C211.797+105.55+211.412+106.697+211.412+106.697C211.412+106.697+211.093+108.164+211.652+108.619C212.212+109.083+212.812+107.669+213.611+107.136C214.094+106.808+214.389+106.651+214.881+106.328C215.562+105.883+216.661+106.454+216.58+105.152C216.493+103.848+215.027+103.228+214.074+103.291M254.955+89.3369C254.955+89.3369+252.802+89.0474+252.885+89.8315C252.957+90.5536+254.056+90.1211+254.76+90.4209C255.448+90.7036+255.886+90.8208+256.435+91.3068C256.839+91.6446+256.789+92.3116+257.286+92.3185C257.972+92.3271+257.826+92.0669+257.826+92.0669C257.826+92.0669+257.211+90.3089+256.402+89.7988C255.602+89.3058+254.955+89.3369+254.955+89.3369M278.983+97.5615C278.667+98.6677+278.479+99.0603+278.479+99.0603C278.479+99.0603+277.872+101.313+280.283+100.481C282.683+99.6326+281.454+99.9949+283.171+99.2025C284.886+98.4091+284.83+98.842+286.088+98.8952C286.516+98.9108+286.785+98.9346+287.429+98.809C287.967+98.7072+287.743+98.089+286.535+97.7817C285.234+97.4524+283.618+97.5386+281.766+97.5148C280.687+97.5065+279.296+96.4636+278.983+97.5615M280.041+89.2111C280.041+89.2111+278.934+88.9836+278.187+89.4231C277.434+89.8711+277.658+90.2228+277.658+90.2228C277.658+90.2228+278.808+91.0793+279.629+91.1965C280.456+91.3293+282.23+92.0514+282.162+91.4791C282.08+90.907+281.086+89.8711+280.757+89.5799C280.547+89.4119+280.304+89.2863+280.041+89.2111M284.282+104.876C284.282+104.876+283.097+104.657+282.293+105.087C281.483+105.512+281.722+105.84+281.722+105.84C281.722+105.84+282.958+106.64+283.835+106.76C284.712+106.87+286.616+107.552+286.541+107.011C286.467+106.477+285.408+105.496+285.043+105.22C284.681+104.953+284.282+104.876+284.282+104.876M284.63+110.565C284.63+110.565+283.378+110.306+282.528+110.793C281.682+111.27+281.938+111.663+281.938+111.663C281.938+111.663+283.239+112.581+284.166+112.722C285.106+112.855+287.1+113.632+287.014+113.012C286.932+112.4+285.825+111.27+285.441+110.956C285.06+110.653+284.63+110.565+284.63+110.565M285.203+116.106C285.203+116.106+283.842+115.816+282.925+116.357C282.006+116.907+282.28+117.338+282.28+117.338C282.28+117.338+283.693+118.381+284.696+118.531C285.71+118.679+287.878+119.573+287.793+118.884C287.704+118.186+286.485+116.907+286.072+116.554C285.658+116.208+285.203+116.106+285.203+116.106M285.06+122.957C285.06+122.957+283.711+122.667+282.784+123.216C281.864+123.757+282.143+124.196+282.143+124.196C282.143+124.196+283.554+125.232+284.563+125.382C285.575+125.539+287.76+126.424+287.659+125.726C287.567+125.028+286.351+123.757+285.937+123.403C285.684+123.193+285.385+123.041+285.06+122.957M284.077+136.306C284.077+136.306+282.716+136.017+281.797+136.565C280.88+137.106+281.152+137.545+281.152+137.545C281.152+137.545+282.559+138.59+283.568+138.739C284.58+138.896+286.765+139.774+286.665+139.084C286.576+138.386+285.358+137.106+284.942+136.751C284.532+136.408+284.077+136.306+284.077+136.306M284.992+129.62C284.992+129.62+283.43+129.29+282.36+129.918C281.301+130.545+281.622+131.049+281.622+131.049C281.622+131.049+283.255+132.257+284.413+132.429C285.583+132.602+288.107+133.63+287.99+132.829C287.89+132.02+286.485+130.545+286.005+130.143C285.524+129.737+284.992+129.62+284.992+129.62M283.404+142.333C283.404+142.333+282.293+142.09+281.533+142.545C280.769+142.992+281.003+143.354+281.003+143.354C281.003+143.354+282.162+144.211+283+144.335C283.827+144.46+285.615+145.198+285.539+144.617C285.464+144.043+284.462+142.992+284.126+142.702C283.784+142.411+283.404+142.333+283.404+142.333M282.353+148.125C282.353+148.125+281.433+147.928+280.804+148.305C280.173+148.674+280.356+148.972+280.356+148.972C280.356+148.972+281.324+149.688+282.009+149.789C282.7+149.891+284.186+150.496+284.123+150.025C284.065+149.546+283.237+148.676+282.952+148.433C282.778+148.29+282.574+148.184+282.353+148.125M281.053+153.399C281.053+153.399+280.214+153.217+279.643+153.556C279.081+153.884+279.245+154.16+279.245+154.16C279.245+154.16+280.109+154.805+280.736+154.891C281.358+154.993+282.7+155.534+282.651+155.109C282.592+154.679+281.845+153.886+281.589+153.681C281.334+153.46+281.053+153.399+281.053+153.399M279.729+157.723C279.729+157.723+278.883+157.544+278.32+157.871C277.757+158.209+277.921+158.483+277.921+158.483C277.921+158.483+278.792+159.119+279.412+159.211C280.041+159.313+281.376+159.856+281.316+159.423C281.26+158.999+280.515+158.207+280.258+157.995C280.008+157.786+279.729+157.723+279.729+157.723M278.138+162.738C278.138+162.738+277.459+162.589+277.012+162.864C276.546+163.14+276.688+163.358+276.688+163.358C276.688+163.358+277.392+163.868+277.889+163.954C278.392+164.025+279.48+164.465+279.431+164.118C279.381+163.774+278.777+163.138+278.566+162.965C278.444+162.859+278.297+162.781+278.138+162.738M276.234+167.438C276.234+167.438+275.655+167.32+275.264+167.548C274.866+167.775+274.984+167.972+274.984+167.972C274.984+167.972+275.588+168.411+276.017+168.475C276.447+168.546+277.385+168.924+277.352+168.624C277.31+168.334+276.781+167.775+276.613+167.628C276.504+167.537+276.374+167.473+276.234+167.438M274.269+171.897C274.269+171.897+273.684+171.779+273.3+172.014C272.895+172.241+273.021+172.429+273.021+172.429C273.021+172.429+273.635+172.877+274.064+172.939C274.493+173.01+275.421+173.394+275.39+173.089C275.341+172.791+274.823+172.241+274.644+172.091C274.466+171.941+274.269+171.897+274.269+171.897M146.917+194.6C146.917+194.6+145.934+196.404+146.416+197.394C146.902+198.382+148.226+195.815+148.226+195.815C148.226+195.815+149.596+193.249+149.037+192.778C148.47+192.3+148.146+193.635+146.917+194.6"/>
<path d="M221.588+353.446C221.588+353.446+220.852+352.546+220.155+353.201C219.458+353.862+218.553+354.913+216.942+354.812C215.324+354.697+214.629+354.458+213.717+354.089C212.819+353.712+211.557+353.148+211.557+353.148C211.557+353.148+208.269+351.948+205.48+351.885C202.697+351.815+198.144+352.916+195.939+355.181C193.733+357.434+193.173+359.781+193.173+359.781C193.173+359.781+192.437+363.903+193.701+365.783C194.963+367.683+196.338+369.714+199.398+371.495C202.47+373.275+203.807+373.935+203.807+373.935L209.134+376.259L214.06+378.018C214.06+378.018+221.177+380.035+222.041+385.137C222.903+390.239+219.673+396.837+209.848+397.444C200.18+398.042+195.472+393.592+193.967+390.741C192.463+387.876+193.328+385.46+193.328+385.46L193.733+384.676L194.114+384.497C194.114+384.497+195.618+385.462+197.091+385.28C198.56+385.1+201.264+383.42+200.704+380.681C200.137+377.934+197.542+377.331+196.294+377.431C195.055+377.536+189.517+378.892+189.409+386.525C189.296+394.155+196.634+398.219+196.634+398.219C196.634+398.219+201.829+401.285+207.696+401.044C213.566+400.792+218.424+398.58+218.424+398.58C218.424+398.58+227.115+394.482+227.346+385.529C227.566+376.584+221.587+373.434+221.587+373.434C221.587+373.434+219.442+372.014+217.484+371.152C215.257+370.167+213.038+369.169+210.826+368.155L206.045+366.09L203.146+364.56L201.522+363.524C201.522+363.524+197.652+360.634+199.717+357.495C201.788+354.358+207.775+355.532+207.775+355.532C207.775+355.532+212.403+356.458+216.015+358.922C219.63+361.38+221.741+364.339+221.741+364.339L223.24+366.665L223.424+366.986L224.709+366.563C224.709+366.563+222.712+361.283+222.332+359.067C221.961+356.861+221.588+353.446+221.588+353.446M278.883+383.639C278.883+383.639+280.176+384.995+281.895+384.995C283.635+384.995+286.101+383.851+286.068+380.89C286.036+377.932+282.875+377.139+282.875+377.139C282.875+377.139+278.094+376.073+275.768+380.68C273.435+385.278+274.71+389.271+274.71+389.271C274.71+389.271+275.804+395.48+282.726+399.152C289.647+402.821+297.068+400.117+297.068+400.117C297.068+400.117+302.631+398.364+307.451+393.227C312.27+388.094+314.565+381.994+314.565+381.994L316.252+378.002L318.284+378.039C318.284+378.039+321.115+378.29+323.099+376.753C325.107+375.212+326.345+373.114+326.345+373.114L326.605+372.477L325.32+371.912C325.32+371.912+323.863+373.725+321.824+373.906C319.797+374.079+317.687+373.757+317.687+373.757L319.641+368.796C319.641+368.796+321.899+364.481+322.546+363.481C323.187+362.487+325.818+359.277+325.818+359.277C325.818+359.277+331.235+359.246+336.466+358.21C341.701+357.175+344.929+355.928+344.929+355.928L351.405+353.391L352.985+352.575L352.498+351.358C352.498+351.358+346.665+353.321+338.038+354.255C329.429+355.181+324.013+354.185+324.013+354.185L314.223+352.748C314.223+352.748+311.248+352.292+308.956+352.256C306.665+352.222+301.984+353.032+301.984+353.032C301.984+353.032+297.331+354.034+295.228+355.534C293.108+357.034+288.107+360.532+290.41+365.878C292.697+371.23+302.07+368.372+303.395+364.41C303.348+364.446+303.918+363.131+303.918+363.131L304.073+362.416L303.274+362.126L302.333+363.162C302.333+363.162+298.838+365.949+296.125+364.158C293.428+362.377+295.261+359.889+295.528+359.598C295.787+359.318+297.25+357.638+300.753+356.893C304.255+356.149+309.522+357.357+309.522+357.357L315.243+358.354C315.243+358.354+318.404+358.926+318.545+358.926C318.702+358.926+319.72+359.067+319.72+359.067L317.722+361.171C317.722+361.171+314.823+363.808+312.788+367.631C310.76+371.445+309.822+373.437+309.822+373.437L309.624+373.727C309.624+373.727+307.077+374.01+305.461+374.935C303.837+375.863+302.786+377.29+302.786+377.29L302.029+378.577L303.045+379.394C303.045+379.394+304.214+378.145+305.645+377.792C307.077+377.431+308.165+377.972+308.165+377.972C308.165+377.972+306.092+382.816+305.116+384.564C304.139+386.312+302.482+389.525+300.149+391.911C297.823+394.296+296.125+396.375+290.784+397.088C285.441+397.795+281.673+394.546+280.285+392.947C278.885+391.346+278.065+388.914+277.99+387.141C277.906+385.348+278.883+383.639+278.883+383.639" opacity="1" fill-rule="evenodd" fill="#231f20"/>
</g>
</svg>
