<svg xmlns="http://www.w3.org/2000/svg" xmlns:vectornator="http://vectornator.io" viewBox="0 0 510.3 510.3" clip-rule="evenodd" stroke-linecap="round" stroke-linejoin="round"><path d="M284.724 30.49c-124.07 0-224.647 100.579-224.645 224.649v13.028H31.052a3.507 3.507 0 00-3.145 2.157c-.54 1.169-26.506 46.995-27.495 47.714-.989.719 0 1.887.899 1.887h68.291c33.339 110.681 145.228 177.995 258.63 155.596 113.402-22.4 191.295-127.2 180.047-242.245C497.032 118.232 400.317 30.502 284.724 30.49zM124.151 320.289h59.847l-28.847 49.866a178.18 178.18 0 01-31-49.866zm160.577 107.826a172.617 172.617 0 01-121.038-49.331h48.612s139.815-246.212 140.264-247.2c.45-.989 0-1.618-.629-1.618H294.88c-1.168 0-1.258 0-1.617.809-.36.809-78.808 137.122-78.808 137.122H111.927c0-4.314-.449-8.988-.449-13.028.047-70.541 42.903-133.994 108.322-160.384 65.419-26.39 140.307-10.434 189.288 40.33-13.298 23.095-74.943 127.244-83.208 142.43-4.763-11.055-26.959-8.988-38.19-8.988-5.033 8.269-28.214 52.117-28.214 52.117h24.353c11.501 0 12.579 11.865 8.085 19.231-4.494 7.365-22.735 39.538-22.735 39.538h58.859l113.219-197.689a170.735 170.735 0 0116.627 73.685c-.052 95.626-77.534 173.147-173.16 173.246l.004-.27z" fill="#da291c" vectornator:layerName="Layer 1"/></svg>