<svg xmlns="http://www.w3.org/2000/svg" xmlns:vectornator="http://vectornator.io" viewBox="0 0 510.3 510.3" clip-rule="evenodd" stroke-linecap="round" stroke-linejoin="round"><path d="M352.739 148.504c22.284-3.864 44.961-4.521 67.545-4.84 22.547-.112 45.993 2.308 66.082 13.393 18.458 7.578 28.587 30.068 21.834 48.901-8.778 29.073-29.655 52.239-50.87 73.078-53.665 55.241-120.178 95.1-184.103 137.06 10.71-15.625 19.432-32.6 26.054-50.345 5.12-13.955 9.979-28.286 10.579-43.273.806-15.418-2.495-31.812-12.399-44.042-10.035-11.254-24.159-17.988-38.509-21.89-20.727-5.777-42.391-6.415-63.775-6.359-48.6.376-96.75 8.329-144.244 18.064-16.675 3.02-33.088 8.103-50.1 8.778 14.461-4.783 27.216-13.205 40.797-19.864 63.962-32.431 130.176-60.661 198.715-81.932 36.727-11.742 74.41-20.202 112.394-26.729z" fill="#f98e1d" vectornator:layerName="Layer 1"/></svg>