<svg xmlns="http://www.w3.org/2000/svg" xmlns:vectornator="http://vectornator.io" viewBox="0 0 510.3 510.3" clip-rule="evenodd" stroke-linecap="round" stroke-linejoin="round"><defs><linearGradient y1="54.102" id="prefix__a" x1="7.998" y2="13.898" x2="56.002" gradientUnits="userSpaceOnUse" gradientTransform="matrix(7.97344 0 0 -7.97344 0 526.247)"><stop stop-color="#fff" offset="0"/><stop stop-color="#e7e8e6" offset=".1"/><stop stop-color="#cdd0d0" offset=".1"/><stop stop-color="#b5bbbd" offset=".2"/><stop stop-color="#a5acaf" offset=".2"/><stop stop-color="#9ba3a7" offset=".3"/><stop stop-color="#98a0a4" offset=".3"/><stop stop-color="#828a8f" offset=".4"/><stop stop-color="#667075" offset=".5"/><stop stop-color="#535c63" offset=".6"/><stop stop-color="#475158" offset=".7"/><stop stop-color="#434d54" offset=".8"/><stop stop-color="#475157" offset="1"/></linearGradient><linearGradient y1="52.941" id="prefix__b" x1="9.471" y2="15.141" x2="54.471" gradientUnits="userSpaceOnUse" gradientTransform="matrix(7.97344 0 0 -7.97344 0 526.247)"><stop stop-color="#0b1f2a" offset="0"/><stop stop-color="#333f47" offset=".2"/><stop stop-color="#777f84" offset=".5"/><stop stop-color="#81898d" offset=".5"/><stop stop-color="#b3b8b8" offset=".7"/><stop stop-color="#d2d5d3" offset=".8"/><stop stop-color="#dee0dd" offset=".8"/><stop stop-color="#fbfbfb" offset="1"/></linearGradient><linearGradient y1="-160.944" id="prefix__c" x1="1648.74" y2="-221.143" x2="1670.64" gradientUnits="userSpaceOnUse" gradientTransform="matrix(-7.97344 0 0 7.97344 13488.4 1778.13)"><stop stop-color="#e1e3e1" offset="0"/><stop stop-color="#c1c5c4" offset=".1"/><stop stop-color="#9ba1a2" offset=".3"/><stop stop-color="#7d8487" offset=".5"/><stop stop-opacity="0" stop-color="#687074" offset=".7"/><stop stop-opacity="0" stop-color="#5b6469" offset=".8"/><stop stop-opacity="0" stop-color="#576065" offset="1"/></linearGradient><linearGradient y1="57.899" id="prefix__d" x1="18.201" y2="10.101" x2="45.799" gradientUnits="userSpaceOnUse" gradientTransform="matrix(7.97344 0 0 -7.97344 0 526.247)"><stop stop-color="#e1e3e1" offset="0"/><stop stop-color="#c1c5c4" offset=".1"/><stop stop-color="#9ba1a2" offset=".3"/><stop stop-color="#7d8487" offset=".5"/><stop stop-opacity="0" stop-color="#687074" offset=".7"/><stop stop-opacity="0" stop-color="#5b6469" offset=".8"/><stop stop-opacity="0" stop-color="#576065" offset="1"/></linearGradient><linearGradient y1="26.607" id="prefix__e" x1="44.488" y2="23.807" x2="42.788" gradientUnits="userSpaceOnUse" gradientTransform="matrix(7.97344 0 0 -7.97344 0 526.247)"><stop stop-color="#27343c" offset="0"/><stop stop-opacity="0" stop-color="#00111e" offset="1"/></linearGradient><linearGradient y1="36.888" id="prefix__f" x1="39.58" y2="41.388" x2="36.78" gradientUnits="userSpaceOnUse" gradientTransform="matrix(7.97344 0 0 -7.97344 0 526.247)"><stop stop-color="#02131f" offset=".1"/><stop stop-opacity="0" stop-color="#02131f" offset=".9"/></linearGradient><linearGradient y1="29.664" id="prefix__g" x1="31.982" y2="28.464" x2="27.782" gradientUnits="userSpaceOnUse" gradientTransform="matrix(7.97344 0 0 -7.97344 0 526.247)"><stop stop-color="#02131f" offset=".2"/><stop stop-opacity="0" stop-color="#02131f" offset=".9"/></linearGradient><linearGradient y1="24.096" id="prefix__h" x1="20.791" y2="25.596" x2="20.191" gradientUnits="userSpaceOnUse" gradientTransform="matrix(7.97344 0 0 -7.97344 0 526.247)"><stop stop-color="#02131f" offset="0"/><stop stop-color="#02131f" offset=".1"/><stop stop-opacity="0" stop-color="#02131f" offset="1"/></linearGradient><linearGradient y1="48.786" id="prefix__i" x1="35.602" y2="48.386" x2="32.202" gradientUnits="userSpaceOnUse" gradientTransform="matrix(7.97344 0 0 -7.97344 0 526.247)"><stop stop-color="#02131f" offset=".3"/><stop stop-color="#02131f" offset=".3"/><stop stop-opacity="0" stop-color="#02131f" offset=".8"/></linearGradient><linearGradient y1="48.843" id="prefix__j" x1="35.708" y2="48.543" x2="33.407" gradientUnits="userSpaceOnUse" gradientTransform="matrix(7.97344 0 0 -7.97344 0 526.247)"><stop stop-color="#27343c" offset=".4"/><stop stop-opacity="0" stop-color="#3b474e" offset="1"/></linearGradient><linearGradient y1="33.169" id="prefix__k" x1="-.36" y2="17.069" x2="27.54" gradientUnits="userSpaceOnUse" gradientTransform="matrix(7.97344 0 0 -7.97344 0 526.247)"><stop stop-opacity="0" stop-color="#24303a" offset="0"/><stop stop-opacity="0" stop-color="#25323b" offset="0"/><stop stop-color="#27343c" offset=".1"/></linearGradient><linearGradient y1="28.6" id="prefix__l" x1="31.95" y2="33.4" x2="31.95" gradientUnits="userSpaceOnUse" gradientTransform="matrix(7.97344 0 0 -7.97344 0 526.247)"><stop stop-color="#a5abaf" offset=".3"/><stop stop-opacity="0" stop-color="#a5abaf" offset="1"/></linearGradient><linearGradient y1="63.7" id="prefix__m" x1="47.65" y2="2.7" x2="47.65" gradientUnits="userSpaceOnUse" gradientTransform="matrix(7.97344 0 0 -7.97344 0 526.247)"><stop stop-color="#dee0dd" offset="0"/><stop stop-color="#c5c9c7" offset="0"/><stop stop-color="#9ea4a5" offset="0"/><stop stop-color="#82898c" offset="0"/><stop stop-color="#71797d" offset="0"/><stop stop-color="#6b7378" offset="0"/><stop stop-color="#333f47" offset=".2"/><stop stop-color="#27343c" offset=".5"/><stop stop-color="#333f47" offset=".8"/><stop stop-color="#434d54" offset="1"/></linearGradient><linearGradient y1="65.3" id="prefix__n" x1="32" y2="65.3" x2="32.3" gradientUnits="userSpaceOnUse" gradientTransform="matrix(7.97344 0 0 -7.97344 0 526.247)"><stop stop-color="#dee0dd" offset="0"/><stop stop-color="#c5c9c7" offset="0"/><stop stop-color="#9ea4a5" offset="0"/><stop stop-color="#82898c" offset="0"/><stop stop-color="#71797d" offset="0"/><stop stop-color="#6b7378" offset="0"/><stop stop-color="#333f47" offset=".2"/><stop stop-color="#27343c" offset=".5"/><stop stop-color="#333f47" offset=".8"/><stop stop-color="#434d54" offset="1"/></linearGradient><linearGradient y1="57.907" id="prefix__o" x1="57.289" y2="38.107" x2="43.789" gradientUnits="userSpaceOnUse" gradientTransform="matrix(7.97344 0 0 -7.97344 0 526.247)"><stop stop-color="#27343c" offset=".7"/><stop stop-color="#2b373f" offset=".7"/><stop stop-color="#36424a" offset=".7"/><stop stop-color="#49545b" offset=".7"/><stop stop-opacity="0" stop-color="#646d73" offset=".8"/><stop stop-opacity="0" stop-color="#868d92" offset=".8"/><stop stop-opacity="0" stop-color="#b0b5b8" offset=".8"/><stop stop-opacity="0" stop-color="#e1e3e4" offset=".8"/><stop stop-opacity="0" stop-color="#fff" offset=".8"/></linearGradient></defs><g vectornator:layerName="Layer 1"><path d="M504.719 255.15c0 137.94-111.629 249.569-249.569 249.569S5.581 393.09 5.581 255.15 117.21 5.581 255.15 5.581 504.719 117.21 504.719 255.15zM255.15 20.73c-129.967 0-234.42 104.453-234.42 234.42 0 129.967 105.25 234.419 234.42 234.419 129.967 0 234.419-105.249 234.419-234.419 0-129.967-104.452-234.42-234.419-234.42z" fill="url(#prefix__a)"/><path d="M255.15 20.73c-129.967 0-234.42 104.453-234.42 234.42 0 129.967 105.25 234.419 234.42 234.419 129.967 0 234.419-105.249 234.419-234.419 0-129.967-104.452-234.42-234.419-234.42zm0 453.69c-121.196 0-219.27-98.074-219.27-219.27 0-121.196 98.074-219.27 219.27-219.27 121.196 0 219.27 98.074 219.27 219.27 0 121.196-98.074 219.27-219.27 219.27z" fill="url(#prefix__b)"/><path d="M255.15 504.719c137.94 0 249.569-111.629 249.569-249.569S393.09 5.581 255.15 5.581 5.581 117.21 5.581 255.15 117.21 504.719 255.15 504.719zM255.15 0C395.483 0 510.3 114.817 510.3 255.15c0 140.333-114.818 255.15-255.15 255.15S0 395.482 0 255.15 114.817 0 255.15 0z" opacity=".4" fill="url(#prefix__c)"/><path d="M17.542 255.947c0-130.764 106.046-238.405 237.608-238.405s237.608 106.844 237.608 238.405c0 130.765-106.046 236.811-237.608 236.811S17.542 386.712 17.542 255.947zM91.695 91.695c-42.26 42.259-68.572 100.465-68.572 164.252 0 63.788 26.312 121.994 67.774 163.456 42.259 41.462 100.466 67.774 164.253 67.774 63.788 0 121.994-25.515 163.455-67.774 42.26-41.462 67.775-99.668 67.775-163.456 0-63.787-26.313-121.993-67.775-164.252-41.461-42.26-99.667-68.572-163.455-68.572-63.787 0-121.994 26.312-163.456 68.572z" fill="#fff"/><path d="M255.15 475.217c-59.003 0-114.02-23.123-155.482-64.585-41.462-41.462-64.585-96.479-64.585-155.482S58.206 141.13 99.668 99.668c41.462-41.462 96.479-64.585 155.482-64.585s114.02 23.123 155.482 64.585c41.462 41.462 64.585 96.479 64.585 155.482s-23.123 114.02-64.585 155.482c-41.462 41.462-96.479 64.585-155.482 64.585zm0-6.379c56.611 0 110.831-22.326 150.698-62.193 40.664-40.664 62.193-94.086 62.193-150.698 0-56.611-22.326-110.83-62.193-150.698-40.665-40.664-94.087-62.192-150.698-62.192-56.611 0-110.831 22.325-150.698 62.192-40.664 39.07-62.99 93.29-62.99 149.901 0 56.611 22.325 110.831 62.193 150.698 40.664 40.665 94.884 62.99 151.495 62.99z" opacity=".4" fill="url(#prefix__d)"/><path d="M448.905 358.805c-3.987-3.19-157.875-125.183-157.875-125.183L255.15 28.704c-2.392.798-5.581 3.19-7.176 6.38l-25.515 199.335L63.787 356.413s-3.189 3.986-4.784 6.378c-.797 1.595-.797 3.987-.797 6.379l196.147-80.532 196.146 80.532c1.595-3.987 0-7.973-1.594-10.365z" fill="#fff"/><path d="M256.745 261.529l-1.595 36.678 180.2 72.558c6.378 3.189 11.163 1.595 15.947-1.595l-192.16-108.439c-.798-.797-2.392 0-2.392.798z" fill="#565f64"/><path d="M256.745 261.529s10.365 18.339 22.325 31.096c16.745 18.339 39.07 31.097 39.07 31.097l117.21 47.043c6.378 3.189 11.163 1.595 15.947-1.595l-192.16-108.439c-.798-.797-2.392 0-2.392.798z" fill="url(#prefix__e)"/><path d="M450.499 361.994c0-.797-.797-1.595-1.594-3.189L284.652 238.406l-22.326 14.352s1.595.797 2.392 0c2.392-.797 7.176-1.595 11.96 0 3.987 1.595 173.821 110.033 173.821 109.236 0 .797 0 .797 0 0z" fill-opacity=".6" fill="#a4aaae"/><path d="M444.918 354.818l-153.09-121.196-7.176 4.784 164.253 121.196c-.798-1.595-2.393-3.189-3.987-4.784z" fill="#333e46"/><path d="M259.137 249.569l-.798.797s0 1.595 1.595.797c.797-.797 23.92-12.757 31.894-17.541L263.921 42.259c-.798-7.176-3.987-10.365-9.568-12.757l3.189 221.661 1.595-1.594z" fill="#565f64"/><path d="M245.582 42.26v10.365L228.04 228.838c0 2.392.798 4.784 3.19 6.378l10.365 7.974 7.176-194.552.798-15.15c-2.392 1.595-3.19 4.785-3.987 8.771zm-9.568 204.119l-9.568-7.973L64.585 355.615s-4.784 3.19-5.582 6.379l5.582-3.189 169.834-106.844c3.189-1.595 3.987-3.19 1.595-5.582z" fill-opacity=".6" fill="#a4aaae"/><path d="M252.758 261.529c0-.798-.797-1.595-1.595-.798L58.206 369.968c4.784 3.189 9.568 3.986 15.947 1.594l180.2-72.558-1.595-37.475z" fill="#565f64"/><path d="M258.339 250.366l.798-.797-.798.797s0 .797.798.797h.797c.797-.797 23.92-12.757 31.894-17.541l-3.19-23.123-24.717-168.24c0-3.19-.798-5.581-2.392-7.176 0 0 11.96 161.064 11.96 178.605 0 23.123-15.15 36.678-15.15 36.678z" fill="url(#prefix__f)"/><path d="M252.758 261.529c0-.798-.797-1.595-1.595-.798L58.206 369.968c4.784 3.189 9.568 3.986 15.947 1.594l180.2-72.558-1.595-37.475z" fill="url(#prefix__g)"/><path d="M74.153 370.765l180.2-72.558-1.595-35.084c-3.189 9.569-8.771 19.934-23.92 27.907-11.163 6.379-118.007 59.004-156.28 77.343-2.392 1.594-5.581 2.392-7.176 3.189 3.19 1.595 5.582.798 8.771-.797z" opacity=".8" fill="url(#prefix__h)"/><path d="M259.137 249.569l-.798.797s0 1.595 1.595.797c.797-.797 23.92-12.757 31.894-17.541L263.921 42.259c-.798-7.176-3.987-10.365-9.568-12.757l3.189 221.661 1.595-1.594z" fill="url(#prefix__i)"/><path d="M259.137 249.569l-.798.797s0 1.595 1.595.797c.797-.797 23.92-12.757 31.894-17.541L263.921 42.259c-.798-7.176-3.987-10.365-9.568-12.757l3.189 221.661 1.595-1.594z" fill="url(#prefix__j)"/><path d="M40.664 354.021c-5.58-12.758-37.475-74.951-2.392-194.552H24.718c-7.176 23.92-12.758 38.272-15.947 59.801 0 0-1.595 7.973-2.392 16.744-.798 8.771-.798 13.555-.798 19.136 0 47.841 11.96 75.748 11.96 75.748 12.758 39.867 35.084 75.747 65.383 102.857 26.312 23.123 66.977 40.665 100.465 47.043-5.581-.797-101.263-41.462-142.725-126.777z" fill="url(#prefix__k)"/><path d="M258.339 259.934h-7.176c.798 0 1.595 0 1.595.797l1.595 36.678h.797l1.595-36.678c0-.797.797-1.594 1.594-.797z" fill="url(#prefix__l)"/><path d="M334.884 18.339C418.605 50.233 497.542 137.94 497.542 248.77c.001 133.954-106.844 243.19-242.392 243.19v12.758c135.548 0 249.569-111.629 249.569-249.569 0-110.033-70.167-202.525-169.835-236.811z" fill="url(#prefix__m)"/><path d="M257.542 5.581h-2.392 2.392z" fill="url(#prefix__n)"/><path d="M468.838 161.063C413.024 32.691 287.044 25.515 279.868 24.718h-.798c96.479 17.541 157.874 80.531 179.403 146.711v.797c9.568 25.515 14.352 52.625 15.149 82.127.798 27.907-5.581 59.003-17.541 87.707-.798 3.987-1.595 8.771-2.392 8.771h12.757c38.273-71.761 21.528-144.319 2.392-189.768z" fill="url(#prefix__o)"/><path d="M17.542 255.947c0-130.764 106.046-238.405 237.608-238.405s237.608 106.844 237.608 238.405c0 130.765-106.046 236.811-237.608 236.811S17.542 386.712 17.542 255.947zM91.695 91.695c-42.26 42.259-68.572 100.465-68.572 164.252 0 63.788 26.312 121.994 67.774 163.456 42.259 41.462 100.466 67.774 164.253 67.774 63.788 0 121.994-25.515 163.455-67.774 42.26-41.462 67.775-99.668 67.775-163.456 0-63.787-26.313-121.993-67.775-164.252-41.461-42.26-99.667-68.572-163.455-68.572-63.787 0-121.994 26.312-163.456 68.572z" fill="#fbfbfb"/><path d="M62.99 357.21L225.648 240c8.771 4.785 23.123 11.163 24.718 11.163 1.595.798 1.595-.797 1.595-.797l-19.934-16.744c-2.392-1.595-3.189-3.987-3.189-6.379l19.136-192.16c-.797.797-.797 2.392-1.595 3.19-.797 1.594-.797 2.391-.797 3.986l-27.907 192.16-153.09 120.399c-.797.797-1.595 1.595-1.595 2.392z" fill="#333f47"/></g></svg>