<svg xmlns="http://www.w3.org/2000/svg" xmlns:vectornator="http://vectornator.io" viewBox="0 0 380.2 220.7" clip-rule="evenodd" stroke-linecap="round" stroke-linejoin="round"><g vectornator:layerName="Untitled"><path d="M118.967 105.853c0-39.803 32.176-71.98 71.979-71.98 39.802 0 71.979 32.177 71.979 71.98 0 39.802-32.177 71.979-71.979 71.979-39.803 0-71.979-32.363-71.979-71.979" fill="#ffd300"/><path d="M133.102 63.075c1.116.557 2.232 1.115 3.534 1.86 5.394 3.72 8.928 6.881 17.111 13.763 2.418 2.418 5.208 6.324 7.254 8.742 4.464 5.58 7.626 9.485 8.184 14.135 1.302 9.299 2.603 14.507 6.137 23.993.372.93 1.86 2.232 2.79 3.348 2.232 2.79 3.162 7.253 7.254 9.671 2.232 1.302 2.604 1.488 3.348 2.046 1.116.93-.744 4.278-6.51 3.534 2.976 1.488 2.604 4.836-1.674 5.022-8.37.372-13.577-4.464-14.693-5.766-.558-.558-2.232 1.674-5.208 2.79-2.976 1.488-7.068 0-10.23.558-2.976.558-6.881 2.418-10.043 2.604-5.58.186-6.324-3.72-6.324-7.068v-1.488c-.558 2.046-2.604 5.58-2.604 5.58-.744 1.674-1.86 3.72-3.906 4.464l-5.951.744c-4.65 2.046-9.3 3.534-14.136 5.208-2.79.558-5.952 0-7.998-1.674-1.673-1.302-2.603-2.976-3.533-4.65-.93-.372-2.232 0-3.348-.372-.93-.186-1.488-.93-2.046-1.488l-4.092-6.882c-.372-.93-.372-2.232 0-3.162.744-1.488 2.418-2.232 4.092-2.232 2.976-.186 6.324-1.116 9.3 0 1.301-1.488 3.347-1.302 5.207-1.674-.744-1.115-1.86-1.673-2.79-2.603-5.393 1.302-11.345.372-16.553-.558-4.836-1.116-8.928 1.674-13.763.93l-1.488 3.161c-2.232 2.418-2.418 6.51-5.766 8.184-2.418.558-4.278 2.232-6.324 3.348-3.72 2.046-8.741 1.116-12.833.372-1.674-.186-2.79 0-4.278.558-1.302.93-2.79 2.418-4.278 3.534-2.418.93-4.464 2.976-7.068 3.162-1.488 0-2.976-.93-4.463-.558-1.86 2.046-2.79 5.393-5.766 6.323-2.976.93-6.696.186-9.672-.558-.93.372-1.488 1.116-2.604.93-2.046-.558-4.091-1.116-5.951-2.232-.744-.743-.93-1.673-1.116-2.417 0-1.302 1.116-2.418 1.674-3.534.186-1.302.186-3.162.744-4.464.93-2.046 2.975-3.348 5.021-4.278.186-1.488 1.116-2.79 2.418-3.534 2.418-1.302 5.022-4.278 8.184-2.604l3.348 2.79c2.976-1.302 2.232-4.278 3.72-6.695.744-1.674 1.674-3.534 3.533-3.534 1.302-.186 2.79.186 4.092 0 1.86-.558 3.906-1.302 5.208-2.79l-.186-1.116c-1.86-3.534-2.418-7.812-2.604-12.09-3.348.372-6.882.93-10.415.186-5.208-.744-10.23-4.835-12.276-10.043-2.232-5.022-1.302-12.09 2.232-16.368 2.79-3.347 5.952-6.323 9.3-8.927-1.116-.372-2.418-.186-3.534-.558-4.836-.744-9.672-5.022-10.788-9.858-.744-3.162 0-6.138 1.488-8.741.558-.558 1.116-1.116 2.046-.744 2.418.93 3.162 2.232 5.394 3.348l1.302.743c6.138 2.046 14.321 2.046 16.74 9.672 1.487 5.952-2.233 10.416-6.51 13.764-3.348 2.417-6.696 5.393-8.37 8.927-.744 2.604-.372 5.208 1.86 7.068 2.232 2.232 6.137 2.232 8.927 1.116 5.208-2.232 10.044-5.58 14.694-9.114 4.464-3.348 9.857-4.65 15.623-4.836 2.604-.558 4.836-1.674 6.882-3.348 3.534-3.347 7.253-6.137 11.717-7.253 2.046-.372 4.092-.558 6.138-.744 1.674-.744 2.79-2.79 4.092-3.72 6.137-5.394 14.321-5.208 20.831-9.486 3.72-2.79 7.812-4.65 12.647-4.463 2.232.186 4.278.557 6.138 1.301l1.488.745zm6.138 63.237c-4.092.186-6.696 1.116-9.486 1.488.186 2.604 1.674 4.836 3.72 7.625 1.116-4.277 4.65-5.951 5.766-9.113m104.713.93c1.86 2.79 2.976 5.58 4.65 8.555 1.674-3.161 3.162-6.137 4.65-7.997-.186-.186-5.022.372-9.3-.558m3.906 13.763c-.186.558-.558.744-1.302.744.558 2.604-1.302 7.44-5.951 7.626-3.162.186-8.37-2.976-11.346-3.162-3.162-.186-8.928 2.232-12.275-2.79-4.464 5.394-9.672 6.882-14.136 6.696-2.604 0-5.394-1.488-1.488-4.836-8.555 2.79-8.555-2.976-7.067-4.092.929-.744 2.045-1.302 5.207-4.464 11.904-12.461 7.44-34.036 20.459-48.358 5.022-5.58 9.114-8.741 19.344-15.995 3.533-2.418 7.067-5.952 10.415-8.37l.186.372v-.186c2.046-1.487 3.906-2.975 6.138-3.533 4.65-.558 8.928.93 12.461 3.347 1.86 1.302 3.348 2.79 4.836 4.65 1.116 1.116 2.79 1.116 4.278 1.674 4.278.744 7.998 2.418 11.532 4.65 2.417 1.488 4.463 4.092 7.439 4.464 3.534.558 6.696 1.674 9.858 3.534 3.72 2.418 7.068 5.393 11.531 6.137 8.928.93 16.368 5.952 23.435 10.974 4.092 2.418 8.928 5.208 13.95 3.534 1.488-.558 2.604-1.86 2.976-3.162.372-3.348-1.674-5.952-3.72-8.37-4.278-5.022-11.718-9.3-10.788-16.553 1.302-5.394 7.254-8.556 11.904-10.044 2.604-.93 5.766-.558 7.997-2.79 1.116-.743 1.674-3.347 3.534-2.417 1.488.93 1.674 2.79 1.86 4.463.744 5.208-.372 10.416-5.208 13.392-2.231 1.488-4.649 2.046-7.253 2.604 3.906 3.162 7.811 7.067 10.043 11.531 1.302 2.604 2.046 4.836 2.232 7.812-.186 5.58-3.534 10.415-8.369 13.205-2.79 1.488-5.952 2.046-9.3 2.046-1.302 0-2.418-.372-3.534-.372.558 2.604.558 6.138 0 9.114-.186 1.488-1.116 3.162-1.116 5.022.744.93 1.86.93 2.79.93 2.418 0 5.394-.186 6.696 2.418 1.116 2.417 1.674 5.207 2.604 7.625.372.372.558 1.302 1.116 1.116 1.674-1.488 3.347-3.534 5.765-2.976 2.232 1.488 4.464 3.162 6.696 4.836.558.558.744 1.302.93 2.232 1.86.744 4.278 2.046 4.836 4.278.372 1.488.186 2.976.558 4.278.558 1.488 2.046 3.348.93 5.207l-.744.558-7.068 2.232c-.558 0-1.116-.372-1.674-.93-3.72-.186-8.183.93-11.159-1.674-1.302-1.115-2.232-2.417-3.162-3.905-2.232 1.116-5.394 1.86-7.626.372-4.65-3.534-9.3-7.068-15.623-6.882-2.79.558-6.138 1.302-8.928.186-2.604-1.86-5.58-2.79-7.626-5.58-2.975-3.162-2.975-6.882-4.091-10.787-4.092.93-8.556.372-12.648.186-3.348-.186-6.51.372-9.671 1.116-3.906.743-8.184 1.115-12.276.929l-2.046 1.488c.93.186 1.86.186 2.604.93l.744.744c3.348.372 7.254-.186 10.416.558.744.186 1.488.93 1.859 1.674.372.93.372 2.046-.186 2.79-1.673 2.232-2.603 4.836-4.835 6.696-.558.744-2.232-.186-2.418 1.116-.744 3.348-3.906 6.138-7.068 6.882-1.302.186-2.79 0-3.906-.372-3.906-1.302-7.811-2.418-11.717-3.534-1.302-.372-2.418-1.674-3.534-2.418-1.674 0-4.092.558-5.208-.93-.558-.372-1.116-1.674-1.302-2.232-1.302-1.674-2.232-4.65-2.79-7.254" fill-rule="evenodd" fill="#ffd300"/><path d="M131.242 86.51c1.116 2.79 1.116 6.51.372 9.485-.186.186-.372.186-.558 0-.558-2.604-1.116-5.208-2.046-7.812-.558-1.488-2.418-2.79-1.674-4.463.372-.372 1.116-.372 1.674-.186.93.93 1.488 1.86 2.232 2.975m29.759 26.039c2.046 2.418 3.534 5.022 2.79 8.184-.372.558-.186 1.674-1.116 1.86-.372.186-.744-.186-.744-.558-.186-1.674-.186-3.534-1.116-4.836-1.116-1.116-2.418-3.348-4.278-3.348-1.302.372-2.232 1.86-2.976 2.79 0 .186-.186.186-.372 0-.744-1.86.744-3.348 1.302-4.836 1.116-1.116.93-4.277 3.348-3.347 1.674 1.116 2.046 2.975 3.162 4.091m-3.906 22.133c.186 1.116.186 2.79-.93 3.534-1.116.372-2.604.558-3.906.372-.372-.186-.744-.372-.558-.744.558-1.674 2.232-3.533 4.092-3.905.372 0 1.116 0 1.302.743M21.321 66.794c4.464 1.116 9.3 1.116 12.647 4.65 1.86 2.232 2.046 6.138.558 8.37-2.604 4.464-7.812 6.696-10.973 10.601-3.162 2.604-4.278 6.696-3.348 10.788 1.116 3.534 4.65 5.952 8.184 6.138 5.58.186 9.671-2.604 14.135-5.208 4.464-3.162 8.556-7.254 13.577-8.556 3.348-1.116 7.068-.558 10.416-1.86 3.534-.744 6.324-3.72 9.114-6.323 3.161-2.604 6.881-4.092 10.973-3.906 3.72.558 5.766-2.79 8.37-5.022 4.277-3.906 9.857-4.278 14.879-6.51 3.534-1.116 6.324-3.72 9.672-5.394 3.162-1.301 7.439-1.673 10.601-.372 2.046.93 4.278 1.86 6.138 3.348l15.065 12.648c.186.558.744.93 1.116 1.116 4.278 5.207 8.742 10.23 12.276 15.995 1.116 2.046 1.674 4.092 2.232 6.324.744 8.555 2.976 15.995 5.765 23.435.744 1.116 2.232 2.046 2.976 3.162 2.418 3.348 3.906 7.625 7.812 9.857l2.232 1.116c.186.186.186.558 0 .744l-.372.372c-4.65.744-8.184-2.046-10.602-5.394-1.488-2.975-3.534-6.137-6.881-7.439-.186 0-.372.186-.372.186.372 1.116 1.488 1.86 1.86 2.79 1.302 2.046 2.417 4.277 2.975 6.509.744 2.418 3.348 4.092 5.394 5.394l2.976 1.488c.372.186.558.744.186 1.116l-.372.186c-5.022.186-9.486-1.488-13.019-5.208-.744-.93-1.86-1.674-3.162-1.674-2.232 2.046-4.464 3.906-7.44 4.092-3.162-.558-6.51-.558-9.3.558-2.603.93-5.207 2.046-7.997 2.046-1.302 0-2.79-.558-3.348-1.86 0-1.674-1.116-3.534-.186-5.208l1.86-2.79c0-.372-.186-.744-.558-.744-.744-.186-2.046 1.116-2.418-.186.186-2.789 2.976-4.649 4.836-6.509.372-2.232 1.302-4.278 2.976-6.138 0-.186-.186-.558-.558-.558-2.418.372-4.836.93-7.44.93-2.046 1.116-4.65 1.86-7.068 1.116-.558-.372-.372-.93-.186-1.302 2.604-3.534 3.534-7.998 2.79-12.276-.186-.186-.186-.558-.558-.558-.372 0-.372.372-.558.558-.558 4.092-1.86 7.254-4.092 10.788-1.674 1.674-4.277 1.674-6.509 2.232-.558.186-1.116.744-1.116 1.302 0 1.488.93 2.418 1.488 3.72l4.835 8.927c.186 2.418-.929 4.836-1.487 7.068.186.372.558.186.929 0 1.674-1.488 2.79-3.534 3.534-5.766.186-.93-.186-2.046-.558-2.79l-5.021-10.043c.372-.558 1.116-.558 1.674-.744 1.115 0 2.231.558 3.347.93 1.116 2.976 2.418 6.138 4.464 8.741.372 1.674.93 3.906-.186 5.208a41.5 41.5 0 01-3.72 6.138c-1.302 1.302-3.162 1.116-5.021 1.302h-.558c-4.464 2.418-9.114 3.906-13.95 5.394-2.046.93-4.464.186-6.138-1.116-1.674-1.302-2.418-3.162-3.533-4.836-1.302-1.674-3.348-.186-4.836-1.116-1.302-2.046-2.604-4.092-3.72-6.324 0-.558 0-1.116.558-1.488 1.674-.558 3.534-.558 5.394-.744 1.674-.186 3.533.186 4.65 1.302 2.231 2.604 3.161 6.138 6.509 7.812 2.604.186 4.836-.558 7.068-1.674 1.302-.744 2.79-1.86 2.79-3.534-.186-3.348-2.418-5.952-5.208-7.811-2.79-1.488-5.766-3.534-7.812-6.138-1.116-1.488-1.302-3.162-1.86-4.65-.186-.372-.93-.372-1.115-.186-1.117.93-.186 2.604-.186 3.72.186.744.557 1.674.186 2.232-1.674 1.302-3.906.558-5.952.744-4.092-.186-7.998-1.86-12.276-1.488-4.092.186-9.671 2.976-12.647-1.116-1.488-3.906-1.116-8.556-.372-12.462 0-.372-.372-.744-.744-.744-.372-.186-.744 0-.93.372-1.116 3.906-1.302 8.184-2.232 12.276-1.488 3.534-4.092 7.254-7.626 9.113-3.162 1.674-6.881 2.232-10.787 2.604-7.068.186-13.578 1.488-18.041 7.626-.372.558-.93 1.116-.744 1.86.186.186.744.372.93.186 4.835-5.394 10.973-7.626 18.04-7.254 6.696 0 13.392-1.116 17.67-6.881 1.116-1.302 1.86-2.604 2.79-4.092.744 0 1.302.93 1.86 1.302.186 2.046-1.488 3.347-2.232 5.021-.93 1.86-1.86 4.092-3.72 5.208-2.232.558-4.092 2.046-6.138 3.162-2.046.93-4.65 1.302-7.067.744-2.976-.558-7.068-1.302-10.044 0-1.488.93-2.79 2.604-4.278 3.534-2.046.93-3.906 2.604-6.324 2.418-1.674-.372-3.72-1.488-5.207 0-1.86 1.674-2.232 4.65-4.65 5.766-2.79 1.487-5.766 0-8.556-.186.372-2.79.744-5.394 2.604-7.44 1.116-.186 2.046-.372 2.976-1.116 1.116-.93 1.86-2.232 2.604-3.534 2.418-1.488 5.208-2.604 6.696-5.208 1.116-2.418 1.116-4.65 2.975-6.881l.93-.372 5.022-.372c2.046-.93 3.906-1.86 5.766-3.348.558-.558.744-1.488.558-2.418-.93-2.418-1.674-4.092-2.232-6.696-.558-2.604-.186-5.208-.558-8.184-.186-.186-.372-.743-.744-.743-3.348.743-6.51 1.673-10.23 1.115-5.021-.558-10.23-3.905-12.089-8.927-1.674-4.278-1.302-10.416 1.86-13.95 2.976-3.72 6.696-6.51 10.416-9.671.558-.372.558-1.116.744-1.674 0-.744-.744-1.302-1.302-1.674-2.232-.558-4.836.186-7.068-.744-3.906-1.302-6.882-5.022-7.44-9.114-.186-1.86.186-3.347 1.116-4.835 2.976 2.603 5.208 4.835 7.998 5.58m-11.16 83.138v.558c-.93 2.232-1.488 4.836-2.232 7.44-1.674-.186-3.162-.744-4.464-1.302-.371-.372 0-.744 0-1.116 1.674-1.488 1.116-3.348 1.488-5.394.186-1.116 1.302-2.046 2.418-2.604 1.302.186 2.046 1.488 2.79 2.418m8.184-7.812c-.93 1.86-2.232 4.092-4.278 5.208-.744.186-1.674.186-2.418-.186-.372-.372-1.116-.744-1.116-1.488.186-.744-.186-1.674.558-2.046 1.488-.93 2.976-1.86 4.464-3.162.372-.186 1.116-.372 1.302 0 .744.558 1.302.93 1.488 1.674m93.182-.744c.186.744 1.302 1.674.558 2.418-1.488 1.116-3.162 1.86-5.208 1.674-1.488-1.116-1.302-3.162-2.604-4.65-.372-1.116-2.046-1.116-1.674-2.232l.558-.372c2.046 0 4.092 0 6.138-.372 2.046-.186 1.488 2.232 2.232 3.534m117.547-30.317c1.116 1.488 2.046 2.976 2.79 4.836.186.372 0 .744-.186 1.116-.186.372-.558.744-1.116.372-1.302-.372-1.116-2.418-2.79-2.232-1.116 0-1.86.93-2.79 1.488-1.674 1.488-3.906 2.976-4.278 5.208-.372.744-.186 2.046-.93 2.418-.372.186-.93-.186-.93-.558-.185-2.976.744-5.766 2.79-7.812 2.046-1.674 3.534-4.092 5.208-6.137 1.116-.186 1.86.558 2.232 1.301m.744 24.737c.372.744 1.116 1.674.558 2.604-.744.558-2.046.186-2.976.186-1.116-.558-1.488-2.046-1.488-3.348 0-.372 0-.557.372-.929 1.302 0 2.604.372 3.534 1.487m27.899-56.913c.558.744 0 1.488-.372 2.046-2.604 2.418-5.766 5.021-7.626 7.997-.744.93-1.302 2.046-1.674 3.162 0 .186-.186.186-.372.186-.558-1.488.186-3.162.558-4.65 1.302-3.533 4.278-6.881 7.44-9.3.372-.185 1.674-.371 2.046.559m10.601-11.904c2.046 1.302 2.79 4.092 5.208 4.65 4.092.93 8.184 1.86 11.904 3.72 2.604 1.302 5.022 3.162 7.439 5.208 2.232 1.116 5.022 1.116 7.44 1.86 3.534.93 6.324 3.533 9.486 5.58 4.092 3.161 9.857 2.79 14.507 4.835 7.44 2.418 13.392 8.184 20.273 11.532 3.534 1.86 8.928 2.604 12.462.558 2.418-1.674 3.906-3.906 3.348-7.068-1.302-7.626-9.672-11.532-13.578-17.855-.744-1.488-1.302-3.534-.93-5.208 1.488-3.72 5.394-5.766 8.742-7.068 2.604-1.302 5.952-.93 8.369-2.418.93-.558 1.674-1.302 2.232-1.86.558 0 .558.558.744.93.744 4.464 0 9.114-3.905 11.718-1.488 1.116-3.348 1.488-5.022 1.86-1.488.558-4.464-.558-4.278 2.046.372 1.302 1.488 2.046 2.418 2.976 5.208 4.278 10.043 9.857 10.601 16.553.186 5.208-3.348 9.672-7.811 11.903-3.348 1.302-7.44 1.86-10.974.93-.93-.186-2.418-1.116-3.162.186-.186 1.488.744 2.604.744 3.906.372 2.418.372 5.58-.372 7.998-.372 1.86-2.232 4.092-.558 5.952 1.674 2.604 5.022 1.86 7.812 2.232 1.488.186 2.046 1.86 2.418 2.975.558 1.488.558 3.162 1.116 4.278 0 2.79 3.162 3.906 4.65 5.766 1.86 2.046 3.533 5.58 6.695 5.394 1.116 2.232 1.674 4.278 2.046 6.882l-.372.372c-2.604 0-6.137.743-7.997-1.116-2.232-1.488-2.976-5.58-6.324-4.464-1.488 1.116-3.534 1.488-5.208.744-1.674-.558-2.79-2.046-4.278-2.976-4.464-3.348-10.415-5.022-16.181-3.72-3.348.93-5.952-1.488-8.556-2.976-3.534-1.488-4.464-5.208-5.207-8.37l-.558-3.905c0-.372.372-.744.743-.93h.558c2.046 4.649 5.952 9.857 10.974 11.531 4.65 1.86 8.928-.558 13.949.372 4.65.558 8.37 3.534 11.904 6.324.372 0 .558-.186.744-.558v-.372c-4.278-5.394-10.23-8.184-17.111-7.626-5.766 1.116-11.346-.744-14.694-5.579-1.86-2.79-3.162-5.766-3.72-8.928-.558-3.72-1.302-7.812-2.603-11.16-.372-.186-.744-.558-1.116-.372l-.372.558c.558 3.534 1.673 7.812.372 11.532-.93 2.976-3.906 4.092-6.696 4.278-2.79.186-5.394-.372-8.37-.372-6.696-.186-12.647 2.418-19.529 1.86.558-1.674 1.674-3.348 1.116-5.208-.186-.372-.744-.372-1.116-.372-1.302.744-1.116 2.418-1.86 3.534-1.488 2.418-4.278 4.65-7.068 5.207-2.046 1.488-3.905 3.534-5.579 5.394-.558.558-.558 1.674-.372 2.418 1.302 3.348 5.207 3.72 8.183 4.65 1.488.186 2.79-.372 3.534-1.674 1.302-2.046 1.488-5.394 4.464-5.766h6.51c.558.186.93.558 1.302 1.116l-.186.93c-1.488 1.674-2.046 4.092-3.906 5.208-1.116.372-2.418 0-3.162.93-.372 2.232-.93 4.65-3.162 5.766-1.674 1.488-4.092.744-5.952.186-3.534-1.302-7.067-2.046-10.601-3.162-1.488-.372-2.046-2.232-3.72-2.604-1.488-.372-3.162.744-4.464-.558-.744-1.674-1.116-2.79-1.488-4.65-.558-1.116-.93-2.418-1.116-3.72-.186-1.116 0-1.86.372-2.79l4.836-8.741c.372-.558.744-1.116 1.302-1.302 1.116.186 2.418.744 3.534 1.302l-.186.558-5.022 7.625c-1.116 2.418 0 5.208 1.116 7.254.186.186.372.558.558.372-.186-1.488-.372-2.976 0-4.65.372-1.488 1.302-2.79 2.046-4.092l3.906-5.765c.372-.93.372-2.418-.372-3.348-1.674-1.674-4.092-2.232-5.58-4.464-3.162-4.278-3.534-9.3-3.906-14.693 0-.372-.372-.93-.93-1.116-.372-.186-.744.372-.93.558-.93 3.534-.372 7.811.558 10.973.558 2.418 1.674 4.836 2.79 7.068.186.372-.186.93-.558 1.116-2.604.186-5.208 0-7.626-.372-3.347-.558-5.765-3.162-8.555-5.208-.372-.186-.558.186-.744.372.744 3.72 4.836 5.952 6.137 9.3.744 2.79 3.534 4.836 4.092 7.811 0 .372-.372.93-.744 1.116-.93.186-1.86-.372-2.79.186-.186 1.674.93 3.348.186 4.836-.929 1.488-2.231 3.162-3.905 3.162-3.348-1.116-6.696-2.604-10.044-3.534-2.418-.186-4.836.186-7.068.372-2.232-.372-3.72-2.418-5.393-3.534-.558-.186-1.116-.186-1.488.186-3.72 3.72-7.812 7.812-13.392 7.626-.372 0-.558-.372-.558-.744v-.372c2.418-2.232 5.394-4.464 6.51-7.626.744-2.604 2.976-4.464 3.906-6.881.186-.372-.186-.558-.558-.744l-.558.372c-2.79 2.79-4.836 5.951-6.882 8.927-2.046 2.046-5.022 3.348-8.184 2.604-.372-.186-.372-.744-.186-1.116 11.532-7.068 12.834-19.715 15.996-31.247 2.232-7.625 3.906-15.437 9.857-21.575 8.928-9.857 20.088-15.623 29.945-24.179 1.488-1.302 2.976-2.603 4.836-2.603 4.836-.373 8.556 1.487 11.903 4.277M374.52 149.19c.93 1.302.558 3.348.93 4.836.186 1.116 1.674 2.046.93 3.162l-4.092 1.302c-.744 0-.372-.93-.744-1.302-.372-2.418-.93-4.092-1.674-6.324-.186-1.302 1.116-2.232 2.046-2.976.93-.372 1.674.744 2.604 1.302m-9.486-8.37c1.488 1.302 3.534 2.232 4.65 3.906.186.744-.372 1.488-.744 2.046a3.08 3.08 0 01-2.232.93c-.93 0-1.674-.558-2.232-1.302-.93-1.488-2.231-2.79-2.603-4.278.557-.93 1.859-2.418 3.161-1.302m-89.648-1.488c-.186 1.86-.744 3.534-1.488 5.208-.558 1.116-2.232.744-3.348.558-1.116-.372-2.976-.558-3.162-2.232-.186-1.488.558-2.976 1.302-4.092 1.674-.186 3.72.186 5.394-.186.744 0 1.302.186 1.302.744" fill-rule="evenodd" fill="#e21b4d"/></g></svg>