<?xml version="1.0" encoding="UTF-8" standalone="no"?>
<svg version="1.1" width="100%" viewBox="0 0 6804 3402" xml:space="preserve" xmlns:vectornator="http://vectornator.io" xmlns="http://www.w3.org/2000/svg" height="100%" style="fill-rule:nonzero;clip-rule:evenodd;stroke-linecap:round;stroke-linejoin:round;" xmlns:xlink="http://www.w3.org/1999/xlink">
<defs/>
<path opacity="1" d="M4.38999-0.189968L6806.87-0.189968L6806.87+3401.2L4.38999+3401.2L4.38999-0.189968Z" fill="#d52b1e"/>
<path fill="#ffffff" opacity="1" d="M1978.52-0.0461823L5379.76-0.0461823L5379.76+3401.2L1978.52+3401.2L1978.52-0.0461823ZM3742.91+3139.02L3711.03+2527.5C3710.09+2507.13+3718.43+2487.43+3733.72+2473.94C3749.01+2460.44+3769.58+2454.6+3789.68+2458.06L4398.36+2565.06L4316.16+2338.31C4309.33+2319.81+4315.03+2299.01+4330.34+2286.58L4997.12+1746.63L4846.9+1676.48C4825.91+1666.56+4815.58+1642.57+4822.81+1620.5L4954.61+1215.19L4570.55+1296.68C4549.1+1301.15+4527.46+1289.89+4518.82+1269.75L4444.42+1094.73L4144.69+1416.43C4130.61+1431.28+4108.42+1435.06+4090.22+1425.71C4072.02+1416.37+4062.17+1396.13+4066.03+1376.04L4210.58+630.601L3978.87+764.524C3967.88+770.969+3954.7+772.569+3942.48+768.944C3930.27+765.318+3920.09+756.792+3914.39+745.393L3679.14+283.391L3443.89+745.393C3438.19+756.792+3428.02+765.318+3415.8+768.944C3403.58+772.569+3390.4+770.969+3379.41+764.524L3147.7+630.601L3292.25+1376.04C3296.11+1396.13+3286.26+1416.37+3268.06+1425.71C3249.86+1435.06+3227.67+1431.28+3213.6+1416.43L2913.86+1094.73L2839.46+1269.75C2830.82+1289.89+2809.18+1301.15+2787.73+1296.68L2403.68+1215.19L2535.47+1620.5C2542.7+1642.57+2532.37+1666.56+2511.38+1676.48L2361.16+1746.63L3027.94+2286.58C3043.26+2299.01+3048.95+2319.81+3042.12+2338.31L2959.92+2565.06L3568.6+2458.06C3588.7+2454.6+3609.28+2460.44+3624.56+2473.94C3639.85+2487.43+3648.19+2507.13+3647.25+2527.5L3615.37+3139.02L3742.91+3139.02Z"/>
</svg>
