<?xml version="1.0" encoding="UTF-8" standalone="no"?>
<svg xmlns:xlink="http://www.w3.org/1999/xlink" xml:space="preserve" viewBox="0 0 175.75 106.48" style="fill-rule:nonzero;clip-rule:evenodd;stroke-linecap:round;stroke-linejoin:round;" version="1.1" xmlns:vectornator="http://vectornator.io" xmlns="http://www.w3.org/2000/svg">
<defs/>
<path fill="#ffffff" fill-rule="evenodd" d="M175.685+106.442L175.685-0.0423953L-0.0632458-0.0423953L-0.0632458+106.442C-0.0632458+106.442+175.685+106.442+175.685+106.442Z" opacity="1"/>
  <path d="M175.685+106.442L175.685-0.0423953L-0.0632458-0.0423953L-0.0632458+106.442C-0.0632458+106.442+175.685+106.442+175.685+106.442Z" fill-rule="evenodd" opacity="1" fill="#012169" />
<path fill="#ffffff" opacity="1" fill-rule="evenodd" d="M108.183+106.442L108.183+69.2896L175.685+69.2896L175.685+37.1096L108.183+37.1096L108.183-0.0423953L66.4908-0.0423953L66.4908+37.1096L-0.0632458+37.1096L-0.0632458+69.2896L66.4908+69.2896L66.4908+106.442C66.4908+106.442+108.183+106.442+108.183+106.442Z"/>
<path fill="#ffffff" opacity="1" d="M21.3398-0.0423953L175.685+93.4786L175.685+106.444L154.663+106.444L-0.0632458+12.6916L-0.0632458-0.0423953L21.3398-0.0423953Z"/>
<path fill="#ffffff" opacity="1" d="M154.283-0.0423953L-0.0632458+93.4786L-0.0632458+106.444L20.9598+106.444L175.685+12.6916L175.685-0.0423953L154.283-0.0423953Z"/>
<path d="M175.685+42.9286L100.523+42.9286L100.523-0.0423953L75.1708-0.0423953L75.1708+42.9286L-0.0632458+42.9286L-0.0632458+63.4706L75.1708+63.4706L75.1708+106.442L100.523+106.442L100.523+63.4706L175.685+63.4706C175.685+63.4706+175.685+42.9286+175.685+42.9286Z" opacity="1" fill-rule="evenodd" fill="#cc2229"/>
<path d="M0.0167542-0.0423953L61.0718+37.1096L47.3688+37.1096L-0.0632458+8.24661L-0.0632458-0.0423934C-0.0632458-0.0423934+0.0167542-0.0423934+0.0167542-0.0423953ZM-0.0632458+106.257L-0.0632458+106.444L13.3308+106.444L66.4908+74.0956L66.4908+69.2896L60.6858+69.2896L-0.0632458+106.257ZM175.685+106.444L175.685+98.6816L127.382+69.2896L113.679+69.2896L174.738+106.444C174.738+106.444+175.685+106.444+175.685+106.444ZM161.197-0.0423953L108.183+32.2176L108.183+37.1096L113.845+37.1096L174.9-0.0423972C174.9-0.0423972+161.197-0.0423972+161.197-0.0423953Z" opacity="1" fill="#cc2229"/>
</svg>
